<svg width="80" height="91" viewBox="0 0 80 91" fill="none" xmlns="http://www.w3.org/2000/svg">
<path d="M40 90.7141C62.0914 90.7141 80 73.0575 80 51.277C80 29.4964 62.0914 11.8398 40 11.8398C17.9086 11.8398 0 29.4964 0 51.277C0 73.0575 17.9086 90.7141 40 90.7141Z" fill="#FFC500"/>
<path d="M40 34.5193C53.0756 34.5193 64.8119 32.2867 72.8339 28.7405C65.6058 18.5239 53.5934 11.8398 40 11.8398C26.4066 11.8398 14.3942 18.5239 7.16602 28.7405C15.1881 32.2867 26.9244 34.5193 40 34.5193Z" fill="#FF9F1E"/>
<path d="M40.9389 0.390625C20.0759 0.390625 3.16187 6.62542 3.16187 14.3168C3.16187 22.0082 20.0759 28.2362 40.9389 28.2362C61.8018 28.2362 78.7159 22.0014 78.7159 14.3168C78.7159 6.63223 61.8018 0.390625 40.9389 0.390625ZM40.9389 21.8721C26.4963 21.8721 14.7946 18.4892 14.7946 14.3168C14.7946 10.1444 26.4963 6.76155 40.9389 6.76155C55.3814 6.76155 67.0901 10.1444 67.0901 14.3168C67.0901 18.4892 55.3814 21.8721 40.9389 21.8721Z" fill="#4795FF"/>
<path d="M39.8965 75.3307C34.6152 75.3307 29.6376 73.2411 25.8889 69.4431C25.699 69.2509 25.5493 69.0237 25.4484 68.7745C25.3475 68.5253 25.2974 68.2589 25.301 67.9906C25.3045 67.7223 25.3616 67.4573 25.469 67.2108C25.5764 66.9642 25.732 66.741 25.9269 66.5537C26.1218 66.3664 26.3522 66.2189 26.605 66.1194C26.8578 66.0199 27.1279 65.9705 27.4001 65.974C27.6722 65.9775 27.941 66.0338 28.191 66.1397C28.4411 66.2455 28.6676 66.399 28.8575 66.5911C31.8192 69.5928 35.7405 71.2468 39.8965 71.2468C44.0525 71.2468 48.1326 69.5248 51.1219 66.4006C51.3038 66.1892 51.5274 66.0166 51.7791 65.8932C52.0308 65.7698 52.3053 65.6983 52.586 65.6828C52.8666 65.6674 53.1475 65.7085 53.4116 65.8036C53.6756 65.8986 53.9173 66.0457 54.1218 66.2358C54.3264 66.4259 54.4895 66.6551 54.6013 66.9093C54.7132 67.1636 54.7713 67.4376 54.7723 67.7148C54.7732 67.9919 54.7169 68.2663 54.6068 68.5213C54.4967 68.7763 54.3352 69.0066 54.1319 69.198C52.333 71.096 50.1662 72.6189 47.7598 73.6767C45.288 74.7734 42.6071 75.3373 39.8965 75.3307Z" fill="#00305F"/>
<path d="M26.2269 55.7379C24.1627 55.7379 22.1399 54.8054 20.2345 52.9676C19.8409 52.5894 19.6157 52.0725 19.6086 51.5307C19.6015 50.9888 19.813 50.4664 20.1965 50.0782C20.5801 49.6901 21.1044 49.4681 21.654 49.4611C22.2036 49.4541 22.7335 49.6626 23.1272 50.0408C24.2317 51.1094 25.2811 51.654 26.2269 51.654C27.1727 51.654 28.2221 51.1094 29.3267 50.0408C29.7203 49.6626 30.2502 49.4541 30.7998 49.4611C31.3494 49.4681 31.8737 49.6901 32.2573 50.0782C32.6409 50.4664 32.8524 50.9888 32.8453 51.5307C32.8381 52.0725 32.613 52.5894 32.2193 52.9676C30.3139 54.8054 28.298 55.7379 26.2269 55.7379Z" fill="#00305F"/>
<path d="M53.7728 55.7379C51.7017 55.7379 49.6858 54.8054 47.7804 52.9676C47.5855 52.7804 47.4299 52.5571 47.3225 52.3105C47.2151 52.064 47.158 51.799 47.1545 51.5307C47.1509 51.2624 47.2011 50.996 47.3019 50.7468C47.4028 50.4976 47.5525 50.2704 47.7424 50.0782C47.9324 49.8861 48.1588 49.7326 48.4089 49.6268C48.659 49.5209 48.9278 49.4646 49.1999 49.4611C49.472 49.4576 49.7422 49.507 49.9949 49.6065C50.2477 49.706 50.4781 49.8535 50.6731 50.0408C51.7776 51.1094 52.8201 51.654 53.7728 51.654C54.7255 51.654 55.768 51.1094 56.8726 50.0408C57.2662 49.6626 57.7961 49.4541 58.3457 49.4611C58.8953 49.4681 59.4196 49.6901 59.8032 50.0782C60.1868 50.4664 60.3983 50.9888 60.3912 51.5307C60.384 52.0725 60.1589 52.5894 59.7652 52.9676C57.8598 54.8054 55.837 55.7379 53.7728 55.7379Z" fill="#00305F"/>
</svg>
