<svg width="37" height="37" viewBox="0 0 37 37" fill="none" xmlns="http://www.w3.org/2000/svg">
<rect width="37" height="37" rx="18.5" fill="#FFCD54"/>
<g clip-path="url(#clip0_1928_126748)">
<path d="M19.125 23.502H17.875V24.4057L14.0806 26.7763C14.465 26.9795 14.7306 27.3738 14.7456 27.8345L17.875 25.8795V26.8007C18.0594 26.6932 18.2713 26.6276 18.5 26.6276C18.7288 26.6276 18.9406 26.6932 19.125 26.8007V25.8795L22.2544 27.8351C22.2619 27.6158 22.3274 27.4024 22.4441 27.2165C22.5607 27.0307 22.7245 26.879 22.9188 26.777L19.125 24.4057V23.502ZM12.25 19.127H12.875V20.377H12.25V19.127ZM24.125 19.127H24.75V20.377H24.125V19.127Z" fill="white"/>
<path d="M22.875 27.877C22.875 28.0427 22.9408 28.2017 23.0581 28.3189C23.1753 28.4361 23.3342 28.502 23.5 28.502C23.6658 28.502 23.8247 28.4361 23.9419 28.3189C24.0592 28.2017 24.125 28.0427 24.125 27.877C24.125 27.7112 24.0592 27.5522 23.9419 27.435C23.8247 27.3178 23.6658 27.252 23.5 27.252C23.3342 27.252 23.1753 27.3178 23.0581 27.435C22.9408 27.5522 22.875 27.7112 22.875 27.877Z" fill="white"/>
<path d="M17.875 27.877C17.875 28.0427 17.9408 28.2017 18.0581 28.3189C18.1753 28.4361 18.3342 28.502 18.5 28.502C18.6658 28.502 18.8247 28.4361 18.9419 28.3189C19.0592 28.2017 19.125 28.0427 19.125 27.877C19.125 27.7112 19.0592 27.5522 18.9419 27.435C18.8247 27.3178 18.6658 27.252 18.5 27.252C18.3342 27.252 18.1753 27.3178 18.0581 27.435C17.9408 27.5522 17.875 27.7112 17.875 27.877Z" fill="white"/>
<path d="M12.875 27.877C12.875 28.0427 12.9408 28.2017 13.0581 28.3189C13.1753 28.4361 13.3342 28.502 13.5 28.502C13.6658 28.502 13.8247 28.4361 13.9419 28.3189C14.0592 28.2017 14.125 28.0427 14.125 27.877C14.125 27.7112 14.0592 27.5522 13.9419 27.435C13.8247 27.3178 13.6658 27.252 13.5 27.252C13.3342 27.252 13.1753 27.3178 13.0581 27.435C12.9408 27.5522 12.875 27.7112 12.875 27.877Z" fill="white"/>
<path d="M22.875 20.377V9.75195C22.875 9.42043 22.7433 9.10249 22.5089 8.86807C22.2745 8.63365 21.9565 8.50195 21.625 8.50195H15.375C15.0435 8.50195 14.7255 8.63365 14.4911 8.86807C14.2567 9.10249 14.125 9.42043 14.125 9.75195V20.377H22.875Z" fill="white"/>
<path d="M17.875 23.502H19.125V24.127H17.875V23.502Z" fill="#FFCD54"/>
<path d="M25.375 19.127V14.752C25.375 14.5862 25.3092 14.4272 25.1919 14.31C25.0747 14.1928 24.9158 14.127 24.75 14.127H24.125C23.9592 14.127 23.8003 14.1928 23.6831 14.31C23.5658 14.4272 23.5 14.5862 23.5 14.752V19.127H25.375ZM13.5 19.127V14.752C13.5 14.5862 13.4342 14.4272 13.3169 14.31C13.1997 14.1928 13.0408 14.127 12.875 14.127H12.25C12.0842 14.127 11.9253 14.1928 11.8081 14.31C11.6908 14.4272 11.625 14.5862 11.625 14.752V19.127H13.5Z" fill="white"/>
<path d="M12.25 19.127H12.875V19.752H12.25V19.127ZM24.125 19.127H24.75V19.752H24.125V19.127Z" fill="#FFCD54"/>
<path d="M14.125 19.752H22.875V20.377H14.125V19.752Z" fill="#FFCD54"/>
<path d="M24.75 20.377H12.25C12.0842 20.377 11.9253 20.4428 11.8081 20.56C11.6908 20.6772 11.625 20.8362 11.625 21.002C11.625 21.665 11.8884 22.3009 12.3572 22.7697C12.8261 23.2386 13.462 23.502 14.125 23.502H22.875C23.538 23.502 24.1739 23.2386 24.6428 22.7697C25.1116 22.3009 25.375 21.665 25.375 21.002C25.375 20.8362 25.3092 20.6772 25.1919 20.56C25.0747 20.4428 24.9158 20.377 24.75 20.377Z" fill="white"/>
<path d="M19.75 11.002C19.75 11.1677 19.8158 11.3267 19.9331 11.4439C20.0503 11.5611 20.2092 11.627 20.375 11.627C20.5408 11.627 20.6997 11.5611 20.8169 11.4439C20.9342 11.3267 21 11.1677 21 11.002C21 10.8362 20.9342 10.6772 20.8169 10.56C20.6997 10.4428 20.5408 10.377 20.375 10.377C20.2092 10.377 20.0503 10.4428 19.9331 10.56C19.8158 10.6772 19.75 10.8362 19.75 11.002Z" fill="#FFCD54"/>
<path d="M17.875 13.502C17.875 13.6677 17.9408 13.8267 18.0581 13.9439C18.1753 14.0611 18.3342 14.127 18.5 14.127C18.6658 14.127 18.8247 14.0611 18.9419 13.9439C19.0592 13.8267 19.125 13.6677 19.125 13.502C19.125 13.3362 19.0592 13.1772 18.9419 13.06C18.8247 12.9428 18.6658 12.877 18.5 12.877C18.3342 12.877 18.1753 12.9428 18.0581 13.06C17.9408 13.1772 17.875 13.3362 17.875 13.502Z" fill="#FFCD54"/>
<path d="M16 11.002C16 11.1677 16.0658 11.3267 16.1831 11.4439C16.3003 11.5611 16.4592 11.627 16.625 11.627C16.7908 11.627 16.9497 11.5611 17.0669 11.4439C17.1842 11.3267 17.25 11.1677 17.25 11.002C17.25 10.8362 17.1842 10.6772 17.0669 10.56C16.9497 10.4428 16.7908 10.377 16.625 10.377C16.4592 10.377 16.3003 10.4428 16.1831 10.56C16.0658 10.6772 16 10.8362 16 11.002Z" fill="#FFCD54"/>
<path d="M19.75 16.002C19.75 16.1677 19.8158 16.3267 19.9331 16.4439C20.0503 16.5611 20.2092 16.627 20.375 16.627C20.5408 16.627 20.6997 16.5611 20.8169 16.4439C20.9342 16.3267 21 16.1677 21 16.002C21 15.8362 20.9342 15.6772 20.8169 15.56C20.6997 15.4428 20.5408 15.377 20.375 15.377C20.2092 15.377 20.0503 15.4428 19.9331 15.56C19.8158 15.6772 19.75 15.8362 19.75 16.002Z" fill="#FFCD54"/>
<path d="M16 16.002C16 16.1677 16.0658 16.3267 16.1831 16.4439C16.3003 16.5611 16.4592 16.627 16.625 16.627C16.7908 16.627 16.9497 16.5611 17.0669 16.4439C17.1842 16.3267 17.25 16.1677 17.25 16.002C17.25 15.8362 17.1842 15.6772 17.0669 15.56C16.9497 15.4428 16.7908 15.377 16.625 15.377C16.4592 15.377 16.3003 15.4428 16.1831 15.56C16.0658 15.6772 16 15.8362 16 16.002Z" fill="#FFCD54"/>
</g>
<defs>
<clipPath id="clip0_1928_126748">
<rect width="20" height="20" fill="white" transform="translate(8.5 8.5)"/>
</clipPath>
</defs>
</svg>
