<svg width="37" height="37" viewBox="0 0 37 37" fill="none" xmlns="http://www.w3.org/2000/svg">
<rect width="37" height="37" rx="18.5" fill="#6DB33F"/>
<g clip-path="url(#clip0_1294_150932)">
<path fill-rule="evenodd" clip-rule="evenodd" d="M11.75 11.375H25.25C25.6642 11.375 26 11.7294 26 12.1667V21.6667C26 22.1039 25.6642 22.4583 25.25 22.4583H11.75C11.3358 22.4583 11 22.1039 11 21.6667V12.1667C11 11.7294 11.3358 11.375 11.75 11.375ZM16.314 23.25C16.4685 23.7112 16.8852 24.0417 17.375 24.0417H19.625C20.1148 24.0417 20.5315 23.7112 20.686 23.25H26.375C26.9963 23.25 27.5 23.7817 27.5 24.4375C27.5 25.0933 26.9963 25.625 26.375 25.625H10.625C10.0037 25.625 9.5 25.0933 9.5 24.4375C9.5 23.7817 10.0037 23.25 10.625 23.25H16.314Z" fill="white"/>
</g>
<defs>
<clipPath id="clip0_1294_150932">
<rect width="18" height="19" fill="white" transform="translate(9.5 9)"/>
</clipPath>
</defs>
</svg>
