<svg width="37" height="38" viewBox="0 0 37 38" fill="none" xmlns="http://www.w3.org/2000/svg">
<rect y="0.939453" width="37" height="37" rx="18.5" fill="#F85C7F"/>
<g clip-path="url(#clip0_1928_126768)">
<path d="M24.5286 11.9172L26.0218 13.4085C26.3281 13.7144 26.5002 14.1293 26.5002 14.5619V22.4499C26.5002 22.9004 26.1346 23.2655 25.6836 23.2655H17.9255C17.4745 23.2655 17.1089 22.9004 17.1089 22.45V12.255C17.1089 11.8046 17.4745 11.4395 17.9255 11.4395H23.3737C23.8069 11.4395 24.2223 11.6113 24.5286 11.9172Z" fill="white"/>
<path d="M23.2339 13.0707V11.4395H23.374C23.8072 11.4395 24.2226 11.6113 24.5289 11.9172L26.0221 13.4085C26.3284 13.7144 26.5004 14.1293 26.5004 14.5619V14.7018H24.8671C23.9651 14.7018 23.2339 13.9715 23.2339 13.0707Z" fill="white"/>
<path d="M23.5802 17.1212L24.2388 23.2662H23.1953V16.7754C23.3931 16.7754 23.5591 16.9245 23.5802 17.1212Z" fill="white"/>
<path d="M21.224 14.0051L22.7171 15.4964C23.0234 15.8023 23.1955 16.2172 23.1955 16.6498V24.5378C23.1955 24.9882 22.8299 25.3534 22.3789 25.3534H14.6208C14.1698 25.3534 13.8042 24.9883 13.8042 24.5378V14.3429C13.8042 13.8925 14.1698 13.5273 14.6208 13.5273H20.069C20.5022 13.5273 20.9177 13.6992 21.224 14.0051Z" fill="white"/>
<path d="M19.9292 15.1585V13.5273H20.0693C20.5025 13.5273 20.9179 13.6992 21.2242 14.0051L22.7174 15.4964C23.0237 15.8023 23.1957 16.2172 23.1957 16.6498V16.7897H21.5625C20.6604 16.7897 19.9292 16.0594 19.9292 15.1585Z" fill="#EEEEEE"/>
<path d="M20.276 19.2072L20.9346 25.3521H19.8911V18.8613C20.0889 18.8613 20.2549 19.0105 20.276 19.2072Z" fill="white"/>
<path d="M17.9198 16.0911L19.4129 17.5823C19.7192 17.8882 19.8913 18.3031 19.8913 18.7357V26.6237C19.8913 27.0742 19.5257 27.4393 19.0747 27.4393H11.3166C10.8656 27.4394 10.5 27.0743 10.5 26.6238V16.4289C10.5 15.9784 10.8656 15.6133 11.3166 15.6133H16.7648C17.198 15.6133 17.6135 15.7851 17.9198 16.0911Z" fill="white"/>
<path d="M16.625 17.2445V15.6133H16.7651C17.1983 15.6133 17.6137 15.7851 17.92 16.0911L19.4132 17.5823C19.7195 17.8882 19.8915 18.3031 19.8915 18.7357V18.8756H18.2583C17.3562 18.8756 16.625 18.1454 16.625 17.2445Z" fill="#F2F2F2"/>
<path d="M15.5969 24.6292C15.3981 24.828 15.0757 24.828 14.8769 24.6292L13.8688 23.6211C13.67 23.4223 13.67 23.0999 13.8688 22.9011C14.0677 22.7022 14.3901 22.7022 14.5889 22.9011L15.5969 23.9091C15.7958 24.1079 15.7958 24.4303 15.5969 24.6292Z" fill="white"/>
<path d="M16.605 24.1973C16.4061 24.3961 16.0838 24.3961 15.8849 24.1973L13.7248 22.0371C13.526 21.8383 13.526 21.5159 13.7248 21.3171C13.9236 21.1183 14.246 21.1183 14.4448 21.3171L16.605 23.4772C16.8038 23.676 16.8038 23.9984 16.605 24.1973Z" fill="white"/>
<path d="M16.749 22.9004C16.5502 23.0992 16.2278 23.0992 16.029 22.9004L13.8688 20.7402C13.67 20.5414 13.67 20.219 13.8688 20.0202C14.0677 19.8214 14.3901 19.8214 14.5889 20.0202L16.749 22.1803C16.9478 22.3792 16.9478 22.7015 16.749 22.9004Z" fill="white"/>
<path d="M16.6052 21.3167C16.4064 21.5155 16.084 21.5155 15.8852 21.3167L14.8771 20.3086C14.6783 20.1098 14.6783 19.7874 14.8771 19.5886C15.076 19.3897 15.3984 19.3897 15.5972 19.5886L16.6052 20.5966C16.8041 20.7955 16.8041 21.1179 16.6052 21.3167Z" fill="white"/>
<path d="M13.1489 22.1816C12.9501 22.3805 12.6277 22.3805 12.4289 22.1816C12.2301 21.9828 12.2301 21.6604 12.4289 21.4616C12.6277 21.2628 12.9501 21.2628 13.1489 21.4616C13.3478 21.6604 13.3478 21.9828 13.1489 22.1816Z" fill="white"/>
<path d="M18.0454 22.7559C17.8466 22.9547 17.5242 22.9547 17.3254 22.7559C17.1266 22.557 17.1266 22.2346 17.3254 22.0358C17.5242 21.837 17.8466 21.837 18.0454 22.0358C18.2442 22.2346 18.2442 22.557 18.0454 22.7559Z" fill="white"/>
</g>
<defs>
<clipPath id="clip0_1928_126768">
<rect width="16" height="16" fill="white" transform="translate(10.5 11.4395)"/>
</clipPath>
</defs>
</svg>
