<svg width="32" height="33" viewBox="0 0 32 33" fill="none" xmlns="http://www.w3.org/2000/svg">
<mask id="mask0_468_81315" style="mask-type:luminance" maskUnits="userSpaceOnUse" x="0" y="0" width="32" height="33">
<rect y="0.5" width="32" height="32" fill="white"/>
</mask>
<g mask="url(#mask0_468_81315)">
<path d="M13.6712 8.34619L14.0424 13.8661L14.2266 16.6405C14.2286 16.9259 14.2733 17.2093 14.3596 17.4817C14.5821 18.0105 15.1176 18.3465 15.7001 18.3231L24.5764 17.7424C24.9608 17.7361 25.332 17.8799 25.6082 18.1421C25.8385 18.3607 25.9872 18.6465 26.0341 18.954L26.0498 19.1407C25.6825 24.2269 21.9469 28.4693 16.8712 29.5644C11.7954 30.6595 6.59045 28.3461 4.08225 23.8803C3.35915 22.5828 2.9075 21.1568 2.75381 19.6857C2.68961 19.2503 2.66134 18.8104 2.66927 18.3704C2.66134 12.9174 6.54459 8.20302 11.9804 7.0665C12.6346 6.96462 13.276 7.31096 13.5384 7.90778C13.6062 8.04599 13.651 8.19402 13.6712 8.34619Z" fill="#737791"/>
<path opacity="0.4" d="M29.3327 13.5824L29.3234 13.6259L29.2965 13.689L29.3002 13.8625C29.2863 14.0923 29.1975 14.3133 29.0447 14.492C28.8854 14.678 28.6678 14.8047 28.4282 14.8539L28.2821 14.8739L18.041 15.5375C17.7003 15.5711 17.3611 15.4612 17.1079 15.2353C16.8967 15.0469 16.7618 14.7928 16.7237 14.5189L16.0363 4.29276C16.0243 4.25819 16.0243 4.22071 16.0363 4.18612C16.0457 3.90424 16.1698 3.6378 16.3809 3.44632C16.5918 3.25484 16.8723 3.15428 17.1594 3.16711C23.2393 3.32179 28.3491 7.69374 29.3327 13.5824Z" fill="#737791"/>
</g>
</svg>
