<svg width="19" height="20" viewBox="0 0 19 20" fill="none" xmlns="http://www.w3.org/2000/svg">
<path opacity="0.3" fillRule="evenodd" clipRule="evenodd" d="M16.334 1.14809C15.4658 0.283508 14.0587 0.284038 13.1912 1.14927L6.48127 7.84251C5.94461 8.37774 5.62909 9.09424 5.59716 9.85021L5.50164 12.1116C5.45815 13.1414 6.28405 13.9999 7.31823 13.9999L9.54314 14C10.36 14 11.1423 13.6714 11.7127 13.0887L18.3685 6.26724C19.2182 5.39909 19.2093 4.01137 18.3485 3.15417L16.334 1.14809ZM14.0486 2.00316C14.443 1.60987 15.0826 1.60963 15.4772 2.00262L17.4917 4.0087C17.883 4.39834 17.887 5.02912 17.5008 5.42373C16.7644 6.17612 15.5558 6.18388 14.8099 5.441L14.0496 4.68396C13.3073 3.9447 13.3068 2.74298 14.0486 2.00316ZM13.5891 5.9331C12.6262 4.97424 11.0691 4.97494 10.1071 5.93466L7.33874 8.6964C7.01674 9.01754 6.82743 9.44744 6.80827 9.90102L6.71275 12.1624C6.69825 12.5057 6.97355 12.7918 7.31828 12.7919L9.54319 12.792C10.0333 12.792 10.5027 12.5948 10.8449 12.2452L13.6153 9.4016C14.5584 8.43356 14.5467 6.88677 13.5891 5.9331Z" fill="#667085"/>
<path d="M17.2 10.4008V15.5008C17.2 17.1576 15.8569 18.5008 14.2 18.5008H4C2.34314 18.5008 1 17.1576 1 15.5008V5.30078C1 3.64393 2.34315 2.30078 4 2.30078H9.1" stroke="#667085" strokeWidth="1.5" strokeLinecap="round"/>
</svg>
