<svg width="68" height="68" viewBox="0 0 68 68" fill="none" xmlns="http://www.w3.org/2000/svg">
<rect width="68" height="68" rx="34" fill="#2076FF" fillOpacity="0.8"/>
<path d="M36.3793 20.7852H15.6361C14.3148 20.7852 13.2402 21.8598 13.2402 23.181V35.9704H38.7839V23.181C38.7751 21.8509 37.7093 20.7852 36.3793 20.7852Z" fill="white"/>
<path d="M13.2422 38.5067C13.2422 39.828 14.3168 40.9026 15.638 40.9026H23.997V46.4253H21.6452C21.3017 46.4253 21.0286 46.6983 21.0286 47.0418C21.0286 47.3854 21.3017 47.6584 21.6452 47.6584H30.3653C30.7088 47.6584 30.9819 47.3854 30.9819 47.0418C30.9819 46.6983 30.7088 46.4253 30.3653 46.4253H27.9254V40.9026H36.3725C37.6937 40.9026 38.7683 39.828 38.7683 38.5067V37.2031H13.2246V38.5067H13.2422Z" fill="white"/>
<path d="M52.3236 20.7773H43.3833C42.7579 20.7773 42.2471 21.2882 42.2471 21.9136V46.0215C42.2471 46.6469 42.7579 47.1578 43.3833 47.1578H52.3324C52.9578 47.1578 53.4687 46.6469 53.4687 46.0215V21.9136C53.4599 21.2882 52.949 20.7773 52.3236 20.7773ZM44.5812 25.5514H51.1257V29.1627H44.5812V25.5514ZM47.8491 42.6216C46.8097 42.6216 45.9641 41.776 45.9641 40.7366C45.9641 39.6973 46.8097 38.8517 47.8491 38.8517C48.8884 38.8517 49.734 39.6973 49.734 40.7366C49.734 41.776 48.8972 42.6216 47.8491 42.6216ZM51.1257 31.858H44.5812C44.2377 31.858 43.9647 31.585 43.9647 31.2414C43.9647 30.8979 44.2377 30.6249 44.5812 30.6249H51.1257C51.4692 30.6249 51.7423 30.8979 51.7423 31.2414C51.7423 31.585 51.4692 31.858 51.1257 31.858Z" fill="white"/>
</svg>
