<svg width="38" height="38" viewBox="0 0 38 38" fill="none" xmlns="http://www.w3.org/2000/svg">
<path d="M0.679688 18.5601C0.679688 28.8112 8.98849 37.1197 19.2391 37.1194C29.4903 37.1197 37.7991 28.8112 37.7991 18.5601C37.7997 8.30909 29.4903 0 19.2391 0C8.98849 0 0.679688 8.30938 0.679688 18.5601Z" fill="#FFCD54"/>
<path d="M27.351 6.10938H11.125C10.2258 6.10938 9.49414 6.84103 9.49414 7.74024V28.2968C9.49414 29.0028 9.94777 29.5996 10.5768 29.826V30.4689C10.5768 30.7679 10.8189 31.0103 11.1181 31.0103C11.4173 31.0103 11.6595 30.7679 11.6595 30.4689V29.9276H26.8166V30.469C26.8166 30.768 27.0587 31.0103 27.3579 31.0103C27.6571 31.0103 27.8993 30.768 27.8993 30.469V29.8261C28.5283 29.5996 28.9819 29.0028 28.9819 28.2968V7.74024C28.9818 6.84096 28.2502 6.10938 27.351 6.10938ZM27.8992 7.74024V13.6879H19.7793V7.192H27.351C27.6534 7.192 27.8992 7.43784 27.8992 7.74024ZM11.125 28.845C10.8226 28.845 10.5768 28.5992 10.5768 28.2968V22.3491H18.6966V28.845H11.125ZM10.5768 21.2664V14.7705H18.6966V21.2664H10.5768ZM19.7793 14.7705H27.8992V21.2664H19.7793V14.7705ZM11.125 7.192H18.6966V13.6879H10.5768V7.74024C10.5768 7.43784 10.8226 7.192 11.125 7.192ZM27.351 28.845H19.7793V22.3491H27.8992V28.2968C27.8992 28.5992 27.6534 28.845 27.351 28.845Z" fill="#F4F6F9"/>
<path d="M23.5702 12.0638C23.8694 12.0638 24.1115 11.8214 24.1115 11.5224V10.4398C24.1115 10.1408 23.8694 9.89844 23.5702 9.89844C23.271 9.89844 23.0288 10.1408 23.0288 10.4398V11.5224C23.0289 11.8214 23.271 12.0638 23.5702 12.0638Z" fill="#F4F6F9"/>
<path d="M14.9076 12.0638C15.2068 12.0638 15.4489 11.8214 15.4489 11.5224V10.4398C15.4489 10.1408 15.2068 9.89844 14.9076 9.89844C14.6084 9.89844 14.3662 10.1408 14.3662 10.4398V11.5224C14.3662 11.8214 14.6084 12.0638 14.9076 12.0638Z" fill="#F4F6F9"/>
<path d="M23.5702 17.4766C23.271 17.4766 23.0288 17.7189 23.0288 18.0179V19.1005C23.0288 19.3995 23.271 19.6419 23.5702 19.6419C23.8694 19.6419 24.1115 19.3995 24.1115 19.1005V18.0179C24.1115 17.7189 23.8694 17.4766 23.5702 17.4766Z" fill="#F4F6F9"/>
<path d="M14.9076 17.4766C14.6084 17.4766 14.3662 17.7189 14.3662 18.0179V19.1005C14.3662 19.3995 14.6084 19.6419 14.9076 19.6419C15.2068 19.6419 15.4489 19.3995 15.4489 19.1005V18.0179C15.4488 17.7189 15.2068 17.4766 14.9076 17.4766Z" fill="#F4F6F9"/>
<path d="M23.5702 25.0547C23.271 25.0547 23.0288 25.297 23.0288 25.596V26.6787C23.0288 26.9776 23.271 27.22 23.5702 27.22C23.8694 27.22 24.1115 26.9776 24.1115 26.6787V25.596C24.1115 25.297 23.8694 25.0547 23.5702 25.0547Z" fill="#F4F6F9"/>
<path d="M14.9076 25.0547C14.6084 25.0547 14.3662 25.297 14.3662 25.596V26.6787C14.3662 26.9776 14.6084 27.22 14.9076 27.22C15.2068 27.22 15.4489 26.9776 15.4489 26.6787V25.596C15.4488 25.297 15.2068 25.0547 14.9076 25.0547Z" fill="#F4F6F9"/>
</svg>
