<svg width="50" height="48" viewBox="0 0 50 48" fill="none" xmlns="http://www.w3.org/2000/svg">
<ellipse cx="24.5106" cy="24" rx="24.5106" ry="24" fill="#F4F4F4"/>
<path d="M17.125 31.7301C17.125 32.1021 17.4602 32.4027 17.875 32.4027H24.5781V24.5H17.125V31.7301ZM26.1719 32.4027H32.875C33.2898 32.4027 33.625 32.1021 33.625 31.7301V24.5H26.1719V32.4027ZM34 19.4558H30.5406C30.8594 19.006 31.0469 18.4721 31.0469 17.9004C31.0469 16.301 29.5961 15 27.8125 15C26.8422 15 25.968 15.3867 25.375 15.9962C24.782 15.3867 23.9078 15 22.9375 15C21.1539 15 19.7031 16.301 19.7031 17.9004C19.7031 18.4721 19.8883 19.006 20.2094 19.4558H16.75C16.3352 19.4558 16 19.7563 16 20.1283V23.0708H24.5781V19.4558H26.1719V23.0708H34.75V20.1283C34.75 19.7563 34.4148 19.4558 34 19.4558ZM24.5781 19.3717H22.9375C22.0328 19.3717 21.2969 18.7117 21.2969 17.9004C21.2969 17.0892 22.0328 16.4292 22.9375 16.4292C23.8422 16.4292 24.5781 17.0892 24.5781 17.9004V19.3717ZM27.8125 19.3717H26.1719V17.9004C26.1719 17.0892 26.9078 16.4292 27.8125 16.4292C28.7172 16.4292 29.4531 17.0892 29.4531 17.9004C29.4531 18.7117 28.7172 19.3717 27.8125 19.3717Z" fill="#324C5B"/>
</svg>
