<svg width="37" height="37" viewBox="0 0 37 37" fill="none" xmlns="http://www.w3.org/2000/svg">
<path d="M31.5813 5.41874C38.8058 12.6433 38.8058 24.3567 31.5813 31.5816C24.3567 38.8061 12.6433 38.8061 5.41842 31.5816C-1.80614 24.357 -1.80614 12.6437 5.41842 5.41874C12.6433 -1.80625 24.3567 -1.80625 31.5813 5.41874Z" fill="#F85C7F"/>
<g clipPath="url(#clip0_2367_168101)">
<path d="M13.403 22.5827C13.3562 22.6073 13.3031 22.6203 13.249 22.6203C13.1949 22.6203 13.1418 22.6073 13.095 22.5827L8.45545 20.1472L8.43408 20.1529V24.4036C8.43397 24.4281 8.441 24.4522 8.45445 24.4735C8.4679 24.4948 8.48729 24.5125 8.51067 24.5247L14.0328 27.4232C14.0561 27.4355 14.0825 27.442 14.1094 27.442C14.1363 27.442 14.1627 27.4355 14.1859 27.4232L28.2481 20.0426C28.2714 20.0304 28.2908 20.0127 28.3043 19.9914C28.3177 19.9701 28.3247 19.946 28.3246 19.9215V14.8242L28.0373 14.9013L13.403 22.5827Z" fill="white"/>
<path d="M22.876 10.5916L28.7583 13.6431C28.782 13.6553 28.8016 13.6731 28.8153 13.6945C28.829 13.7159 28.8362 13.7402 28.8361 13.765C28.8361 14.0252 28.8361 14.2784 28.8361 14.403C28.8361 14.4274 28.8291 14.4513 28.8156 14.4724C28.8022 14.4935 28.7829 14.5111 28.7596 14.5232L13.4027 22.5839C13.3559 22.6085 13.3028 22.6215 13.2487 22.6215C13.1946 22.6215 13.1415 22.6085 13.0947 22.5839L7.2324 19.5065C7.20897 19.4942 7.18952 19.4765 7.17598 19.4552C7.16244 19.4339 7.1553 19.4097 7.15527 19.3852C7.15527 19.259 7.15527 19.0065 7.15527 18.7638C7.15527 18.7392 7.1624 18.715 7.17594 18.6937C7.18948 18.6724 7.20895 18.6547 7.2324 18.6424L22.5688 10.5923C22.6155 10.5678 22.6684 10.5548 22.7223 10.5547C22.7762 10.5546 22.8292 10.5673 22.876 10.5916Z" fill="white"/>
<path d="M18.7297 18.0418L13.7937 20.6326C13.782 20.6387 13.7687 20.642 13.7551 20.642C13.7416 20.642 13.7283 20.6387 13.7166 20.6326L10.3511 18.8661C10.3393 18.86 10.3296 18.8511 10.3228 18.8405C10.3161 18.8298 10.3125 18.8177 10.3125 18.8054C10.3125 18.7931 10.3161 18.781 10.3228 18.7704C10.3296 18.7597 10.3393 18.7508 10.3511 18.7447L15.2871 16.1539C15.2988 16.1478 15.3121 16.1445 15.3256 16.1445C15.3392 16.1445 15.3525 16.1478 15.3642 16.1539L18.7296 17.9204C18.7413 17.9265 18.7511 17.9354 18.7579 17.946C18.7646 17.9567 18.7682 17.9688 18.7682 17.9811C18.7682 17.9934 18.7647 18.0055 18.7579 18.0161C18.7511 18.0268 18.7414 18.0356 18.7297 18.0418Z" fill="#D9D9D9"/>
<path d="M26.0689 14.1879L21.6342 16.5157C21.5756 16.5465 21.5091 16.5627 21.4414 16.5627C21.3737 16.5627 21.3072 16.5465 21.2486 16.5157L18.3837 15.0128C18.3368 14.9882 18.2979 14.9528 18.2708 14.9102C18.2437 14.8675 18.2295 14.8192 18.2295 14.77C18.2295 14.7207 18.2437 14.6724 18.2708 14.6297C18.2979 14.5871 18.3368 14.5517 18.3837 14.5271L22.8184 12.1993C22.877 12.1685 22.9435 12.1523 23.0112 12.1523C23.0789 12.1523 23.1454 12.1685 23.204 12.1993L26.0685 13.7028C26.1152 13.7274 26.1541 13.7627 26.1811 13.8053C26.2081 13.8478 26.2224 13.8961 26.2224 13.9452C26.2225 13.9944 26.2083 14.0426 26.1814 14.0852C26.1544 14.1278 26.1157 14.1633 26.0689 14.1879Z" fill="#F85C7F"/>
<path d="M8.27995 20.1555V24.3272C8.27995 24.3533 8.27848 24.3797 8.27995 24.4057C8.28851 24.5581 8.39926 24.6305 8.52968 24.6989L9.12493 25.0113L11.0362 26.0145L13.0268 27.0592L13.7175 27.4217C13.7877 27.4585 13.8572 27.4965 13.9281 27.5322C13.9865 27.5637 14.0535 27.5794 14.1213 27.5776C14.1892 27.5757 14.255 27.5564 14.3112 27.5218L15.0498 27.1342L16.3273 26.4636L18.006 25.5828L19.9238 24.5762L21.9412 23.5175L23.9206 22.4786L25.6969 21.546L27.1333 20.7921L28.0864 20.2919C28.1902 20.2476 28.2885 20.1934 28.3795 20.1302C28.4982 20.0298 28.479 19.8883 28.479 19.7563V14.8268C28.479 14.6464 28.1705 14.6461 28.1705 14.8268V19.7384C28.1705 19.7849 28.1907 19.8967 28.1608 19.9292C28.1274 19.9529 28.0905 19.9723 28.0511 19.9867L27.9032 20.0644L27.4916 20.2804L26.2779 20.9175L24.6618 21.7656L22.786 22.7502L20.7924 23.7965L18.8235 24.83L17.0214 25.7758L15.5285 26.5594L14.4873 27.1063L14.1802 27.2675C14.1322 27.2927 14.1212 27.3102 14.0752 27.2861L13.8638 27.1751L12.2442 26.3253L10.1772 25.2406C9.6862 24.9828 9.19517 24.7251 8.70414 24.4673C8.67444 24.4518 8.6004 24.4253 8.58845 24.4016C8.58255 24.3676 8.58255 24.333 8.58845 24.299V20.1555C8.58845 19.9751 8.27995 19.9747 8.27995 20.1555Z" fill="white"/>
<path d="M13.9551 22.3347V27.4444C13.9551 27.6248 14.2636 27.6251 14.2636 27.4444V22.3347C14.2636 22.1542 13.9551 22.1539 13.9551 22.3347Z" fill="white"/>
<path d="M22.3084 13.9691L20.4401 14.9498L20.1778 15.0876C20.0059 15.1779 20.1611 15.4203 20.3336 15.3298L22.1965 14.3519L22.4645 14.2112C22.6364 14.1211 22.4813 13.8786 22.3088 13.9691H22.3084Z" fill="white"/>
<path d="M22.8833 12.8238V13.5834C22.8833 13.6206 22.8996 13.6562 22.9285 13.6825C22.9574 13.7088 22.9966 13.7236 23.0376 13.7236C23.0785 13.7236 23.1177 13.7088 23.1466 13.6825C23.1755 13.6562 23.1918 13.6206 23.1918 13.5834V12.8238C23.1918 12.7866 23.1755 12.751 23.1466 12.7247C23.1177 12.6984 23.0785 12.6836 23.0376 12.6836C22.9966 12.6836 22.9574 12.6984 22.9285 12.7247C22.8996 12.751 22.8833 12.7866 22.8833 12.8238Z" fill="white"/>
<path d="M22.7984 10.7139L24.3514 11.5195L27.2194 13.0073L28.2926 13.5641L28.5924 13.7196C28.7018 13.7764 28.6821 13.7582 28.6821 13.9015V14.2314C28.6821 14.2734 28.7009 14.3766 28.6787 14.405C28.6653 14.422 28.6188 14.4364 28.5988 14.447L28.3662 14.5691L27.6302 14.9554L25.2908 16.1833L22.2422 17.7837L18.9923 19.4896L16.0549 21.0314L13.9438 22.1393C13.7489 22.2416 13.5556 22.3473 13.3586 22.4464C13.3213 22.467 13.2779 22.4768 13.2344 22.4744C13.1908 22.4721 13.149 22.4577 13.1147 22.4333L12.848 22.293L10.4196 21.0184L7.82951 19.6591L7.46857 19.4698C7.43 19.4497 7.341 19.4222 7.31432 19.3888C7.30313 19.3748 7.32643 19.4224 7.30977 19.3667C7.30552 19.3347 7.30552 19.3024 7.30977 19.2704C7.30977 19.209 7.30977 19.1477 7.30977 19.0863V18.911C7.30977 18.8789 7.28995 18.7894 7.30977 18.7654C7.30876 18.7666 7.31262 18.7642 7.31301 18.7637C7.32319 18.7497 7.36368 18.7372 7.37918 18.729L8.46402 18.1596L10.5632 17.0572L13.2837 15.6294L16.2402 14.0775L19.0191 12.6192L21.2359 11.4553L22.4985 10.7925C22.5876 10.7457 22.6926 10.6663 22.7984 10.7139C22.9758 10.7938 23.1322 10.5519 22.954 10.4717C22.7239 10.3681 22.5484 10.4428 22.3569 10.543L21.8747 10.7961L20.0737 11.7413L17.4842 13.1006L14.5226 14.6551L11.611 16.1835L9.1364 17.4823L7.54068 18.32L7.19362 18.5023C7.13631 18.5281 7.0871 18.5667 7.05055 18.6145C6.98785 18.7039 7.00119 18.8095 7.00119 18.9109V19.2561C7.00119 19.4057 7.0025 19.5398 7.15636 19.6295C7.31987 19.7247 7.49456 19.8069 7.66261 19.8952L8.82095 20.5032L11.7064 22.0176L12.7281 22.5543L12.9761 22.6845C13.0539 22.7298 13.1438 22.7548 13.236 22.7569C13.3283 22.759 13.4195 22.7381 13.4996 22.6963C14.0062 22.4403 14.5042 22.169 15.0062 21.9055L17.6457 20.5201L20.8488 18.8387L24.1054 17.1294L26.8674 15.6796L28.5933 14.7738C28.6627 14.7372 28.7327 14.7015 28.8015 14.6642C28.8569 14.6391 28.9038 14.6006 28.9371 14.5531C28.9703 14.5056 28.9887 14.4507 28.9903 14.3944C29.0033 14.181 29.0029 13.9671 28.9892 13.7538C28.9714 13.5319 28.6569 13.4302 28.4724 13.3346L25.9611 12.0316L23.3829 10.6942L22.954 10.4717C22.7814 10.3821 22.6256 10.6244 22.7984 10.7139Z" fill="white"/>
<path d="M25.9908 14.0692L24.8162 14.6856L22.6477 15.8241L21.826 16.2554L21.5932 16.3776C21.5522 16.4053 21.5054 16.425 21.4556 16.4355C21.3846 16.4292 21.3173 16.4041 21.2618 16.3634L20.939 16.1939L19.9049 15.6512L18.8874 15.1172L18.5613 14.946C18.504 14.9241 18.4525 14.8917 18.4099 14.8506C18.2943 14.6945 18.5465 14.6056 18.6594 14.5463L19.3986 14.1583L21.5547 13.0265C22.0084 12.7881 22.4559 12.5331 22.9191 12.3103C22.9479 12.295 22.9808 12.2871 23.0143 12.2875C23.0477 12.288 23.0803 12.2968 23.1086 12.3129C23.1849 12.3522 23.2604 12.3926 23.3363 12.4321L24.2654 12.9198C24.8345 13.2185 25.4069 13.5124 25.9729 13.8159C26.0809 13.8738 26.1082 14.0019 25.9908 14.0689C25.8231 14.1647 25.9778 14.4075 26.1465 14.3111C26.212 14.2752 26.2669 14.2252 26.3062 14.1656C26.3455 14.1059 26.3681 14.0384 26.372 13.9689C26.3759 13.8995 26.361 13.8302 26.3286 13.7672C26.2962 13.7043 26.2472 13.6495 26.1861 13.6077C26.1322 13.5746 26.0765 13.5442 26.019 13.5165L25.1473 13.059L23.2855 12.0818C23.2109 12.0375 23.1247 12.0122 23.0357 12.0083C22.9468 12.0045 22.8583 12.0223 22.7795 12.06C22.7451 12.0765 22.712 12.0951 22.6784 12.1131L22.0105 12.4636L19.8125 13.6175C19.3183 13.8769 18.8223 14.1338 18.3297 14.3958C18.2526 14.4314 18.188 14.4859 18.1431 14.5531C18.0983 14.6204 18.0749 14.6976 18.0757 14.7763C18.0765 14.8549 18.1014 14.9318 18.1477 14.9982C18.1939 15.0647 18.2596 15.1181 18.3375 15.1524C18.5723 15.277 18.8085 15.3996 19.0439 15.5232L21.0587 16.5807C21.1086 16.6069 21.1579 16.6349 21.209 16.6595C21.2854 16.6967 21.3713 16.7149 21.458 16.7123C21.5447 16.7096 21.6291 16.6862 21.7026 16.6444C21.8804 16.5524 22.0573 16.4583 22.2342 16.3653L24.366 15.246L26.0559 14.3589L26.1465 14.3114C26.3184 14.2211 26.1632 13.9787 25.9908 14.0692Z" fill="white"/>
<path d="M18.6515 17.9191L17.4014 18.5752L15.0548 19.8068L14.1335 20.2906L13.8454 20.4418C13.7997 20.4582 13.757 20.4806 13.7186 20.5084C13.7363 20.488 13.8204 20.5325 13.7773 20.5013C13.7512 20.4853 13.7239 20.471 13.6955 20.4585L13.3731 20.2893L12.3026 19.7274L11.143 19.1187C10.9166 18.9999 10.6933 18.8657 10.4592 18.7599C10.4519 18.7552 10.4442 18.7512 10.4361 18.7479C10.4341 18.7475 10.432 18.7448 10.43 18.7447C10.4981 18.7484 10.4538 18.8648 10.4283 18.8645C10.4356 18.8645 10.448 18.8533 10.4546 18.8505C10.5196 18.8204 10.5828 18.7872 10.644 18.751L11.4293 18.3389L13.7483 17.1219L15.3234 16.2952C15.3275 16.2931 15.362 16.279 15.3624 16.2748C15.3595 16.3052 15.2583 16.2453 15.306 16.2836C15.3769 16.3292 15.4523 16.3688 15.5312 16.4018L16.5 16.9103L18.5309 17.976C18.5609 17.9917 18.5904 18.0094 18.6213 18.0234C18.6287 18.0284 18.6366 18.0326 18.645 18.0359C18.6887 18.044 18.5744 17.9733 18.6207 17.9407C18.592 17.967 18.5758 18.0027 18.5758 18.0398C18.5758 18.077 18.592 18.1126 18.6207 18.139C18.6501 18.1644 18.6892 18.1786 18.7298 18.1786C18.7704 18.1786 18.8094 18.1644 18.8388 18.139C18.8668 18.1171 18.8886 18.0894 18.9026 18.0583C18.9165 18.0272 18.922 17.9935 18.9188 17.9601C18.9156 17.9266 18.9037 17.8943 18.8841 17.8659C18.8644 17.8374 18.8376 17.8136 18.8059 17.7964C18.7889 17.7861 18.7701 17.7776 18.7524 17.7684L18.464 17.617L17.3905 17.0536C16.7515 16.7182 16.1171 16.374 15.4728 16.047C15.4319 16.0231 15.3848 16.0097 15.3363 16.008C15.2877 16.0063 15.2396 16.0165 15.1969 16.0376C15.1398 16.0648 15.0848 16.0964 15.0289 16.1257L14.2419 16.5387L11.8582 17.7899C11.3383 18.0629 10.8087 18.3247 10.2965 18.6098C10.138 18.698 10.1073 18.8854 10.2746 18.9867C10.3286 19.0196 10.3886 19.0466 10.445 19.0761L11.3828 19.5684L13.5071 20.6832C13.5602 20.7155 13.6165 20.7433 13.6752 20.7662C13.7809 20.8 13.8591 20.7585 13.9444 20.7137L14.593 20.3733L16.918 19.1533L18.7127 18.2114L18.8072 18.1617C18.9791 18.071 18.8239 17.8285 18.6515 17.9191Z" fill="white"/>
<path d="M11.7226 18.8957L12.9666 18.2427L14.939 17.2075L15.3927 16.9691C15.5645 16.8789 15.4094 16.6365 15.2369 16.7269L13.9929 17.3799L12.0206 18.4154L11.567 18.6538C11.3951 18.744 11.5503 18.9865 11.7227 18.8959L11.7226 18.8957Z" fill="white"/>
<path d="M16.807 18.0311C16.8004 18.2467 16.4511 18.3554 16.2494 18.3926C15.9349 18.4505 15.5591 18.4213 15.2853 18.2586C15.241 18.2366 15.2024 18.2061 15.172 18.1694C15.1417 18.1326 15.1204 18.0904 15.1096 18.0455C15.1115 18.0067 15.1226 17.9688 15.1423 17.9344C15.162 17.9 15.1897 17.8698 15.2236 17.8462C15.4555 17.6588 15.8267 17.6263 16.1213 17.652C16.3484 17.6718 16.7992 17.7791 16.807 18.0311C16.8126 18.2112 17.1212 18.212 17.1155 18.0311C17.1043 17.6684 16.6906 17.4686 16.3463 17.4019C15.9327 17.3219 15.4304 17.3573 15.081 17.5928C14.9409 17.6776 14.8433 17.8093 14.8094 17.9592C14.7981 18.0371 14.8071 18.1164 14.8356 18.1906C14.8642 18.2648 14.9114 18.3319 14.9736 18.3865C15.2705 18.6662 15.7799 18.7306 16.1845 18.6842C16.5729 18.6397 17.1028 18.4528 17.1158 18.0311C17.1211 17.8506 16.8126 17.8507 16.807 18.0311Z" fill="white"/>
<path d="M28.0303 13.9691L27.6318 14.1782L26.553 14.7444L24.9518 15.5849L23.0057 16.6063L20.8747 17.7249L18.7152 18.8584L16.7091 19.9113L15.0074 20.8044L13.7888 21.4442C13.596 21.5453 13.4007 21.6431 13.2104 21.7478C13.2021 21.7524 13.1936 21.7566 13.1852 21.761C13.0133 21.8512 13.1684 22.0937 13.3409 22.0032L13.7392 21.7941L14.8181 21.2278L16.4193 20.3874L18.3654 19.366L20.4966 18.2474L22.6561 17.1139L24.6615 16.061L26.3632 15.1679L27.5818 14.5281C27.7746 14.427 27.9699 14.3292 28.1602 14.2245C28.1686 14.2199 28.177 14.2156 28.1854 14.2112C28.3574 14.1211 28.2022 13.8786 28.0297 13.9691H28.0303Z" fill="white"/>
<path d="M13.2844 21.7609L11.4937 20.8209L8.63768 19.3221L7.97957 18.9769C7.80735 18.8865 7.65179 19.1288 7.82386 19.2191L9.61463 20.1587L12.4706 21.6578L13.1286 22.0031C13.3009 22.0935 13.4565 21.8512 13.2844 21.7609Z" fill="white"/>
<path d="M14.6972 19.1366C14.6905 19.3522 14.3412 19.4609 14.1396 19.498C13.8251 19.5559 13.4494 19.5268 13.1755 19.364C13.1311 19.342 13.0925 19.3116 13.0622 19.2748C13.0318 19.2381 13.0105 19.1958 12.9996 19.151C13.0016 19.1122 13.0128 19.0743 13.0325 19.0398C13.0522 19.0054 13.0799 18.9753 13.1137 18.9516C13.3455 18.7643 13.7168 18.7318 14.0114 18.7574C14.2385 18.7773 14.6895 18.8845 14.6972 19.1366C14.7028 19.3166 15.0112 19.3174 15.0057 19.1366C14.9945 18.7739 14.5806 18.5741 14.2363 18.5074C13.8227 18.4273 13.3206 18.4628 12.971 18.6982C12.831 18.7831 12.7334 18.9148 12.6996 19.0647C12.6883 19.1426 12.6972 19.2219 12.7257 19.2961C12.7543 19.3703 12.8015 19.4373 12.8637 19.4919C13.1605 19.7717 13.6701 19.836 14.0745 19.7897C14.463 19.7451 14.9929 19.5583 15.006 19.1366C15.0116 18.956 14.7031 18.9562 14.6972 19.1366Z" fill="white"/>
<path d="M20.963 12.5883V10.8594C20.963 10.7127 20.7364 10.5938 20.4569 10.5938C20.1773 10.5938 19.9507 10.7129 19.9507 10.8594V12.5883C19.9507 12.7351 20.1773 12.8541 20.4569 12.8541C20.7364 12.8541 20.963 12.7351 20.963 12.5883Z" fill="white"/>
<path d="M20.8089 10.8581V12.5239C20.8107 12.5449 20.8107 12.566 20.8089 12.587C20.7989 12.6089 20.782 12.6277 20.7604 12.6411C20.703 12.6749 20.638 12.6967 20.5701 12.705C20.4284 12.7317 20.2809 12.7094 20.1564 12.6424C20.1144 12.6151 20.1067 12.6036 20.105 12.5705C20.0905 12.2893 20.105 12.0042 20.105 11.7226V10.8581C20.105 10.6777 19.7965 10.6773 19.7965 10.8581C19.7965 11.4294 19.7786 12.0031 19.7965 12.5741C19.8042 12.824 20.0675 12.9509 20.3118 12.9823C20.6027 13.0198 21.0876 12.9384 21.1164 12.6037C21.1234 12.5216 21.1174 12.4373 21.1174 12.3551V10.8581C21.1174 10.6777 20.8089 10.6773 20.8089 10.8581Z" fill="white"/>
<path d="M20.1049 10.8591C20.1057 10.8328 20.1016 10.8684 20.102 10.8693C20.1023 10.8702 20.1051 10.8516 20.1065 10.8515L20.1097 10.8431L20.102 10.8595C20.1054 10.8541 20.1083 10.8483 20.1118 10.8429C20.1154 10.8375 20.1195 10.8321 20.1237 10.8267C20.1198 10.8318 20.1016 10.8471 20.1209 10.8318C20.1266 10.8272 20.1321 10.8223 20.1374 10.8171C20.156 10.7986 20.1241 10.8232 20.1391 10.8147C20.154 10.8063 20.1675 10.7973 20.1826 10.7896C20.1903 10.7856 20.1985 10.7818 20.2066 10.7782C20.2102 10.7765 20.2366 10.766 20.2201 10.7722C20.2047 10.7779 20.2272 10.77 20.2285 10.7696C20.2379 10.7667 20.2472 10.7636 20.2566 10.761C20.2813 10.754 20.3063 10.7482 20.3316 10.7436C20.3421 10.7416 20.3528 10.7399 20.3633 10.7384C20.3562 10.7394 20.3387 10.7404 20.3714 10.7377C20.3941 10.7358 20.4167 10.7345 20.4395 10.734C20.4597 10.734 20.4799 10.734 20.5001 10.7349C20.5114 10.7354 20.5227 10.7361 20.5339 10.737C20.5412 10.7376 20.5714 10.7414 20.5504 10.7384C20.5915 10.7442 20.632 10.7531 20.6714 10.7652C20.6806 10.768 20.6898 10.7711 20.6989 10.7743C20.6927 10.7721 20.6751 10.7632 20.701 10.7754C20.7189 10.7838 20.7366 10.7919 20.7537 10.8018C20.7608 10.806 20.7675 10.8107 20.7746 10.8147C20.7926 10.8249 20.7599 10.7988 20.7719 10.8135C20.7749 10.8171 20.8097 10.8486 20.7951 10.8331C20.7805 10.8176 20.8034 10.8464 20.807 10.8511C20.821 10.8702 20.8052 10.8483 20.8039 10.8431C20.8051 10.8481 20.8136 10.8641 20.8116 10.8695C20.8122 10.8681 20.8069 10.8335 20.8087 10.8593C20.8103 10.8812 20.8119 10.8497 20.8116 10.8492C20.8184 10.8593 20.7864 10.8952 20.8116 10.8592C20.8052 10.8682 20.7984 10.8786 20.7929 10.888C20.784 10.9034 20.8125 10.8728 20.7965 10.883C20.789 10.8886 20.7823 10.8948 20.7762 10.9016C20.7588 10.9189 20.774 10.9044 20.7795 10.9006C20.7729 10.9052 20.7658 10.9095 20.7589 10.9137C20.7441 10.9225 20.7288 10.9305 20.7131 10.9378C20.7049 10.9416 20.6965 10.9452 20.6881 10.9486C20.6944 10.9461 20.7136 10.9403 20.685 10.9491C20.6636 10.9557 20.6421 10.962 20.6202 10.9672C20.5866 10.9763 20.5519 10.9816 20.5169 10.9829C20.4683 10.9857 20.4196 10.9851 20.3712 10.981C20.3682 10.981 20.3409 10.9772 20.3631 10.9803C20.3498 10.9785 20.3367 10.9761 20.3236 10.9737C20.3009 10.9693 20.2785 10.9641 20.2564 10.9578C20.247 10.955 20.2377 10.9518 20.2283 10.9491C20.2015 10.9414 20.2334 10.9522 20.2189 10.9459C20.2005 10.9383 20.1826 10.9297 20.1653 10.9202C20.158 10.9161 20.1511 10.9116 20.1439 10.9074C20.1131 10.8893 20.1608 10.9253 20.1371 10.9017C20.1322 10.8969 20.1259 10.8912 20.1206 10.887C20.1004 10.8709 20.1266 10.9006 20.1206 10.8881C20.1179 10.8839 20.115 10.8799 20.1118 10.8759C20.1013 10.86 20.1067 10.8514 20.1097 10.8759C20.1091 10.8704 20.1053 10.8639 20.104 10.8585C20.0979 10.831 20.1059 10.89 20.105 10.8597C20.105 10.8225 20.0887 10.7868 20.0598 10.7605C20.0309 10.7342 19.9916 10.7195 19.9507 10.7195C19.9098 10.7195 19.8706 10.7342 19.8416 10.7605C19.8127 10.7868 19.7965 10.8225 19.7965 10.8597C19.8033 11.073 20.0262 11.2009 20.2341 11.2429C20.4621 11.2891 20.7409 11.2714 20.9354 11.1431C21.0243 11.0908 21.0872 11.009 21.1106 10.9151C21.1197 10.8644 21.1155 10.8125 21.0982 10.7636C21.0809 10.7147 21.051 10.6702 21.011 10.6339C20.85 10.4774 20.5699 10.4351 20.3466 10.4596C20.1053 10.4861 19.8046 10.6017 19.7964 10.8593C19.7967 10.8964 19.8131 10.9319 19.8419 10.9581C19.8708 10.9843 19.9098 10.9992 19.9506 10.9995C19.9913 10.9988 20.0301 10.9838 20.0589 10.9576C20.0877 10.9314 20.1042 10.8961 20.1049 10.8591Z" fill="white"/>
<path d="M21.6262 11.6956V11.6606C21.6262 11.6346 21.6187 11.6091 21.6044 11.5866C21.5901 11.564 21.5696 11.5453 21.5449 11.5323L21.0821 11.2894C21.0574 11.2764 21.0293 11.2695 21.0008 11.2695C20.9722 11.2695 20.9441 11.2764 20.9194 11.2894L20.7304 11.3886C20.7057 11.4016 20.6851 11.4203 20.6708 11.4428C20.6565 11.4653 20.6489 11.4908 20.6489 11.5168V11.5519C20.6489 11.5779 20.6565 11.6034 20.6708 11.6259C20.6851 11.6485 20.7057 11.6671 20.7304 11.6801L21.1927 11.9229C21.2175 11.9359 21.2456 11.9428 21.2742 11.9428C21.3028 11.9428 21.3309 11.9359 21.3557 11.9229L21.5443 11.824C21.5692 11.811 21.5898 11.7923 21.6042 11.7698C21.6186 11.7473 21.6261 11.7217 21.6262 11.6956Z" fill="white"/>
<path d="M21.7805 11.6971C21.785 11.6327 21.769 11.5684 21.7343 11.512C21.6885 11.4547 21.6277 11.4087 21.5573 11.3783L21.2103 11.196C21.1425 11.1531 21.0615 11.131 20.9789 11.1329C20.9199 11.1391 20.8632 11.1573 20.813 11.1861C20.7377 11.2201 20.666 11.2605 20.5989 11.3067C20.5643 11.3377 20.5371 11.3749 20.519 11.4159C20.5009 11.4569 20.4924 11.5008 20.4938 11.545C20.4953 11.5891 20.5067 11.6326 20.5274 11.6725C20.5482 11.7125 20.5778 11.7481 20.6143 11.7772C20.662 11.8081 20.7118 11.836 20.7635 11.8609C20.8844 11.9244 21.0037 11.9981 21.1298 12.0525C21.1776 12.0739 21.2304 12.0844 21.2837 12.0832C21.337 12.0819 21.3891 12.069 21.4356 12.0455C21.4686 12.0293 21.5006 12.0114 21.533 11.9944C21.5629 11.9787 21.5937 11.9639 21.623 11.9472C21.6702 11.921 21.7095 11.8844 21.7371 11.8408C21.7648 11.7972 21.7799 11.748 21.7812 11.6977C21.7808 11.6606 21.7645 11.6251 21.7356 11.5989C21.7068 11.5726 21.6677 11.5578 21.6269 11.5575C21.5863 11.5582 21.5475 11.5732 21.5188 11.5994C21.49 11.6255 21.4735 11.6607 21.4727 11.6977L21.472 11.7109C21.4738 11.695 21.4726 11.6952 21.4682 11.7114L21.4718 11.7011C21.4623 11.7151 21.4618 11.7151 21.4703 11.7031C21.4886 11.6865 21.4675 11.7048 21.4602 11.7088C21.4343 11.7228 21.4077 11.7363 21.3814 11.7501C21.3525 11.7653 21.3228 11.7797 21.2944 11.7958C21.2895 11.7985 21.2843 11.8013 21.2789 11.8037C21.2886 11.7992 21.2944 11.8044 21.2719 11.8055C21.2873 11.8043 21.286 11.8039 21.2672 11.8045C21.2826 11.8066 21.2812 11.8056 21.2629 11.8016C21.2775 11.8123 21.258 11.797 21.2522 11.794L21.1828 11.7573L20.9983 11.6604L20.8364 11.5752C20.8274 11.5706 20.8185 11.5659 20.8096 11.5612C20.7795 11.5449 20.8045 11.5573 20.8068 11.5593L20.8128 11.568C20.8042 11.5537 20.8029 11.5535 20.8088 11.5676L20.8046 11.5553C20.8053 11.5714 20.8053 11.571 20.8046 11.554V11.5189C20.8055 11.5019 20.8055 11.5014 20.8046 11.5176C20.8123 11.4887 20.7913 11.5271 20.8128 11.5049C20.8063 11.5119 20.7831 11.5259 20.8095 11.5119L20.8206 11.5061C20.851 11.4897 20.8818 11.474 20.9124 11.4579C20.9371 11.4449 20.9643 11.4335 20.9875 11.4185C20.9923 11.4154 21.0035 11.405 20.9902 11.415L21.0051 11.4111C20.9896 11.4123 20.9909 11.4125 21.0097 11.412C20.9845 11.4011 21.0295 11.4238 21.0055 11.4125C21.1146 11.4637 21.2193 11.5247 21.3256 11.5808C21.373 11.6058 21.4209 11.6299 21.468 11.6557C21.4946 11.6697 21.4711 11.6557 21.4647 11.6487C21.4733 11.663 21.4745 11.6631 21.4686 11.6491C21.4729 11.6653 21.4741 11.6655 21.4723 11.6495C21.4738 11.6655 21.4741 11.6816 21.473 11.6976C21.473 11.7348 21.4892 11.7705 21.5182 11.7968C21.5471 11.8231 21.5863 11.8378 21.6272 11.8378C21.6681 11.8378 21.7074 11.8231 21.7363 11.7968C21.7652 11.7705 21.7815 11.7348 21.7815 11.6976L21.7805 11.6971Z" fill="white"/>
</g>
<defs>
<clipPath id="clip0_2367_168101">
<rect width="22" height="20" fill="white" transform="translate(7 9)"/>
</clipPath>
</defs>
</svg>
