<svg width="32" height="33" viewBox="0 0 32 33" fill="none" xmlns="http://www.w3.org/2000/svg">
<path d="M16 11.334C17.4145 11.334 18.7711 11.8959 19.7713 12.8961C20.7714 13.8963 21.3334 15.2528 21.3334 16.6673C21.3334 18.0818 20.7714 19.4384 19.7713 20.4386C18.7711 21.4387 17.4145 22.0007 16 22.0007C14.5855 22.0007 13.229 21.4387 12.2288 20.4386C11.2286 19.4384 10.6667 18.0818 10.6667 16.6673C10.6667 15.2528 11.2286 13.8963 12.2288 12.8961C13.229 11.8959 14.5855 11.334 16 11.334ZM16 14.0007C15.2928 14.0007 14.6145 14.2816 14.1144 14.7817C13.6143 15.2818 13.3334 15.9601 13.3334 16.6673C13.3334 17.3746 13.6143 18.0528 14.1144 18.5529C14.6145 19.053 15.2928 19.334 16 19.334C16.7073 19.334 17.3855 19.053 17.8856 18.5529C18.3857 18.0528 18.6667 17.3746 18.6667 16.6673C18.6667 15.9601 18.3857 15.2818 17.8856 14.7817C17.3855 14.2816 16.7073 14.0007 16 14.0007ZM13.3334 30.0007C13 30.0007 12.72 29.7607 12.6667 29.4407L12.1734 25.9073C11.3334 25.574 10.6134 25.1207 9.92002 24.5873L6.60002 25.934C6.30669 26.0407 5.94669 25.934 5.78669 25.6407L3.12002 21.0273C3.03841 20.8899 3.00964 20.7275 3.03909 20.5705C3.06854 20.4134 3.15419 20.2725 3.28002 20.174L6.09335 17.9607L6.00002 16.6673L6.09335 15.334L3.28002 13.1607C3.15419 13.0622 3.06854 12.9212 3.03909 12.7642C3.00964 12.6071 3.03841 12.4447 3.12002 12.3073L5.78669 7.69398C5.94669 7.40065 6.30669 7.28065 6.60002 7.40065L9.92002 8.73398C10.6134 8.21398 11.3334 7.76065 12.1734 7.42732L12.6667 3.89398C12.72 3.57398 13 3.33398 13.3334 3.33398H18.6667C19 3.33398 19.28 3.57398 19.3334 3.89398L19.8267 7.42732C20.6667 7.76065 21.3867 8.21398 22.08 8.73398L25.4 7.40065C25.6934 7.28065 26.0534 7.40065 26.2134 7.69398L28.88 12.3073C29.0534 12.6007 28.9734 12.9607 28.72 13.1607L25.9067 15.334L26 16.6673L25.9067 18.0007L28.72 20.174C28.9734 20.374 29.0534 20.734 28.88 21.0273L26.2134 25.6407C26.0534 25.934 25.6934 26.054 25.4 25.934L22.08 24.6007C21.3867 25.1207 20.6667 25.574 19.8267 25.9073L19.3334 29.4407C19.28 29.7607 19 30.0007 18.6667 30.0007H13.3334ZM15 6.00065L14.5067 9.48065C12.9067 9.81398 11.4934 10.6673 10.4667 11.854L7.25335 10.4673L6.25335 12.2007L9.06669 14.2673C8.53335 15.8229 8.53335 17.5118 9.06669 19.0673L6.24002 21.1473L7.24002 22.8807L10.48 21.494C11.5067 22.6673 12.9067 23.5207 14.4934 23.8407L14.9867 27.334H17.0134L17.5067 23.854C19.0934 23.5207 20.4934 22.6673 21.52 21.494L24.76 22.8807L25.76 21.1473L22.9334 19.0807C23.4667 17.5207 23.4667 15.8273 22.9334 14.2673L25.7467 12.2007L24.7467 10.4673L21.5333 11.854C20.4856 10.6411 19.0645 9.81088 17.4934 9.49398L17 6.00065H15Z" fill="#737791"/>
</svg>
