<svg width="38" height="38" viewBox="0 0 38 38" fill="none" xmlns="http://www.w3.org/2000/svg">
<rect x="0.358398" width="37.1194" height="37.1194" rx="18.5597" fill="#8676FE"/>
<path d="M10.9535 23.8579H15.4386C17.2965 23.8579 18.8025 25.3639 18.8025 27.2218V16.0089C18.8025 12.8375 18.8025 11.2517 17.8172 10.2665C16.8319 9.28125 15.2463 9.28125 12.0748 9.28125H10.9535C9.89635 9.28125 9.36777 9.28125 9.03935 9.60966C8.71094 9.93809 8.71094 10.4667 8.71094 11.5238V21.6154C8.71094 22.6725 8.71094 23.2011 9.03935 23.5295C9.36777 23.8579 9.89635 23.8579 10.9535 23.8579Z" fill="white"/>
<path d="M26.6501 23.8579H23.2862C21.4284 23.8579 19.9224 25.3639 19.9224 27.2218V16.0089C19.9224 12.8375 19.9224 11.2517 20.9076 10.2665C21.8929 9.28125 23.4786 9.28125 26.6501 9.28125C27.7072 9.28125 28.2358 9.28125 28.5642 9.60966C28.8926 9.93809 28.8926 10.4667 28.8926 11.5238V21.6154C28.8926 22.6725 28.8926 23.2011 28.5642 23.5295C28.2358 23.8579 27.7072 23.8579 26.6501 23.8579Z" fill="white"/>
<path d="M10.9517 9.44944C10.9517 9.35656 11.027 9.28125 11.1199 9.28125H14.1473C14.2402 9.28125 14.3155 9.35656 14.3155 9.44944V14.2109C14.3155 14.4606 14.0136 14.5857 13.837 14.4091L12.8318 13.404C12.7223 13.2945 12.5448 13.2945 12.4354 13.404L11.4302 14.4091C11.2536 14.5857 10.9517 14.4606 10.9517 14.2109V9.44944Z" fill="#D9D9D9"/>
</svg>
