<svg width="30" height="34" viewBox="0 0 30 34" fill="none" xmlns="http://www.w3.org/2000/svg">
<path d="M15.0883 1.19602L28.643 7.88748V25.8636L15.0883 32.554L1.53361 25.863V7.88695L15.0883 1.19602ZM15.0883 0L0.39209 7.25467V26.4953L15.0883 33.75L29.7845 26.4953V7.25467L15.0883 0Z" fill="#737791"/>
<path d="M15.7579 11.6562H14.4219V15.9517H15.7579V11.6562Z" fill="#737791"/>
<path d="M8.26428 19.6347H7.07178V14.7256H23.104V19.5491H21.9115V15.858H8.26428V19.6347Z" fill="#737791"/>
<path d="M11.7485 6.75V11.6591H18.4286V6.75H11.7485Z" fill="#737791"/>
<path d="M18.5024 19.3838V24.0819H25.886V19.3838H18.5024Z" fill="#737791"/>
<path d="M4.29492 19.3838V24.0819H11.6785V19.3838H4.29492Z" fill="#737791"/>
</svg>
