<svg width="65" height="67" viewBox="0 0 65 67" fill="none" xmlns="http://www.w3.org/2000/svg">
<rect x="0.907988" y="1.43924" width="63.2036" height="63.9256" rx="31.6018" fill="#EFEFF0"/>
<mask id="mask0_2891_81034" style="mask-type:luminance" maskUnits="userSpaceOnUse" x="24" y="24" width="18" height="19">
<path fillRule="evenodd" clipRule="evenodd" d="M24.0088 24.5391H41.742V42.2636H24.0088V24.5391Z" fill="white"/>
</mask>
<g mask="url(#mask0_2891_81034)">
<path fillRule="evenodd" clipRule="evenodd" d="M29.0286 25.8718C26.7888 25.8718 25.3415 27.4062 25.3415 29.7801V37.0228C25.3415 39.3977 26.7888 40.9311 29.0286 40.9311H36.7138C38.9589 40.9311 40.4098 39.3977 40.4098 37.0228V29.7801C40.4098 27.4062 38.9589 25.8718 36.7138 25.8718H29.0286ZM36.7137 42.2638H29.0286C26.0256 42.2638 24.0088 40.1572 24.0088 37.0228V29.7801C24.0088 26.6456 26.0256 24.5391 29.0286 24.5391H36.7137C39.7211 24.5391 41.7424 26.6456 41.7424 29.7801V37.0228C41.7424 40.1572 39.7211 42.2638 36.7137 42.2638Z" fill="#AFB1B6"/>
</g>
<path fillRule="evenodd" clipRule="evenodd" d="M26.9242 38.0268C26.7589 38.0268 26.5945 37.9664 26.4657 37.8438C26.1983 37.5915 26.1876 37.1686 26.4408 36.9029L27.7984 35.4698C28.5172 34.7067 29.7299 34.6693 30.4966 35.389L31.3478 36.2526C31.585 36.4925 31.9706 36.4969 32.2087 36.2623C32.2984 36.1566 34.2335 33.8067 34.2335 33.8067C34.6013 33.3606 35.1202 33.0852 35.6968 33.0284C36.2743 32.9777 36.8349 33.1456 37.2818 33.5126C37.32 33.5437 37.3546 33.5739 39.3057 35.5773C39.5625 35.8403 39.558 36.2623 39.2941 36.5191C39.0312 36.7777 38.6083 36.7697 38.3515 36.5067C38.3515 36.5067 36.531 34.6382 36.4013 34.5121C36.2636 34.3993 36.0424 34.3335 35.8247 34.3548C35.6035 34.377 35.4045 34.4828 35.2632 34.6542C33.1984 37.1588 33.1736 37.1828 33.1398 37.2157C32.3775 37.9637 31.147 37.9513 30.398 37.1872C30.398 37.1872 29.5718 36.3485 29.5575 36.3316C29.3523 36.1415 28.9863 36.154 28.7668 36.3858L27.4075 37.8189C27.276 37.9575 27.1001 38.0268 26.9242 38.0268Z" fill="#AFB1B6"/>
<path fillRule="evenodd" clipRule="evenodd" d="M29.8351 29.985C29.3438 29.985 28.944 30.3848 28.944 30.877C28.944 31.3692 29.3438 31.7699 29.836 31.7699C30.3282 31.7699 30.7289 31.3692 30.7289 30.877C30.7289 30.3857 30.3282 29.9859 29.8351 29.985ZM29.836 33.1026C28.6091 33.1026 27.6113 32.104 27.6113 30.877C27.6113 29.6501 28.6091 28.6523 29.836 28.6523C31.0639 28.6532 32.0616 29.6519 32.0616 30.877C32.0616 32.104 31.063 33.1026 29.836 33.1026Z" fill="#AFB1B6"/>
<rect x="0.907988" y="1.43924" width="63.2036" height="63.9256" rx="31.6018" stroke="#AFB1B6" strokeWidth="1.77691"/>
</svg>
