<svg width="29" height="27" viewBox="0 0 29 27" fill="none" xmlns="http://www.w3.org/2000/svg">
<path fillRule="evenodd" clipRule="evenodd" d="M26.4988 25.9725C26.4988 26.2109 26.3053 26.4067 26.0646 26.4067H2.81621C2.57785 26.4067 2.38197 26.2132 2.38197 25.9725V14.1321C2.38197 13.4847 1.68199 13.0568 1.06745 12.8533V12.8533C0.772453 12.7541 0.524653 12.5771 0.342933 12.3459C0.161213 12.1169 0.0455726 11.8361 0.0101726 11.5293C-0.0417475 11.0502 0.102213 10.5074 0.508133 10C0.529373 9.97406 0.552973 9.95046 0.578933 9.92922L13.739 1.00279C14.0276 0.807002 14.3487 0.482801 14.6602 0.63971C14.685 0.652229 14.709 0.667343 14.7319 0.685098L28.3491 9.88674C28.3679 9.9009 28.3845 9.91742 28.401 9.93394C28.9485 10.5239 29.0854 11.1777 28.9532 11.7323C28.8871 12.0037 28.7573 12.2515 28.578 12.4521C28.3986 12.655 28.1697 12.8108 27.9077 12.9052V12.9052C27.275 13.1353 26.5007 13.5872 26.5004 14.2605C26.4988 17.8897 26.4988 22.746 26.4988 25.9725ZM10.6986 11.7334C10.6986 10.3199 11.8445 9.17402 13.258 9.17402H15.7408C17.1543 9.17402 18.3002 10.3199 18.3002 11.7334V11.7334C18.3002 13.147 17.1543 14.2929 15.7408 14.2929H13.258C11.8445 14.2929 10.6986 13.147 10.6986 11.7334V11.7334ZM13.2828 10.5641C13.5023 10.5641 13.6817 10.7434 13.6817 10.9629C13.6817 11.1824 13.5023 11.3617 13.2828 11.3617C13.0633 11.3617 12.884 11.1824 12.884 10.9629C12.884 10.7411 13.061 10.5641 13.2828 10.5641ZM14.7188 11.8949C14.8321 12.0729 15.0915 12.0742 15.2066 11.8973L15.36 11.6615C15.5687 11.3408 16.0524 11.3894 16.193 11.7452L16.3391 12.1147C16.5146 12.5586 16.1875 13.0397 15.7102 13.0397H12.6879C12.6124 13.0397 12.5512 12.9785 12.5512 12.9031V12.9031C12.5512 12.8302 12.6083 12.7702 12.6811 12.7666L12.7506 12.7631C12.832 12.7591 12.9037 12.7083 12.9345 12.6329L13.0272 12.406C13.0989 12.2307 13.3454 12.2261 13.4236 12.3985V12.3985C13.4586 12.4757 13.5355 12.5252 13.6202 12.5252H13.7225C13.8771 12.5252 14.0159 12.4302 14.0718 12.286L14.2037 11.9458C14.2896 11.7242 14.5911 11.6944 14.7188 11.8949V11.8949ZM11.1565 11.7334C11.1565 10.6106 12.0667 9.7003 13.1896 9.7003H15.8139C16.9368 9.7003 17.8471 10.6106 17.8471 11.7334V11.7334C17.8471 12.8563 16.9368 13.7666 15.8139 13.7666H13.1896C12.0667 13.7666 11.1565 12.8563 11.1565 11.7334V11.7334ZM14.3713 18.2523C14.3763 18.2343 14.3977 18.2237 14.4109 18.2105V18.2105C14.9196 17.8125 15.6656 17.9785 16.0088 18.8093C16.0098 18.8118 16.008 18.8146 16.0053 18.8146V18.8146C16.0044 18.8146 16.0035 18.8149 16.0028 18.8155C15.442 19.2922 15.0133 19.8032 14.7844 20.3619C14.7033 20.5599 14.5204 20.7073 14.3064 20.7073V20.7073C13.9981 20.7073 13.7745 20.4137 13.8566 20.1165L14.3713 18.2523ZM17.7833 19.8129C17.8394 20.2935 17.5225 20.7295 17.113 20.8995C16.7739 21.0403 16.3694 21.1684 16.2871 21.5263V21.5263C16.1667 22.0761 16.2021 21.9086 16.2541 22.4419C16.3197 23.1001 16.2597 23.5638 15.8864 23.7935C15.8307 23.8278 15.7915 23.8857 15.7915 23.9511V23.9511C15.7915 24.043 15.717 24.1175 15.625 24.1175H6.70563C6.61693 24.1175 6.54502 24.0456 6.54502 23.9569V23.9569C6.54502 23.8891 6.50128 23.8303 6.44181 23.7976C6.15938 23.6424 6.04082 23.3083 6.08954 22.7936C6.12293 22.4877 6.14101 22.2414 6.14363 22.0361C6.15254 21.3364 5.29282 21.1517 4.82694 20.6295V20.6295C4.38797 20.1409 4.52249 19.4259 5.07001 19.0837C5.18329 19.0129 5.31546 18.9586 5.46886 18.9255C5.49181 18.9207 5.51457 18.9164 5.53713 18.9127C7.36292 18.6095 8.83906 20.8631 10.6892 20.9127V20.9127C10.7114 20.9157 10.7329 20.9194 10.7535 20.9239C10.9655 20.9696 11.2695 20.9663 11.4787 20.9089V20.9089C11.4967 20.9039 11.5201 20.9004 11.5388 20.8997C12.4845 20.8609 13.1647 20.9858 13.8587 20.9858H14.6752C14.8428 20.9858 14.9301 20.9127 14.9584 20.7781C15.1661 20.1457 15.9024 18.876 16.6741 18.8996C17.1485 18.9161 17.6653 19.2418 17.7833 19.8129ZM7.28948 19.5156C6.93799 18.9617 6.60653 18.075 7.25954 18.0121V18.0121C7.63593 17.9759 7.92932 18.3199 8.03491 18.683L8.43107 20.0452C8.50405 20.2961 8.31582 20.5469 8.05449 20.5469V20.5469C7.90483 20.5469 7.76812 20.4617 7.70472 20.3261C7.57248 20.0434 7.44783 19.7652 7.28948 19.5156ZM8.1753 18.1544C8.1701 18.1363 8.18057 18.1171 8.18758 18.0995V18.0995C8.44922 17.4961 9.16997 17.3259 9.75958 17.5841C9.76057 17.5846 9.76225 17.5832 9.76329 17.5828V17.5828C9.76405 17.5826 9.76409 17.5833 9.76413 17.5841L9.89385 20.0984C9.91054 20.4218 9.65281 20.6932 9.32898 20.6932V20.6932C9.0766 20.6932 8.85475 20.526 8.78524 20.2834L8.1753 18.1544ZM10.082 17.519C10.0799 17.519 10.0784 17.517 10.0789 17.515C10.1921 17.0588 10.8413 16.9201 11.4025 16.9893C11.9796 17.0605 12.2334 17.8515 12.1956 18.4318C12.1509 19.1177 12.0908 19.9822 12.0621 20.4283C12.0524 20.5784 11.9276 20.6955 11.7771 20.6955V20.6955C11.3523 20.6955 10.9771 20.6955 10.557 20.6955V20.6955C10.3671 20.6955 10.2109 20.5458 10.2031 20.356L10.0851 17.522C10.0851 17.5203 10.0837 17.519 10.082 17.519V17.519ZM12.4842 17.6714C12.4847 17.6614 12.4928 17.6525 12.5023 17.6494V17.6494C12.5033 17.649 12.5045 17.6485 12.5054 17.648C13.1474 17.3073 14.0346 17.5441 14.154 17.9809C14.1585 17.9975 14.1489 18.0142 14.1329 18.0201V18.0201C14.1222 18.0241 14.1141 18.0329 14.1112 18.0439L13.513 20.2602C13.444 20.5157 13.2123 20.6932 12.9476 20.6932V20.6932C12.6126 20.6932 12.3459 20.4127 12.3628 20.0781L12.4842 17.6714ZM21.5723 18.9798C21.7581 18.9798 21.9086 19.1304 21.9086 19.3161V22.4372C21.9086 22.9195 22.2996 23.3104 22.7818 23.3104V23.3104C22.9163 23.3104 23.0249 23.4685 23.0249 23.6031C23.0249 23.7376 22.9163 23.8957 22.7818 23.8957H20.3628C20.2283 23.8957 20.1197 23.7376 20.1197 23.6031C20.1197 23.4685 20.2283 23.3104 20.3628 23.3104V23.3104C20.8451 23.3104 21.236 22.9195 21.236 22.4372V19.3161C21.236 19.1304 21.3866 18.9798 21.5723 18.9798V18.9798ZM20.0424 16.7937C20.2044 16.1503 20.783 15.6994 21.4464 15.6994H21.6929C22.3555 15.6994 22.9336 16.1492 23.0964 16.7916V16.7916C23.3283 17.7065 22.6368 18.5951 21.6929 18.5951H21.4464C20.5035 18.5951 19.8121 17.7081 20.0424 16.7937V16.7937ZM18.4085 25.3141C22.2745 25.3141 25.4085 22.1801 25.4085 18.3141V12.3057V12.3057C25.4085 12.2554 25.3884 12.2051 25.3465 12.1771L18.3877 7.54142C16.0556 5.98791 13.0218 5.97479 10.6765 7.50808L3.55435 12.1641C3.49834 12.2008 3.47465 12.2695 3.47465 12.3364V12.3364V18.3141C3.47465 22.1801 6.60866 25.3141 10.4747 25.3141C13.1193 25.3141 15.7639 25.3141 18.4085 25.3141Z" fill="white"/>
</svg>
