<svg width="26" height="28" viewBox="0 0 26 28" fill="none" xmlns="http://www.w3.org/2000/svg">
<path d="M13 8.33594C14.4145 8.33594 15.7711 8.89784 16.7713 9.89804C17.7714 10.8982 18.3334 12.2548 18.3334 13.6693C18.3334 15.0838 17.7714 16.4403 16.7713 17.4405C15.7711 18.4407 14.4145 19.0026 13 19.0026C11.5855 19.0026 10.229 18.4407 9.22878 17.4405C8.22859 16.4403 7.66669 15.0838 7.66669 13.6693C7.66669 12.2548 8.22859 10.8982 9.22878 9.89804C10.229 8.89784 11.5855 8.33594 13 8.33594ZM13 11.0026C12.2928 11.0026 11.6145 11.2836 11.1144 11.7837C10.6143 12.2838 10.3334 12.962 10.3334 13.6693C10.3334 14.3765 10.6143 15.0548 11.1144 15.5549C11.6145 16.055 12.2928 16.3359 13 16.3359C13.7073 16.3359 14.3855 16.055 14.8856 15.5549C15.3857 15.0548 15.6667 14.3765 15.6667 13.6693C15.6667 12.962 15.3857 12.2838 14.8856 11.7837C14.3855 11.2836 13.7073 11.0026 13 11.0026ZM10.3334 27.0026C10 27.0026 9.72002 26.7626 9.66669 26.4426L9.17335 22.9093C8.33335 22.5759 7.61335 22.1226 6.92002 21.5893L3.60002 22.9359C3.30669 23.0426 2.94669 22.9359 2.78669 22.6426L0.120019 18.0293C0.0384136 17.8919 0.00964452 17.7295 0.0390923 17.5724C0.06854 17.4154 0.154188 17.2744 0.28002 17.1759L3.09335 14.9626L3.00002 13.6693L3.09335 12.3359L0.28002 10.1626C0.154188 10.0641 0.06854 9.92317 0.0390923 9.76611C0.00964452 9.60906 0.0384136 9.44665 0.120019 9.30927L2.78669 4.69594C2.94669 4.4026 3.30669 4.2826 3.60002 4.4026L6.92002 5.73594C7.61335 5.21594 8.33335 4.7626 9.17335 4.42927L9.66669 0.895938C9.72002 0.575938 10 0.335938 10.3334 0.335938H15.6667C16 0.335938 16.28 0.575938 16.3334 0.895938L16.8267 4.42927C17.6667 4.7626 18.3867 5.21594 19.08 5.73594L22.4 4.4026C22.6934 4.2826 23.0534 4.4026 23.2134 4.69594L25.88 9.30927C26.0534 9.6026 25.9734 9.9626 25.72 10.1626L22.9067 12.3359L23 13.6693L22.9067 15.0026L25.72 17.1759C25.9734 17.3759 26.0534 17.7359 25.88 18.0293L23.2134 22.6426C23.0534 22.9359 22.6934 23.0559 22.4 22.9359L19.08 21.6026C18.3867 22.1226 17.6667 22.5759 16.8267 22.9093L16.3334 26.4426C16.28 26.7626 16 27.0026 15.6667 27.0026H10.3334ZM12 3.0026L11.5067 6.4826C9.90668 6.81594 8.49335 7.66927 7.46669 8.85594L4.25335 7.46927L3.25335 9.2026L6.06669 11.2693C5.53335 12.8248 5.53335 14.5137 6.06669 16.0693L3.24002 18.1493L4.24002 19.8826L7.48002 18.4959C8.50669 19.6693 9.90668 20.5226 11.4934 20.8426L11.9867 24.3359H14.0134L14.5067 20.8559C16.0934 20.5226 17.4934 19.6693 18.52 18.4959L21.76 19.8826L22.76 18.1493L19.9334 16.0826C20.4667 14.5226 20.4667 12.8293 19.9334 11.2693L22.7467 9.2026L21.7467 7.46927L18.5333 8.85594C17.4856 7.64304 16.0645 6.81284 14.4934 6.49594L14 3.0026H12Z" fill="#737791"/>
</svg>
