<svg width="22" height="22" viewBox="0 0 22 22" fill="none" xmlns="http://www.w3.org/2000/svg">
<path fillRule="evenodd" clipRule="evenodd" d="M16.7746 16.8718L21.337 11.5484C21.5549 11.2999 21.6663 10.9861 21.6665 10.6707C21.6666 10.4549 21.6146 10.2383 21.5089 10.0413C21.462 9.9535 21.4046 9.87009 21.337 9.79297L16.7746 4.4696C16.2954 3.91047 15.4537 3.84567 14.8946 4.32487C14.3354 4.80407 14.2706 5.6458 14.7498 6.20493L17.4344 9.33726L7.10821 9.33726C6.37183 9.33726 5.77487 9.93421 5.77487 10.6706C5.77487 11.407 6.37183 12.0039 7.10821 12.0039L17.4345 12.0039L14.7498 15.1364C14.2706 15.6956 14.3354 16.5373 14.8946 17.0165C15.4537 17.4957 16.2954 17.4309 16.7746 16.8718ZM8.33317 2.67057C9.06955 2.67057 9.6665 3.26753 9.6665 4.00391L9.6665 6.00391C9.6665 6.74029 10.2635 7.33724 10.9998 7.33724C11.7362 7.33724 12.3332 6.74029 12.3332 6.00391L12.3332 4.00391C12.3332 1.79477 10.5423 0.00390576 8.33317 0.00390567L4.33317 0.00390549C2.12403 0.0039054 0.33317 1.79477 0.33317 4.00391L0.333169 17.3372C0.333169 19.5464 2.12403 21.3372 4.33317 21.3372L8.33317 21.3372C10.5423 21.3372 12.3332 19.5464 12.3332 17.3372L12.3332 15.3372C12.3332 14.6009 11.7362 14.0039 10.9998 14.0039C10.2635 14.0039 9.6665 14.6009 9.6665 15.3372L9.6665 17.3372C9.6665 18.0736 9.06955 18.6706 8.33317 18.6706L4.33317 18.6706C3.59679 18.6706 2.99984 18.0736 2.99984 17.3372L2.99984 4.00391C2.99984 3.26753 3.59679 2.67057 4.33317 2.67057L8.33317 2.67057Z" fill="#737791"/>
</svg>
