<svg width="22" height="23" viewBox="0 0 22 23" fill="none" xmlns="http://www.w3.org/2000/svg">
<path fillRule="evenodd" clipRule="evenodd" d="M16.7746 17.7546L21.337 12.4312C21.5549 12.1827 21.6663 11.8689 21.6665 11.5535C21.6666 11.3377 21.6146 11.1211 21.5089 10.9241C21.462 10.8363 21.4046 10.7529 21.337 10.6758L16.7746 5.35241C16.2954 4.79328 15.4537 4.72849 14.8946 5.20769C14.3354 5.68688 14.2706 6.52861 14.7498 7.08774L17.4344 10.2201L7.10821 10.2201C6.37183 10.2201 5.77487 10.817 5.77487 11.5534C5.77487 12.2898 6.37182 12.8867 7.10821 12.8867L17.4345 12.8867L14.7498 16.0192C14.2706 16.5784 14.3354 17.4201 14.8946 17.8993C15.4537 18.3785 16.2954 18.3137 16.7746 17.7546ZM8.33317 3.55338C9.06955 3.55338 9.6665 4.15034 9.6665 4.88672L9.6665 6.88672C9.6665 7.6231 10.2635 8.22005 10.9998 8.22005C11.7362 8.22005 12.3332 7.6231 12.3332 6.88672L12.3332 4.88672C12.3332 2.67758 10.5423 0.886718 8.33317 0.886718L4.33317 0.886718C2.12403 0.886718 0.33317 2.67758 0.33317 4.88672L0.333169 18.2201C0.333169 20.4292 2.12403 22.2201 4.33317 22.2201L8.33317 22.2201C10.5423 22.2201 12.3332 20.4292 12.3332 18.2201L12.3332 16.2201C12.3332 15.4837 11.7362 14.8867 10.9998 14.8867C10.2635 14.8867 9.6665 15.4837 9.6665 16.2201L9.6665 18.2201C9.6665 18.9564 9.06955 19.5534 8.33317 19.5534L4.33317 19.5534C3.59679 19.5534 2.99984 18.9564 2.99984 18.2201L2.99984 4.88672C2.99984 4.15034 3.59679 3.55338 4.33317 3.55338L8.33317 3.55338Z" fill="#737791"/>
</svg>
