<svg width="30" height="22" viewBox="0 0 30 22" fill="none" xmlns="http://www.w3.org/2000/svg">
<circle cx="4.53901" cy="4.53901" r="4.53901" transform="matrix(-1 0 0 1 19.8228 1.05957)" stroke="#737791" strokeWidth="2"/>
<path d="M7.34106 16.8721C7.34106 15.8958 7.9548 15.0249 8.87422 14.6966V14.6966C13.0194 13.2161 17.5492 13.2161 21.6944 14.6966V14.6966C22.6139 15.0249 23.2276 15.8958 23.2276 16.8721V18.3649C23.2276 19.7123 22.0342 20.7474 20.7003 20.5568L20.2555 20.4933C16.9581 20.0222 13.6105 20.0222 10.3131 20.4933L9.86839 20.5568C8.53449 20.7474 7.34106 19.7123 7.34106 18.3649V16.8721Z" stroke="#737791" strokeWidth="2"/>
<path d="M22.0899 10.2626C24.0595 10.2626 25.6562 8.66589 25.6562 6.69625C25.6562 4.7266 24.0595 3.12988 22.0899 3.12988" stroke="#737791" strokeWidth="2" strokeLinecap="round"/>
<path d="M25.9961 18.399L26.3455 18.4489C27.3936 18.5986 28.3313 17.7854 28.3313 16.7267V15.5538C28.3313 14.7867 27.849 14.1024 27.1266 13.8444C26.406 13.5871 25.6706 13.3866 24.927 13.2432" stroke="#737791" strokeWidth="2" strokeLinecap="round"/>
<path d="M7.91133 10.2626C5.94169 10.2626 4.34497 8.66589 4.34497 6.69625C4.34497 4.7266 5.94169 3.12988 7.91133 3.12988" stroke="#737791" strokeWidth="2" strokeLinecap="round"/>
<path d="M4.00516 18.399L3.65572 18.4489C2.60766 18.5986 1.66996 17.7854 1.66996 16.7267V15.5538C1.66996 14.7867 2.15218 14.1024 2.87458 13.8444C3.59518 13.5871 4.33058 13.3866 5.07422 13.2432" stroke="#737791" strokeWidth="2" strokeLinecap="round"/>
</svg>
