<svg width="512" height="512" viewBox="0 0 512 512" fill="none" xmlns="http://www.w3.org/2000/svg">
<rect width="512" height="512" rx="256" fill="#FEC000"/>
<path d="M331.899 224.866L285.24 282.397L206.12 182.325C204.83 180.666 203.183 179.325 201.302 178.402C199.421 177.479 197.357 177 195.265 177C193.173 177 191.108 177.479 189.227 178.402C187.347 179.325 185.699 180.666 184.41 182.325L102.67 290.377C99.5456 294.491 97.6263 299.403 97.1291 304.558C96.6319 309.712 97.5768 314.904 99.8569 319.547C102.137 324.189 105.661 328.096 110.032 330.827C114.402 333.558 119.444 335.004 124.587 335H387.587C392.859 334.97 398.012 333.419 402.435 330.53C406.858 327.64 410.366 323.535 412.542 318.699C414.718 313.864 415.472 308.502 414.713 303.248C413.955 297.995 411.716 293.07 408.263 289.059L353.127 224.588C351.813 223.033 350.175 221.789 348.329 220.945C346.483 220.1 344.475 219.676 342.448 219.703C340.421 219.729 338.424 220.206 336.601 221.098C334.778 221.991 333.172 223.277 331.899 224.866Z" fill="white"/>
<path d="M322.5 177C341.002 177 356 162.002 356 143.5C356 124.998 341.002 110 322.5 110C303.998 110 289 124.998 289 143.5C289 162.002 303.998 177 322.5 177Z" fill="white"/>
</svg>
