<svg width="512" height="512" viewBox="0 0 512 512" fill="none" xmlns="http://www.w3.org/2000/svg">
<rect width="512" height="512" rx="256" fill="#4285F4" fillOpacity="0.27"/>
<path d="M320.443 229.595L280.826 278.387L213.649 193.516C212.554 192.11 211.155 190.972 209.558 190.189C207.961 189.407 206.209 189 204.432 189C202.656 189 200.903 189.407 199.306 190.189C197.709 190.972 196.311 192.11 195.216 193.516L125.814 285.155C123.161 288.644 121.532 292.81 121.11 297.182C120.687 301.554 121.49 305.957 123.426 309.894C125.362 313.831 128.354 317.145 132.065 319.461C135.775 321.777 140.056 323.003 144.423 323H367.725C372.201 322.975 376.576 321.659 380.332 319.209C384.087 316.758 387.065 313.276 388.913 309.175C390.761 305.075 391.4 300.527 390.757 296.071C390.113 291.616 388.212 287.439 385.28 284.037L338.466 229.36C337.351 228.041 335.96 226.986 334.393 226.27C332.825 225.554 331.12 225.194 329.399 225.216C327.678 225.239 325.983 225.643 324.435 226.4C322.887 227.157 321.523 228.248 320.443 229.595Z" fill="#0095FF"/>
<path d="M308.5 167C320.926 167 331 156.926 331 144.5C331 132.074 320.926 122 308.5 122C296.074 122 286 132.074 286 144.5C286 156.926 296.074 167 308.5 167Z" fill="white"/>
</svg>
