<svg width="78" height="76" viewBox="0 0 78 76" fill="none" xmlns="http://www.w3.org/2000/svg">
<path d="M52.3214 14.161L63.9301 2.94922M63.9301 2.94922L75.5388 14.161M63.9301 2.94922V25.3728M38.7779 6.68649H20.591C14.0895 6.68649 10.8388 6.68649 8.35555 7.9085C6.17122 8.98341 4.39532 10.6986 3.28236 12.8082C2.01709 15.2066 2.01709 18.3462 2.01709 24.6254V56.0184C2.01709 62.2978 2.01709 65.4371 3.28236 67.8357C4.39532 69.9454 6.17122 71.6604 8.35555 72.7353C10.8388 73.9573 14.0895 73.9573 20.591 73.9573H56.191C59.7897 73.9573 61.589 73.9573 63.0652 73.5754C67.071 72.5387 70.2003 69.5163 71.2737 65.6475C71.6692 64.2218 71.6692 62.4839 71.6692 59.0083M31.0388 27.2415C31.0388 31.3695 27.5739 34.716 23.2997 34.716C19.0255 34.716 15.5606 31.3695 15.5606 27.2415C15.5606 23.1134 19.0255 19.7669 23.2997 19.7669C27.5739 19.7669 31.0388 23.1134 31.0388 27.2415ZM48.4131 40.0158L15.6811 68.7551C13.84 70.3718 12.9195 71.1798 12.838 71.8802C12.7675 72.4871 13.0084 73.0888 13.4833 73.492C14.0312 73.9573 15.2753 73.9573 17.7635 73.9573H54.0859C59.6546 73.9573 62.4391 73.9573 64.6262 73.0537C67.3717 71.9194 69.5591 69.8067 70.7335 67.1551C71.6692 65.0428 71.6692 62.3535 71.6692 56.9752C71.6692 55.1652 71.6692 54.2604 71.4645 53.4181C71.2068 52.3589 70.7134 51.367 70.0181 50.5112C69.4647 49.8303 68.733 49.2648 67.2699 48.1347L56.4456 39.7714C54.9813 38.6398 54.2492 38.0739 53.4428 37.8744C52.732 37.6984 51.9844 37.7211 51.2863 37.9402C50.4946 38.1883 49.8008 38.7975 48.4131 40.0158Z" stroke="#D9D9D9" strokeWidth="4" strokeLinecap="round" strokeLinejoin="round"/>
</svg>
