<svg width="100" height="100" viewBox="0 0 100 100" fill="none" xmlns="http://www.w3.org/2000/svg">
<rect x="1" y="1" width="98" height="98" rx="49" fill="#FFECA6" fillOpacity="0.24"/>
<mask id="mask0_1277_150964" style="mask-type:luminance" maskUnits="userSpaceOnUse" x="30" y="30" width="40" height="40">
<path fillRule="evenodd" clipRule="evenodd" d="M30 30.0005H69.9192V69.9001H30V30.0005Z" fill="white"/>
</mask>
<g mask="url(#mask0_1277_150964)">
<path fillRule="evenodd" clipRule="evenodd" d="M41.3 33C36.258 33 33 36.454 33 41.798V58.102C33 63.448 36.258 66.9 41.3 66.9H58.6C63.654 66.9 66.92 63.448 66.92 58.102V41.798C66.92 36.454 63.654 33 58.6 33H41.3ZM58.6 69.9H41.3C34.54 69.9 30 65.158 30 58.102V41.798C30 34.742 34.54 30 41.3 30H58.6C65.37 30 69.92 34.742 69.92 41.798V58.102C69.92 65.158 65.37 69.9 58.6 69.9V69.9Z" fill="#F8C400" />
</g>
<path fillRule="evenodd" clipRule="evenodd" d="M36.5625 60.3607C36.1905 60.3607 35.8205 60.2247 35.5305 59.9487C34.9285 59.3807 34.9045 58.4287 35.4745 57.8307L38.5305 54.6047C40.1485 52.8867 42.8785 52.8027 44.6045 54.4227L46.5205 56.3667C47.0545 56.9067 47.9225 56.9167 48.4585 56.3887C48.6605 56.1507 53.0165 50.8607 53.0165 50.8607C53.8445 49.8567 55.0125 49.2367 56.3105 49.1087C57.6105 48.9947 58.8725 49.3727 59.8785 50.1987C59.9645 50.2687 60.0425 50.3367 64.4345 54.8467C65.0125 55.4387 65.0025 56.3887 64.4085 56.9667C63.8165 57.5487 62.8645 57.5307 62.2865 56.9387C62.2865 56.9387 58.1885 52.7327 57.8965 52.4487C57.5865 52.1947 57.0885 52.0467 56.5985 52.0947C56.1005 52.1447 55.6525 52.3827 55.3345 52.7687C50.6865 58.4067 50.6305 58.4607 50.5545 58.5347C48.8385 60.2187 46.0685 60.1907 44.3825 58.4707C44.3825 58.4707 42.5225 56.5827 42.4905 56.5447C42.0285 56.1167 41.2045 56.1447 40.7105 56.6667L37.6505 59.8927C37.3545 60.2047 36.9585 60.3607 36.5625 60.3607V60.3607Z" fill="#F8C400"/>
<path fillRule="evenodd" clipRule="evenodd" d="M43.1154 42.2578C42.0094 42.2578 41.1094 43.1578 41.1094 44.2658C41.1094 45.3738 42.0094 46.2758 43.1174 46.2758C44.2254 46.2758 45.1274 45.3738 45.1274 44.2658C45.1274 43.1598 44.2254 42.2598 43.1154 42.2578M43.1174 49.2758C40.3554 49.2758 38.1094 47.0278 38.1094 44.2658C38.1094 41.5038 40.3554 39.2578 43.1174 39.2578C45.8814 39.2598 48.1274 41.5078 48.1274 44.2658C48.1274 47.0278 45.8794 49.2758 43.1174 49.2758" fill="#F8C400"/>
<rect x="1" y="1" width="98" height="98" rx="49" stroke="#F8C400" strokeWidth="5"/>
</svg>
