<svg width="40" height="39" viewBox="0 0 40 39" fill="none" xmlns="http://www.w3.org/2000/svg">
<g clipPath="url(#clip0_2269_129716)">
<path d="M19.8519 0C9.16298 0 0.5 8.66298 0.5 19.3519C0.5 30.0407 9.16298 38.7037 19.8519 38.7037C30.5407 38.7037 39.2037 30.0407 39.2037 19.3519C39.2037 8.66298 30.5407 0 19.8519 0ZM31.9316 31.4241C30.3593 32.9964 28.5375 34.2286 26.5041 35.0828C24.4026 35.9748 22.165 36.4208 19.8519 36.4208C17.5463 36.4208 15.3087 35.9672 13.1997 35.0828C11.1662 34.221 9.33684 32.9889 7.77206 31.4241C6.19973 29.8517 4.96756 28.03 4.11335 25.9965C3.22135 23.895 2.7678 21.6574 2.7678 19.3519C2.7678 17.0463 3.22135 14.8087 4.10579 12.6997C4.96756 10.6662 6.19973 8.83684 7.7645 7.27206C9.3444 5.69973 11.1662 4.46756 13.1997 3.60579C15.3087 2.72135 17.5463 2.2678 19.8519 2.2678C22.1574 2.2678 24.395 2.72135 26.5041 3.60579C28.5375 4.46756 30.3669 5.69973 31.9316 7.26451C33.504 8.83684 34.7362 10.6586 35.5904 12.6921C36.4824 14.7936 36.9284 17.0311 36.9284 19.3443C36.9284 21.6499 36.4748 23.8874 35.5904 25.9965C34.7286 28.03 33.4964 29.8593 31.9316 31.4241Z" fill="#9197B3"/>
<path d="M22.4064 12.7522C23.185 12.7522 24.0165 12.9941 24.0165 12.9941L24.5154 10.0308C24.5154 10.0308 23.4571 9.66797 20.9323 9.66797C19.3827 9.66797 18.4831 10.2576 17.8254 11.1269C17.2056 11.9509 17.1829 13.2738 17.1829 14.128V16.0707H15.1797V18.9659H17.1829V29.0198H20.9323V18.9659H23.9031L24.1224 16.0707H20.9323V13.8105C20.9323 13.0319 21.6278 12.7522 22.4064 12.7522Z" fill="#9197B3"/>
</g>
<defs>
<clipPath id="clip0_2269_129716">
<rect width="38.7037" height="38.7037" fill="white" transform="translate(0.5)"/>
</clipPath>
</defs>
</svg>
