<svg width="39" height="39" viewBox="0 0 39 39" fill="none" xmlns="http://www.w3.org/2000/svg">
<g clipPath="url(#clip0_2269_129726)">
<path d="M19.3816 0C8.69276 0 0.0297852 8.66298 0.0297852 19.3519C0.0297852 30.0407 8.69276 38.7037 19.3816 38.7037C30.0705 38.7037 38.7335 30.0407 38.7335 19.3519C38.7335 8.66298 30.0705 0 19.3816 0ZM31.4614 31.4241C29.8891 32.9964 28.0673 34.2286 26.0338 35.0828C23.9323 35.9748 21.6948 36.4208 19.3816 36.4208C17.076 36.4208 14.8385 35.9672 12.7294 35.0828C10.696 34.221 8.86663 32.9889 7.30185 31.4241C5.72951 29.8517 4.49734 28.03 3.64314 25.9965C2.75114 23.895 2.29758 21.6574 2.29758 19.3519C2.29758 17.0463 2.75114 14.8087 3.63558 12.6997C4.49734 10.6662 5.72951 8.83684 7.29429 7.27206C8.87419 5.69973 10.696 4.46756 12.7294 3.60579C14.8385 2.72135 17.076 2.2678 19.3816 2.2678C21.6872 2.2678 23.9248 2.72135 26.0338 3.60579C28.0673 4.46756 29.8967 5.69973 31.4614 7.26451C33.0338 8.83684 34.2659 10.6586 35.1201 12.6921C36.0121 14.7936 36.4581 17.0311 36.4581 19.3443C36.4581 21.6499 36.0046 23.8874 35.1201 25.9965C34.2584 28.03 33.0262 29.8593 31.4614 31.4241Z" fill="#9197B3"/>
<path d="M25.3248 9.67578H13.4567C11.393 9.67578 9.71484 11.3539 9.71484 13.4176V17.3712V25.2933C9.71484 27.357 11.393 29.0352 13.4567 29.0352H25.3248C27.3885 29.0352 29.0667 27.357 29.0667 25.2933V17.3636V13.4101C29.0591 11.3539 27.381 9.67578 25.3248 9.67578ZM26.3983 11.9058H26.8291V12.3291V15.1865L23.556 15.1941L23.5484 11.9133L26.3983 11.9058ZM16.6241 17.3636C17.2439 16.5094 18.2493 15.9425 19.3832 15.9425C20.5171 15.9425 21.5225 16.5018 22.1424 17.3636C22.5506 17.923 22.7849 18.6109 22.7849 19.3517C22.7849 21.2264 21.2579 22.761 19.3757 22.761C17.4934 22.761 15.9815 21.2264 15.9815 19.3517C15.9815 18.6109 16.2234 17.923 16.6241 17.3636ZM27.1769 25.2858C27.1769 26.3063 26.3453 27.1378 25.3248 27.1378H13.4567C12.4362 27.1378 11.6047 26.3063 11.6047 25.2858V17.3636H14.4923C14.2429 17.9759 14.0992 18.6487 14.0992 19.3517C14.0992 22.2696 16.4729 24.6432 19.3908 24.6432C22.3087 24.6432 24.6823 22.2696 24.6823 19.3517C24.6823 18.6487 24.5387 17.9759 24.2892 17.3636H27.1769V25.2858Z" fill="#9197B3"/>
</g>
<defs>
<clipPath id="clip0_2269_129726">
<rect width="38.7037" height="38.7037" fill="white" transform="translate(0.0307617)"/>
</clipPath>
</defs>
</svg>
