<svg width="39" height="39" viewBox="0 0 39 39" fill="none" xmlns="http://www.w3.org/2000/svg">
<g clipPath="url(#clip0_2269_129720)">
<path d="M19.616 0C8.92714 0 0.26416 8.66298 0.26416 19.3519C0.26416 30.0407 8.92714 38.7037 19.616 38.7037C30.3049 38.7037 38.9679 30.0407 38.9679 19.3519C38.9679 8.66298 30.3049 0 19.616 0ZM31.6958 31.4241C30.1235 32.9964 28.3017 34.2286 26.2682 35.0828C24.1667 35.9748 21.9292 36.4208 19.616 36.4208C17.3104 36.4208 15.0729 35.9672 12.9638 35.0828C10.9304 34.221 9.101 32.9889 7.53622 31.4241C5.96389 29.8517 4.73172 28.03 3.87751 25.9965C2.98551 23.895 2.53196 21.6574 2.53196 19.3519C2.53196 17.0463 2.98551 14.8087 3.86995 12.6997C4.73172 10.6662 5.96389 8.83684 7.52866 7.27206C9.10856 5.69973 10.9304 4.46756 12.9638 3.60579C15.0729 2.72135 17.3104 2.2678 19.616 2.2678C21.9216 2.2678 24.1592 2.72135 26.2682 3.60579C28.3017 4.46756 30.131 5.69973 31.6958 7.26451C33.2681 8.83684 34.5003 10.6586 35.3545 12.6921C36.2465 14.7936 36.6925 17.0311 36.6925 19.3443C36.6925 21.6499 36.239 23.8874 35.3545 25.9965C34.4928 28.03 33.2606 29.8593 31.6958 31.4241Z" fill="#9197B3"/>
<path d="M14.2042 15.375H10.4321V27.4472H14.2042V15.375Z" fill="#9197B3"/>
<path d="M12.2363 9.67578C10.8453 9.67578 9.93066 10.5753 9.93066 11.7697C9.93066 12.9414 10.8151 13.8636 12.1833 13.8636H12.2136C13.6347 13.8636 14.5192 12.9338 14.5116 11.7697C14.4814 10.5753 13.6272 9.67578 12.2363 9.67578Z" fill="#9197B3"/>
<path d="M24.5053 15.2617C22.3434 15.2617 20.9902 16.441 20.7408 17.2725V15.3751H16.5C16.5529 16.3805 16.5 27.4473 16.5 27.4473H20.7408V20.9236C20.7408 20.5532 20.7257 20.1904 20.8315 19.9334C21.1187 19.2077 21.7462 18.4518 22.8725 18.4518C24.3466 18.4518 25.0118 19.5705 25.0118 21.2033V27.4473H29.2904V20.7347C29.2904 17.0004 27.1889 15.2617 24.5053 15.2617Z" fill="#9197B3"/>
</g>
<defs>
<clipPath id="clip0_2269_129720">
<rect width="38.7037" height="38.7037" fill="white" transform="translate(0.265625)"/>
</clipPath>
</defs>
</svg>
