<svg width="40" height="39" viewBox="0 0 40 39" fill="none" xmlns="http://www.w3.org/2000/svg">
<g clipPath="url(#clip0_2269_129730)">
<path d="M20.1497 0C9.46083 0 0.797852 8.66298 0.797852 19.3519C0.797852 30.0407 9.46083 38.7037 20.1497 38.7037C30.8386 38.7037 39.5016 30.0407 39.5016 19.3519C39.5016 8.66298 30.8386 0 20.1497 0ZM32.2295 31.4241C30.6572 32.9964 28.8354 34.2286 26.8019 35.0828C24.7004 35.9748 22.4629 36.4208 20.1497 36.4208C17.8441 36.4208 15.6066 35.9672 13.4975 35.0828C11.464 34.221 9.63469 32.9889 8.06992 31.4241C6.49758 29.8517 5.26541 28.03 4.41121 25.9965C3.51921 23.895 3.06565 21.6574 3.06565 19.3519C3.06565 17.0463 3.51921 14.8087 4.40365 12.6997C5.26541 10.6662 6.49758 8.83684 8.06236 7.27206C9.64225 5.69973 11.464 4.46756 13.4975 3.60579C15.6066 2.72135 17.8441 2.2678 20.1497 2.2678C22.4553 2.2678 24.6929 2.72135 26.8019 3.60579C28.8354 4.46756 30.6647 5.69973 32.2295 7.26451C33.8018 8.83684 35.034 10.6586 35.8882 12.6921C36.7802 14.7936 37.2262 17.0311 37.2262 19.3443C37.2262 21.6499 36.7726 23.8874 35.8882 25.9965C35.0264 28.03 33.7943 29.8593 32.2295 31.4241Z" fill="#9197B3"/>
<path d="M29.3229 12.7091C28.5519 13.1627 27.7052 13.4953 26.7981 13.6767C26.0724 12.9057 25.0368 12.4219 23.8953 12.4219C21.7031 12.4219 19.9191 14.2059 19.9191 16.3981C19.9191 16.708 19.9494 17.0104 20.025 17.3052C16.7215 17.1389 13.7885 15.559 11.8307 13.1476C11.4905 13.7372 11.2939 14.4175 11.2939 15.1508C11.2939 16.5266 11.997 17.7436 13.0628 18.4618C12.4127 18.4391 11.8004 18.2577 11.2637 17.9629V18.0082C11.2637 19.9358 12.6319 21.546 14.4537 21.9088C14.1211 21.9995 13.7658 22.0524 13.403 22.0524C13.146 22.0524 12.8965 22.0298 12.6546 21.9844C13.1611 23.5643 14.6276 24.7133 16.3662 24.7436C15.0056 25.8094 13.2896 26.4444 11.43 26.4444C11.1125 26.4444 10.795 26.4293 10.4775 26.3915C12.2389 27.5178 14.3252 28.1755 16.5703 28.1755C23.8878 28.1755 27.8866 22.1129 27.8866 16.8592C27.8866 16.6853 27.8866 16.5115 27.8791 16.3452C28.6577 15.7782 29.3305 15.0828 29.8596 14.2815C29.1491 14.599 28.378 14.8106 27.5767 14.9089C28.4007 14.4175 29.0281 13.6389 29.3229 12.7091Z" fill="#9197B3"/>
</g>
<defs>
<clipPath id="clip0_2269_129730">
<rect width="38.7037" height="38.7037" fill="white" transform="translate(0.796387)"/>
</clipPath>
</defs>
</svg>
