<svg width="32" height="33" viewBox="0 0 32 33" fill="none" xmlns="http://www.w3.org/2000/svg">
<mask id="mask0_1960_104798" style="mask-type:luminance" maskUnits="userSpaceOnUse" x="0" y="0" width="32" height="33">
<rect y="0.265625" width="32" height="32" fill="white"/>
</mask>
<g mask="url(#mask0_1960_104798)">
<path d="M13.6702 8.11182L14.0414 13.6318L14.2257 16.4062C14.2277 16.6915 14.2723 16.975 14.3586 17.2474C14.5811 17.7762 15.1166 18.1122 15.6991 18.0887L24.5754 17.508C24.9598 17.5018 25.331 17.6455 25.6073 17.9078C25.8375 18.1263 25.9862 18.4122 26.0331 18.7196L26.0489 18.9063C25.6815 23.9926 21.9459 28.235 16.8702 29.33C11.7944 30.4251 6.58947 28.1118 4.08127 23.6459C3.35818 22.3484 2.90652 20.9224 2.75283 19.4514C2.68863 19.0159 2.66036 18.576 2.6683 18.136C2.66036 12.683 6.54362 7.96864 11.9794 6.83212C12.6337 6.73024 13.275 7.07659 13.5374 7.6734C13.6053 7.81162 13.6501 7.95964 13.6702 8.11182Z" fill="#737791"/>
<path opacity="0.4" d="M29.3337 13.348L29.3244 13.3915L29.2975 13.4547L29.3012 13.6282C29.2873 13.8579 29.1985 14.079 29.0457 14.2576C28.8864 14.4436 28.6688 14.5703 28.4292 14.6195L28.2831 14.6395L18.042 15.3031C17.7013 15.3367 17.3621 15.2268 17.1089 15.001C16.8977 14.8126 16.7628 14.5584 16.7247 14.2846L16.0373 4.05839C16.0253 4.02381 16.0253 3.98633 16.0373 3.95175C16.0467 3.66987 16.1708 3.40343 16.3819 3.21195C16.5928 3.02047 16.8733 2.91991 17.1604 2.93273C23.2403 3.08741 28.3501 7.45936 29.3337 13.348Z" fill="#737791"/>
</g>
</svg>
