<svg width="35" height="28" viewBox="0 0 35 28" fill="none" xmlns="http://www.w3.org/2000/svg">
<path d="M4.48145 4.07617H7.3844L7.96499 6.34823M10.2874 15.4365H24.8021L30.608 6.34823H7.96499M10.2874 15.4365L7.96499 6.34823M10.2874 15.4365L6.95927 18.0412C6.04489 18.7569 6.69249 19.9806 7.98562 19.9806H24.8021M24.8021 19.9806C23.1989 19.9806 21.8992 20.9978 21.8992 22.2526C21.8992 23.5075 23.1989 24.5247 24.8021 24.5247C26.4054 24.5247 27.7051 23.5075 27.7051 22.2526C27.7051 20.9978 26.4054 19.9806 24.8021 19.9806ZM13.1903 22.2526C13.1903 23.5075 11.8906 24.5247 10.2874 24.5247C8.68409 24.5247 7.3844 23.5075 7.3844 22.2526C7.3844 20.9978 8.68409 19.9806 10.2874 19.9806C11.8906 19.9806 13.1903 20.9978 13.1903 22.2526Z" stroke="#737791" strokeWidth="2" strokeLinecap="round" strokeLinejoin="round"/>
</svg>
