<svg width="30" height="34" viewBox="0 0 30 34" fill="none" xmlns="http://www.w3.org/2000/svg">
<path d="M15.0888 1.19602L28.6435 7.88748V25.8636L15.0888 32.554L1.5341 25.863V7.88695L15.0888 1.19602ZM15.0888 0L0.392578 7.25467V26.4953L15.0888 33.75L29.785 26.4953V7.25467L15.0888 0Z" fill="#737791"/>
<path d="M15.7589 11.6562H14.4229V15.9517H15.7589V11.6562Z" fill="#737791"/>
<path d="M8.26477 19.6357H7.07227V14.7266H23.1045V19.5501H21.912V15.859H8.26477V19.6357Z" fill="#737791"/>
<path d="M11.749 6.75V11.6591H18.4291V6.75H11.749Z" fill="#737791"/>
<path d="M18.5039 19.3848V24.0828H25.8875V19.3848H18.5039Z" fill="#737791"/>
<path d="M4.2959 19.3848V24.0828H11.6795V19.3848H4.2959Z" fill="#737791"/>
</svg>
