<svg width="68" height="60" viewBox="0 0 68 60" fill="none" xmlns="http://www.w3.org/2000/svg">
<path d="M13.5306 59.7399C13.5819 59.7617 13.6375 59.7717 13.6932 59.769C13.7489 59.7664 13.8033 59.7512 13.8523 59.7245L19.8179 56.0417L23.2363 58.0204C23.4913 58.1697 23.7734 58.2672 24.0663 58.307C24.3592 58.3469 24.6571 58.3284 24.9428 58.2526C25.2285 58.1768 25.4963 58.0452 25.7309 57.8654C25.9655 57.6857 26.1622 57.4612 26.3097 57.205L27.5404 55.0917C27.8391 54.5739 27.9205 53.9589 27.7668 53.3812C27.6131 52.8036 27.2369 52.3104 26.7203 52.0095L26.5378 51.9038L38.7982 44.348L53.683 54.4725C54.5307 54.9652 55.4677 55.2851 56.4398 55.4135C57.4119 55.542 58.3998 55.4765 59.3464 55.2209L59.6123 55.1448L63.6573 55.4063C64.3347 55.4458 65.0096 55.2952 65.6059 54.9714C66.2022 54.6476 66.6962 54.1636 67.032 53.574C67.3747 52.9852 67.5459 52.3123 67.526 51.6313C67.5062 50.9503 67.2962 50.2885 66.9197 49.7207L64.7035 46.3724C64.4789 45.3665 64.0473 44.4183 63.436 43.5884C62.8248 42.7585 62.0474 42.0651 61.1533 41.5523L44.9715 33.5657L45.443 19.1771L45.6255 19.2828C46.1433 19.5815 46.7583 19.6629 47.336 19.5092C47.9136 19.3555 48.4069 18.9793 48.7077 18.4627L49.9385 16.3494C50.2345 15.831 50.3144 15.2169 50.1609 14.64C50.0074 14.0631 49.6329 13.5699 49.1184 13.2672L45.7 11.2885L45.948 4.32646C45.9477 4.2689 45.9331 4.21235 45.9056 4.16176C45.8782 4.11117 45.8386 4.06813 45.7906 4.03646L40.4687 0.417236C40.4164 0.383872 40.3565 0.364221 40.2946 0.360056C40.2327 0.355892 40.1708 0.367341 40.1144 0.3934C40.0554 0.408573 40.0011 0.438086 39.9562 0.4793C39.9281 0.532117 39.9132 0.590969 39.9128 0.650807L39.8744 4.01706L38.5523 7.13584L37.0098 6.2438C36.9708 6.22144 36.9279 6.20697 36.8834 6.20128C36.8389 6.1956 36.7937 6.19878 36.7504 6.21064C36.7071 6.2225 36.6666 6.24282 36.6312 6.27041C36.5959 6.29799 36.5663 6.33231 36.5442 6.37138L36.3793 6.6544L35.0376 5.88085C34.81 5.75184 34.5409 5.71717 34.288 5.78427C34.0351 5.85137 33.8186 6.0149 33.6849 6.23978L31.8624 9.37992C31.7334 9.60753 31.6988 9.87664 31.7659 10.1295C31.833 10.3824 31.9965 10.5989 32.2213 10.7326L33.563 11.5061L33.3981 11.7891C33.3533 11.8677 33.3407 11.9605 33.3628 12.0482C33.385 12.1359 33.4402 12.2116 33.5169 12.2594L35.8033 13.5783L30.3523 26.4035L16.1294 19.447L15.1909 10.3414L11.829 8.04762L8.98914 16.0414L5.51811 15.2861L3.23038 19.225L5.66526 21.7604L0.145286 28.1712L3.79868 29.954L12.1754 26.2479L25.5434 35.3184L16.8512 46.2394L14.56 44.9118C14.4834 44.8667 14.3923 44.8534 14.306 44.8747C14.2198 44.896 14.1453 44.9503 14.0985 45.0258L13.9295 45.3224L12.5831 44.5401C12.3563 44.4156 12.09 44.3839 11.8403 44.4515C11.5906 44.5192 11.3769 44.681 11.244 44.903L9.42145 48.0432C9.29475 48.2694 9.26086 48.536 9.32694 48.7867C9.39301 49.0374 9.55388 49.2526 9.77561 49.387L11.1133 50.1741L10.9483 50.4571C10.926 50.496 10.9115 50.539 10.9058 50.5835C10.9002 50.628 10.9033 50.6732 10.9152 50.7164C10.927 50.7597 10.9473 50.8002 10.9749 50.8356C11.0025 50.871 11.0369 50.9006 11.0759 50.9226L12.6097 51.8195L10.5662 54.5107L7.6571 56.2154C7.60785 56.2489 7.56527 56.2913 7.53154 56.3404C7.50237 56.3979 7.48617 56.4611 7.4841 56.5255C7.48348 56.5867 7.4985 56.6471 7.52772 56.7009C7.55694 56.7548 7.59941 56.8003 7.65111 56.8331L13.5306 59.7399ZM45.7103 12.1249L48.7764 13.8739C49.1385 14.0834 49.4027 14.4279 49.5112 14.8319C49.6196 15.2359 49.5634 15.6664 49.3549 16.029L48.1289 18.1512C47.9161 18.511 47.5701 18.7726 47.1658 18.8792C46.7616 18.9858 46.3316 18.9289 45.969 18.7208L45.4715 18.4334L45.579 15.2572L45.7103 12.1249ZM32.6022 10.2185C32.533 10.1773 32.4825 10.1108 32.4615 10.0329C32.4405 9.95514 32.4506 9.87221 32.4897 9.80173L34.321 6.6568C34.3404 6.62152 34.3668 6.59051 34.3985 6.56564C34.4302 6.54076 34.4666 6.52253 34.5055 6.51203C34.5444 6.50153 34.585 6.49897 34.6249 6.50451C34.6649 6.51005 34.7033 6.52358 34.7378 6.54427L36.0795 7.31782L33.9487 11.0009L32.6022 10.2185ZM34.1991 11.9232L37.0066 7.07621L38.3211 7.8417L36.1116 13.0354L34.1991 11.9232ZM36.5844 13.6548L39.1033 7.81529L40.6041 4.29222C40.6214 4.25053 40.632 4.20638 40.6355 4.16139L40.6617 1.35936L45.3148 4.52237L44.9867 14.9416L44.8574 18.6644L44.3766 33.3084L31.0612 26.724L36.5844 13.6548ZM26.3601 52.6034C26.7222 52.8129 26.9863 53.1574 27.0948 53.5614C27.2032 53.9654 27.147 54.3959 26.9385 54.7585L25.7078 56.8719C25.4983 57.234 25.1538 57.4982 24.7498 57.6066C24.3458 57.715 23.9153 57.6588 23.5526 57.4503L20.4579 55.6487L23.1627 53.9867L25.8714 52.3111L26.3601 52.6034ZM66.3555 50.1066C66.6675 50.567 66.8416 51.107 66.8572 51.6629C66.8728 52.2189 66.7293 52.7677 66.4436 53.2449C66.1732 53.7284 65.7713 54.1254 65.2844 54.3897C64.7975 54.6541 64.2457 54.775 63.6929 54.7384L61.0069 54.5696L61.0948 54.5219C61.3242 54.3972 61.5438 54.2552 61.7516 54.097C61.8233 54.0691 61.8913 54.0322 61.9537 53.9872C62.193 53.8121 62.4198 53.6205 62.6324 53.4139L62.7027 53.3758C62.8971 53.1792 63.0813 52.9729 63.2546 52.7575L63.3914 52.5694C63.5802 52.3304 63.7512 52.0779 63.9029 51.8138C64.055 51.5491 64.1888 51.2716 64.3139 50.9989L64.4005 50.7812C64.5019 50.5219 64.59 50.2575 64.6646 49.9892L64.6847 49.9215C64.755 49.6308 64.8078 49.3361 64.8428 49.0391L64.8711 48.8188C64.8985 48.5554 64.9105 48.2905 64.907 48.0256C64.9132 47.9946 64.9151 47.963 64.9128 47.9315L66.3555 50.1066ZM64.0431 46.5603C64.4031 48.2198 64.1263 49.9541 63.2676 51.4191C62.4124 52.8879 61.0382 53.9831 59.4157 54.4891L59.141 54.57C57.4036 55.035 55.5528 54.7918 53.9946 53.8937L38.9639 43.6891L26.3085 35.0509L6.63901 21.7097L7.52704 20.1806C10.0675 21.646 12.602 23.1146 15.1307 24.5864C15.3562 24.7116 15.6213 24.7449 15.8708 24.6793C16.1202 24.6137 16.3346 24.4543 16.4693 24.2343C16.6039 24.0143 16.6484 23.7508 16.5933 23.4988C16.5383 23.2469 16.388 23.0259 16.1739 22.8821L8.57423 18.4628L9.43266 16.984L44.4397 34.1162L44.5537 34.1794L60.7852 42.048C61.6117 42.5245 62.3285 43.1699 62.8889 43.942C63.4493 44.7141 63.8407 45.5956 64.0375 46.5291L64.0431 46.5603ZM12.2163 9.18005L14.5978 10.8L15.4494 19.0538L9.72036 16.3612L9.79069 16.323L9.71408 16.3078L12.2163 9.18005ZM4.11551 19.1996L5.86921 16.1423L8.69566 16.7583L7.90455 18.1095C7.67155 17.975 7.39465 17.9385 7.13477 18.0081C6.87488 18.0778 6.65329 18.2477 6.51875 18.4807C6.38421 18.7137 6.34774 18.9907 6.41736 19.2505C6.48698 19.5104 6.65698 19.732 6.88997 19.8666L6.07402 21.2768L4.11551 19.1996ZM3.90134 29.2838L1.31717 28.0242L6.18533 22.3201L6.22351 22.3904L6.285 22.357L11.464 25.9855L3.90134 29.2838ZM10.1972 48.885C10.1281 48.8423 10.0786 48.7743 10.0592 48.6954C10.0398 48.6166 10.0521 48.5333 10.0934 48.4635L11.9112 45.3145C11.9319 45.2787 11.9596 45.2475 11.9927 45.2226C12.0257 45.1977 12.0634 45.1797 12.1035 45.1695C12.1436 45.1594 12.1853 45.1574 12.2262 45.1637C12.2671 45.17 12.3063 45.1843 12.3416 45.206L13.6744 45.9843L11.5436 49.6674L10.1972 48.885ZM11.7893 50.5809L14.6015 45.7427L16.5227 46.8501L16.2059 47.2725L13.1086 51.3551L11.7893 50.5809ZM11.0574 55.1429L11.1629 55.0856L13.4896 52.0358L17.3062 46.9937L26.1554 35.8168L36.9252 43.0778L38.1981 43.9342L25.7187 51.6317L22.6024 53.5626L13.682 59.0546L8.63165 56.5852L11.0574 55.1429Z" fill="#999999"/>
</svg>
