<svg width="201" height="221" viewBox="0 0 201 221" fill="none" xmlns="http://www.w3.org/2000/svg">
<path d="M98.6634 85.318C98.7147 85.3399 98.7703 85.3498 98.826 85.3472C98.8817 85.3445 98.9361 85.3293 98.9851 85.3027L104.951 81.6198L108.369 83.5985C108.624 83.7479 108.906 83.8453 109.199 83.8851C109.492 83.925 109.79 83.9065 110.076 83.8307C110.361 83.7549 110.629 83.6234 110.864 83.4436C111.098 83.2638 111.295 83.0393 111.443 82.7832L112.673 80.6698C112.972 80.1521 113.053 79.537 112.9 78.9594C112.746 78.3817 112.37 77.8885 111.853 77.5876L111.671 77.4819L123.931 69.9261L138.816 80.0506C139.664 80.5434 140.601 80.8632 141.573 80.9917C142.545 81.1201 143.533 81.0546 144.479 80.799L144.745 80.7229L148.79 80.9845C149.467 81.0239 150.142 80.8733 150.739 80.5495C151.335 80.2258 151.829 79.7417 152.165 79.1521C152.508 78.5634 152.679 77.8904 152.659 77.2094C152.639 76.5285 152.429 75.8666 152.053 75.2988L149.836 71.9505C149.612 70.9446 149.18 69.9964 148.569 69.1665C147.958 68.3366 147.18 67.6432 146.286 67.1304L130.104 59.1439L130.576 44.7552L130.758 44.8609C131.276 45.1596 131.891 45.2411 132.469 45.0874C133.046 44.9337 133.54 44.5574 133.841 44.0409L135.071 41.9275C135.367 41.4091 135.447 40.795 135.294 40.2181C135.14 39.6412 134.766 39.148 134.251 38.8453L130.833 36.8666L131.081 29.9046C131.08 29.847 131.066 29.7905 131.038 29.7399C131.011 29.6893 130.971 29.6463 130.923 29.6146L125.602 25.9954C125.549 25.962 125.489 25.9423 125.427 25.9382C125.366 25.934 125.304 25.9455 125.247 25.9715C125.188 25.9867 125.134 26.0162 125.089 26.0574C125.061 26.1102 125.046 26.1691 125.046 26.2289L125.007 29.5952L123.685 32.714L122.143 31.8219C122.104 31.7996 122.061 31.7851 122.016 31.7794C121.972 31.7737 121.926 31.7769 121.883 31.7888C121.84 31.8006 121.799 31.8209 121.764 31.8485C121.729 31.8761 121.699 31.9104 121.677 31.9495L121.512 32.2325L120.17 31.459C119.943 31.33 119.674 31.2953 119.421 31.3624C119.168 31.4295 118.951 31.593 118.818 31.8179L116.995 34.958C116.866 35.1857 116.832 35.4548 116.899 35.7076C116.966 35.9605 117.129 36.177 117.354 36.3107L118.696 37.0843L118.531 37.3673C118.486 37.4458 118.473 37.5387 118.496 37.6263C118.518 37.714 118.573 37.7897 118.65 37.8376L120.936 39.1564L115.485 51.9816L101.262 45.0251L100.324 35.9195L96.9618 33.6257L94.122 41.6195L90.6509 40.8642L88.3632 44.8032L90.7981 47.3386L85.2781 53.7493L88.9315 55.5321L97.3082 51.826L110.676 60.8965L101.984 71.8176L99.6928 70.4899C99.6162 70.4448 99.5251 70.4315 99.4388 70.4529C99.3526 70.4742 99.2781 70.5284 99.2313 70.6039L99.0623 70.9005L97.7159 70.1182C97.4891 69.9937 97.2229 69.962 96.9732 70.0297C96.7234 70.0973 96.5097 70.2592 96.3768 70.4811L94.5543 73.6213C94.4276 73.8475 94.3937 74.1141 94.4597 74.3648C94.5258 74.6155 94.6867 74.8307 94.9084 74.9651L96.2461 75.7523L96.0811 76.0352C96.0588 76.0741 96.0443 76.1171 96.0387 76.1616C96.033 76.2061 96.0361 76.2513 96.048 76.2946C96.0599 76.3378 96.0802 76.3784 96.1077 76.4137C96.1353 76.4491 96.1697 76.4787 96.2087 76.5008L97.7425 77.3976L95.699 80.0888L92.7899 81.7935C92.7407 81.827 92.6981 81.8694 92.6644 81.9185C92.6352 81.976 92.619 82.0392 92.6169 82.1036C92.6163 82.1649 92.6313 82.2252 92.6605 82.2791C92.6898 82.3329 92.7322 82.3784 92.7839 82.4112L98.6634 85.318ZM130.843 37.7031L133.909 39.452C134.271 39.6615 134.536 40.006 134.644 40.41C134.752 40.814 134.696 41.2445 134.488 41.6071L133.262 43.7293C133.049 44.0891 132.703 44.3507 132.299 44.4573C131.894 44.5639 131.464 44.507 131.102 44.2989L130.604 44.0115L130.712 40.8353L130.843 37.7031ZM117.735 35.7967C117.666 35.7554 117.615 35.6889 117.594 35.6111C117.573 35.5333 117.583 35.4503 117.623 35.3799L119.454 32.2349C119.473 32.1996 119.5 32.1686 119.531 32.1438C119.563 32.1189 119.599 32.1007 119.638 32.0902C119.677 32.0797 119.718 32.0771 119.758 32.0826C119.798 32.0882 119.836 32.1017 119.871 32.1224L121.212 32.8959L119.082 36.579L117.735 35.7967ZM119.332 37.5013L122.139 32.6543L123.454 33.4198L121.244 38.6135L119.332 37.5013ZM121.717 39.2329L124.236 33.3934L125.737 29.8703C125.754 29.8287 125.765 29.7845 125.768 29.7395L125.794 26.9375L130.448 30.1005L130.119 40.5197L129.99 44.2425L129.509 58.8865L116.194 52.3022L121.717 39.2329ZM111.493 78.1815C111.855 78.391 112.119 78.7355 112.228 79.1395C112.336 79.5435 112.28 79.974 112.071 80.3366L110.841 82.45C110.631 82.8121 110.287 83.0763 109.883 83.1847C109.479 83.2932 109.048 83.2369 108.685 83.0284L105.591 81.2268L108.295 79.5648L111.004 77.8892L111.493 78.1815ZM151.488 75.6848C151.8 76.1451 151.974 76.6851 151.99 77.241C152.006 77.797 151.862 78.3459 151.576 78.823C151.306 79.3066 150.904 79.7035 150.417 79.9679C149.93 80.2322 149.379 80.3531 148.826 80.3165L146.14 80.1477L146.228 80.1C146.457 79.9753 146.677 79.8333 146.884 79.6751C146.956 79.6472 147.024 79.6103 147.087 79.5653C147.326 79.3902 147.553 79.1987 147.765 78.992L147.836 78.9539C148.03 78.7573 148.214 78.551 148.387 78.3356L148.524 78.1475C148.713 77.9085 148.884 77.656 149.036 77.3919C149.188 77.1273 149.322 76.8498 149.447 76.5771L149.533 76.3594C149.635 76.1 149.723 75.8357 149.797 75.5674L149.817 75.4996C149.888 75.2089 149.941 74.9142 149.976 74.6172L150.004 74.397C150.031 74.1335 150.043 73.8686 150.04 73.6037C150.046 73.5728 150.048 73.5411 150.046 73.5096L151.488 75.6848ZM149.176 72.1384C149.536 73.7979 149.259 75.5322 148.4 76.9973C147.545 78.466 146.171 79.5612 144.548 80.0673L144.274 80.1481C142.536 80.6131 140.686 80.3699 139.127 79.4718L124.097 69.2672L111.441 60.629L91.7718 47.2878L92.6598 45.7588C95.2003 47.2242 97.7348 48.6927 100.264 50.1645C100.489 50.2898 100.754 50.3231 101.004 50.2575C101.253 50.1919 101.467 50.0324 101.602 49.8124C101.737 49.5924 101.781 49.3289 101.726 49.077C101.671 48.825 101.521 48.604 101.307 48.4602L93.707 44.0409L94.5655 42.5621L129.573 59.6943L129.687 59.7576L145.918 67.6261C146.745 68.1026 147.461 68.748 148.022 69.5201C148.582 70.2922 148.973 71.1737 149.17 72.1073L149.176 72.1384ZM97.3491 34.7582L99.7306 36.3781L100.582 44.632L94.8532 41.9393L94.9235 41.9012L94.8469 41.8859L97.3491 34.7582ZM89.2483 44.7777L91.002 41.7204L93.8285 42.3364L93.0374 43.6877C92.8044 43.5531 92.5275 43.5166 92.2676 43.5863C92.0077 43.6559 91.7861 43.8259 91.6516 44.0589C91.517 44.2919 91.4806 44.5688 91.5502 44.8287C91.6198 45.0886 91.7898 45.3102 92.0228 45.4447L91.2068 46.8549L89.2483 44.7777ZM89.0342 54.862L86.45 53.6024L91.3181 47.8982L91.3563 47.9685L91.4178 47.9352L96.5968 51.5637L89.0342 54.862ZM95.33 74.4632C95.2609 74.4205 95.2114 74.3524 95.192 74.2736C95.1726 74.1947 95.1849 74.1114 95.2263 74.0416L97.044 70.8926C97.0647 70.8568 97.0925 70.8256 97.1255 70.8007C97.1585 70.7758 97.1962 70.7578 97.2363 70.7477C97.2764 70.7376 97.3181 70.7356 97.359 70.7418C97.3999 70.7481 97.4391 70.7625 97.4744 70.7841L98.8073 71.5624L96.6764 75.2455L95.33 74.4632ZM96.9221 76.159L99.7343 71.3208L101.656 72.4283L101.339 72.8506L98.2414 76.9333L96.9221 76.159ZM96.1902 80.721L96.2957 80.6638L98.6224 77.614L102.439 72.5718L111.288 61.3949L122.058 68.6559L123.331 69.5123L110.852 77.2098L107.735 79.1407L98.8148 84.6327L93.7645 82.1633L96.1902 80.721Z" fill="#999999"/>
<path d="M106.531 185.74C106.582 185.762 106.637 185.772 106.693 185.769C106.749 185.766 106.803 185.751 106.852 185.725L112.818 182.042L116.236 184.02C116.491 184.17 116.773 184.267 117.066 184.307C117.359 184.347 117.657 184.328 117.943 184.253C118.228 184.177 118.496 184.045 118.731 183.865C118.966 183.686 119.162 183.461 119.31 183.205L120.54 181.092C120.839 180.574 120.921 179.959 120.767 179.381C120.613 178.804 120.237 178.31 119.72 178.009L119.538 177.904L131.798 170.348L146.683 180.472C147.531 180.965 148.468 181.285 149.44 181.414C150.412 181.542 151.4 181.477 152.346 181.221L152.612 181.145L156.657 181.406C157.335 181.446 158.01 181.295 158.606 180.971C159.202 180.648 159.696 180.164 160.032 179.574C160.375 178.985 160.546 178.312 160.526 177.631C160.506 176.95 160.296 176.288 159.92 175.721L157.703 172.372C157.479 171.366 157.047 170.418 156.436 169.588C155.825 168.759 155.047 168.065 154.153 167.552L137.971 159.566L138.443 145.177L138.626 145.283C139.143 145.582 139.758 145.663 140.336 145.509C140.914 145.356 141.407 144.979 141.708 144.463L142.938 142.349C143.234 141.831 143.314 141.217 143.161 140.64C143.007 140.063 142.633 139.57 142.118 139.267L138.7 137.288L138.948 130.326C138.948 130.269 138.933 130.212 138.906 130.162C138.878 130.111 138.839 130.068 138.791 130.036L133.469 126.417C133.416 126.384 133.357 126.364 133.295 126.36C133.233 126.356 133.171 126.367 133.114 126.393C133.055 126.409 133.001 126.438 132.956 126.479C132.928 126.532 132.913 126.591 132.913 126.651L132.874 130.017L131.552 133.136L130.01 132.244C129.971 132.221 129.928 132.207 129.883 132.201C129.839 132.196 129.794 132.199 129.75 132.211C129.707 132.222 129.667 132.243 129.631 132.27C129.596 132.298 129.566 132.332 129.544 132.371L129.379 132.654L128.038 131.881C127.81 131.752 127.541 131.717 127.288 131.784C127.035 131.851 126.819 132.015 126.685 132.24L124.862 135.38C124.733 135.608 124.699 135.877 124.766 136.13C124.833 136.382 124.996 136.599 125.221 136.733L126.563 137.506L126.398 137.789C126.353 137.868 126.341 137.961 126.363 138.048C126.385 138.136 126.44 138.212 126.517 138.259L128.803 139.578L123.352 152.403L109.129 145.447L108.191 136.341L104.829 134.048L101.989 142.041L98.5181 141.286L96.2304 145.225L98.6653 147.76L93.1453 154.171L96.7987 155.954L105.175 152.248L118.543 161.318L109.851 172.239L107.56 170.912C107.483 170.867 107.392 170.853 107.306 170.875C107.22 170.896 107.145 170.95 107.098 171.026L106.93 171.322L105.583 170.54C105.356 170.416 105.09 170.384 104.84 170.452C104.591 170.519 104.377 170.681 104.244 170.903L102.421 174.043C102.295 174.269 102.261 174.536 102.327 174.787C102.393 175.037 102.554 175.253 102.776 175.387L104.113 176.174L103.948 176.457C103.926 176.496 103.912 176.539 103.906 176.583C103.9 176.628 103.903 176.673 103.915 176.716C103.927 176.76 103.947 176.8 103.975 176.836C104.003 176.871 104.037 176.901 104.076 176.923L105.61 177.819L103.566 180.511L100.657 182.215C100.608 182.249 100.565 182.291 100.532 182.34C100.502 182.398 100.486 182.461 100.484 182.526C100.483 182.587 100.498 182.647 100.528 182.701C100.557 182.755 100.599 182.8 100.651 182.833L106.531 185.74ZM138.71 138.125L141.776 139.874C142.139 140.083 142.403 140.428 142.511 140.832C142.62 141.236 142.563 141.666 142.355 142.029L141.129 144.151C140.916 144.511 140.57 144.773 140.166 144.879C139.762 144.986 139.332 144.929 138.969 144.721L138.472 144.433L138.579 141.257L138.71 138.125ZM125.602 136.219C125.533 136.177 125.482 136.111 125.461 136.033C125.44 135.955 125.451 135.872 125.49 135.802L127.321 132.657C127.34 132.622 127.367 132.591 127.399 132.566C127.43 132.541 127.467 132.523 127.506 132.512C127.544 132.502 127.585 132.499 127.625 132.505C127.665 132.51 127.703 132.524 127.738 132.544L129.08 133.318L126.949 137.001L125.602 136.219ZM127.199 137.923L130.007 133.076L131.321 133.842L129.112 139.035L127.199 137.923ZM129.584 139.655L132.103 133.815L133.604 130.292C133.621 130.251 133.632 130.206 133.635 130.161L133.662 127.359L138.315 130.522L137.987 140.942L137.857 144.664L137.377 159.308L124.061 152.724L129.584 139.655ZM119.36 178.603C119.722 178.813 119.986 179.157 120.095 179.561C120.203 179.965 120.147 180.396 119.939 180.759L118.708 182.872C118.498 183.234 118.154 183.498 117.75 183.607C117.346 183.715 116.915 183.659 116.553 183.45L113.458 181.649L116.163 179.987L118.871 178.311L119.36 178.603ZM159.355 176.107C159.668 176.567 159.842 177.107 159.857 177.663C159.873 178.219 159.729 178.768 159.444 179.245C159.173 179.728 158.771 180.125 158.284 180.39C157.798 180.654 157.246 180.775 156.693 180.738L154.007 180.57L154.095 180.522C154.324 180.397 154.544 180.255 154.752 180.097C154.823 180.069 154.891 180.032 154.954 179.987C155.193 179.812 155.42 179.621 155.632 179.414L155.703 179.376C155.897 179.179 156.081 178.973 156.255 178.758L156.391 178.569C156.58 178.33 156.751 178.078 156.903 177.814C157.055 177.549 157.189 177.272 157.314 176.999L157.4 176.781C157.502 176.522 157.59 176.258 157.665 175.989L157.685 175.921C157.755 175.631 157.808 175.336 157.843 175.039L157.871 174.819C157.898 174.555 157.91 174.291 157.907 174.026C157.913 173.995 157.915 173.963 157.913 173.931L159.355 176.107ZM157.043 172.56C157.403 174.22 157.126 175.954 156.268 177.419C155.412 178.888 154.038 179.983 152.416 180.489L152.141 180.57C150.404 181.035 148.553 180.792 146.995 179.894L131.964 169.689L119.309 161.051L99.639 147.71L100.527 146.181C103.067 147.646 105.602 149.115 108.131 150.586C108.356 150.712 108.621 150.745 108.871 150.679C109.12 150.614 109.335 150.454 109.469 150.234C109.604 150.014 109.648 149.751 109.593 149.499C109.538 149.247 109.388 149.026 109.174 148.882L101.574 144.463L102.433 142.984L137.44 160.116L137.554 160.179L153.785 168.048C154.612 168.525 155.329 169.17 155.889 169.942C156.449 170.714 156.841 171.596 157.038 172.529L157.043 172.56ZM105.216 135.18L107.598 136.8L108.449 145.054L102.72 142.361L102.791 142.323L102.714 142.308L105.216 135.18ZM97.1155 145.2L98.8692 142.142L101.696 142.758L100.905 144.11C100.672 143.975 100.395 143.939 100.135 144.008C99.8749 144.078 99.6533 144.248 99.5187 144.481C99.3842 144.714 99.3477 144.991 99.4174 145.251C99.487 145.51 99.657 145.732 99.89 145.867L99.074 147.277L97.1155 145.2ZM96.9013 155.284L94.3172 154.024L99.1853 148.32L99.2235 148.39L99.285 148.357L104.464 151.986L96.9013 155.284ZM103.197 174.885C103.128 174.842 103.079 174.774 103.059 174.695C103.04 174.617 103.052 174.533 103.093 174.463L104.911 171.314C104.932 171.279 104.96 171.247 104.993 171.223C105.026 171.198 105.063 171.18 105.103 171.17C105.144 171.159 105.185 171.157 105.226 171.164C105.267 171.17 105.306 171.184 105.342 171.206L106.674 171.984L104.544 175.667L103.197 174.885ZM104.789 176.581L107.601 171.743L109.523 172.85L109.206 173.273L106.109 177.355L104.789 176.581ZM104.057 181.143L104.163 181.086L106.49 178.036L110.306 172.994L119.155 161.817L129.925 169.078L131.198 169.934L118.719 177.632L115.602 179.563L106.682 185.055L101.632 182.585L104.057 181.143Z" fill="#999999"/>
<path d="M39.4399 52.3633L40.0129 51.8195C40.044 51.79 40.0807 51.767 40.1209 51.7519C40.161 51.7369 40.2038 51.73 40.2466 51.7318C40.2895 51.7336 40.3315 51.744 40.3703 51.7623C40.409 51.7807 40.4437 51.8066 40.4722 51.8386C40.5017 51.8697 40.5247 51.9064 40.5398 51.9466C40.5548 51.9867 40.5617 52.0295 40.5599 52.0723C40.5581 52.1151 40.5478 52.1572 40.5294 52.1959C40.5111 52.2347 40.4851 52.2694 40.4531 52.2979C39.9816 52.7453 39.5174 53.1859 39.0604 53.6195C39 53.6807 38.9182 53.7158 38.8322 53.7175C38.7463 53.7192 38.6632 53.6874 38.6004 53.6287C38.5405 53.5658 38.507 53.4825 38.5066 53.3956C38.5062 53.3088 38.5391 53.2252 38.5984 53.1618L39.4399 52.3633ZM41.4527 50.5911C41.9242 50.1436 42.4714 49.776 42.998 49.3866C43.032 49.3612 43.0707 49.3427 43.1118 49.3324C43.153 49.3221 43.1958 49.32 43.2378 49.3264C43.2797 49.3327 43.32 49.3474 43.3563 49.3695C43.3925 49.3916 43.424 49.4206 43.4489 49.455C43.4743 49.489 43.4928 49.5277 43.5031 49.5688C43.5135 49.61 43.5155 49.6528 43.5091 49.6948C43.5027 49.7367 43.4881 49.777 43.466 49.8133C43.4439 49.8495 43.4149 49.881 43.3805 49.9059C42.8612 50.2884 42.3557 50.6855 41.8711 51.0901C41.8036 51.1436 41.7179 51.1686 41.6322 51.1598C41.5465 51.1509 41.4677 51.1089 41.4126 51.0427C41.3855 51.0105 41.365 50.9732 41.3524 50.933C41.3397 50.8928 41.3351 50.8505 41.3389 50.8086C41.3426 50.7666 41.3546 50.7258 41.3741 50.6885C41.3936 50.6512 41.4204 50.618 41.4527 50.5911ZM37.2383 54.5904C37.2966 54.5342 37.3736 54.5014 37.4546 54.4984C37.5355 54.4953 37.6148 54.522 37.6773 54.5736C37.7405 54.6321 37.7783 54.7131 37.7827 54.7991C37.787 54.8851 37.7576 54.9694 37.7006 55.034C37.3651 55.4213 37.0509 55.8021 36.7288 56.2181L36.4876 56.516C36.462 56.5501 36.4298 56.5787 36.3929 56.6002C36.356 56.6217 36.3152 56.6356 36.2729 56.6411C36.2305 56.6466 36.1876 56.6435 36.1464 56.6322C36.1053 56.6208 36.0668 56.6013 36.0333 56.5748C35.9676 56.5221 35.9253 56.4457 35.9155 56.362C35.9058 56.2783 35.9295 56.1942 35.9814 56.1278L36.2157 55.8227C36.5306 55.4136 36.8447 55.0328 37.2165 54.6111L37.2383 54.5904ZM44.5345 48.2456L44.5708 48.2111C45.1035 47.8573 45.6576 47.4969 46.2182 47.1579C46.2912 47.1151 46.3779 47.1019 46.4603 47.1212C46.5428 47.1405 46.6147 47.1907 46.6611 47.2615C46.6844 47.298 46.7 47.3388 46.7071 47.3816C46.7141 47.4243 46.7124 47.468 46.702 47.5101C46.6917 47.5521 46.6729 47.5917 46.6468 47.6262C46.6207 47.6608 46.5879 47.6897 46.5503 47.7112C46.0038 48.0506 45.4574 48.39 44.9315 48.7511C44.8609 48.798 44.7745 48.8149 44.6914 48.7981C44.6083 48.7814 44.5352 48.7323 44.4883 48.6617C44.4582 48.5983 44.4498 48.5268 44.4644 48.4581C44.479 48.3895 44.5157 48.3276 44.5689 48.2818L44.5345 48.2456ZM34.8735 57.6479C34.9277 57.5979 34.9974 57.5681 35.071 57.5636C35.1446 57.5591 35.2175 57.5801 35.2773 57.6231C35.3133 57.6461 35.3441 57.6764 35.3678 57.7119C35.3916 57.7474 35.4077 57.7874 35.4152 57.8295C35.4228 57.8715 35.4215 57.9146 35.4116 57.9562C35.4017 57.9977 35.3833 58.0367 35.3576 58.0708C35.0046 58.585 34.6509 59.1275 34.3109 59.6845C34.2886 59.7201 34.2595 59.7511 34.2253 59.7755C34.191 59.7999 34.1523 59.8173 34.1113 59.8267C34.0703 59.8362 34.0279 59.8374 33.9864 59.8305C33.945 59.8235 33.9053 59.8084 33.8697 59.7861C33.7966 59.7404 33.7443 59.6678 33.724 59.584C33.7037 59.5002 33.7171 59.4117 33.7612 59.3376C34.1011 58.7806 34.4621 58.2313 34.8296 57.7033L34.8735 57.6479ZM47.8413 46.2243L47.8993 46.1692C48.466 45.8657 49.04 45.5554 49.6347 45.2668C49.7107 45.2295 49.7985 45.2239 49.8786 45.2512C49.9588 45.2785 50.0249 45.3364 50.0624 45.4124C50.0822 45.4497 50.0942 45.4908 50.0976 45.533C50.101 45.5752 50.0957 45.6176 50.0821 45.6577C50.0684 45.6978 50.0467 45.7346 50.0183 45.766C49.9899 45.7973 49.9553 45.8226 49.9168 45.8401C49.3431 46.1363 48.7695 46.4325 48.2169 46.7363C48.1805 46.7581 48.14 46.7722 48.0979 46.7778C48.0558 46.7833 48.013 46.7801 47.9722 46.7685C47.9314 46.7568 47.8934 46.7368 47.8606 46.7099C47.8279 46.6829 47.8009 46.6495 47.7816 46.6117C47.7583 46.5507 47.7548 46.484 47.7717 46.4209C47.7886 46.3578 47.825 46.3017 47.8757 46.2605L47.8413 46.2243ZM32.8493 60.9336C32.9002 60.8866 32.9646 60.8568 33.0334 60.8484C33.1022 60.8401 33.1718 60.8536 33.2325 60.887C33.3064 60.9285 33.3608 60.9975 33.3838 61.079C33.4069 61.1604 33.3967 61.2477 33.3555 61.3217C33.0438 61.8795 32.7459 62.4517 32.469 63.0315C32.4287 63.1068 32.3615 63.1642 32.2808 63.1922C32.2002 63.2203 32.1119 63.2169 32.0336 63.1828C31.956 63.143 31.8973 63.0742 31.8704 62.9913C31.8434 62.9085 31.8503 62.8183 31.8895 62.7405C32.1664 62.1606 32.4789 61.5747 32.7905 61.0169L32.8493 60.9336ZM51.3244 44.4905L51.4042 44.4148C51.9981 44.1545 52.5989 43.9014 53.1993 43.6625C53.2387 43.6464 53.2809 43.6383 53.3234 43.6387C53.366 43.639 53.408 43.6479 53.4471 43.6647C53.4862 43.6816 53.5215 43.706 53.551 43.7367C53.5805 43.7673 53.6036 43.8036 53.619 43.8433C53.6351 43.8826 53.6432 43.9248 53.6428 43.9674C53.6424 44.0099 53.6336 44.0519 53.6167 44.091C53.5999 44.1301 53.5754 44.1654 53.5448 44.1949C53.5141 44.2245 53.4779 44.2476 53.4382 44.2629C52.8451 44.495 52.2515 44.7411 51.6645 45.0087C51.5867 45.0422 51.4988 45.0434 51.42 45.0122C51.3413 44.981 51.2782 44.9198 51.2444 44.8421C51.2323 44.7875 51.2352 44.7306 51.2528 44.6776C51.2704 44.6245 51.302 44.5771 51.3443 44.5405L51.3244 44.4905ZM31.1455 64.4116C31.1916 64.3691 31.2485 64.3402 31.31 64.3281C31.3715 64.316 31.4351 64.3211 31.4939 64.3429C31.5469 64.354 31.5963 64.3779 31.6379 64.4126C31.6794 64.4473 31.7118 64.4917 31.7321 64.5418C31.7525 64.592 31.7602 64.6463 31.7546 64.7002C31.7489 64.754 31.7302 64.8056 31.6999 64.8505C31.4512 65.4311 31.2022 66.0258 30.9743 66.6282C30.9595 66.6679 30.9371 66.7043 30.9081 66.7352C30.8792 66.7662 30.8444 66.7911 30.8058 66.8085C30.7672 66.8259 30.7255 66.8355 30.6831 66.8367C30.6408 66.8378 30.5986 66.8306 30.5591 66.8153C30.4805 66.7834 30.4173 66.7225 30.3824 66.6452C30.3476 66.5679 30.3438 66.4802 30.3719 66.4002C30.6072 65.791 30.8565 65.1821 31.1055 64.5874L31.1455 64.4116ZM54.9338 43.0642C54.9584 43.0279 54.9906 42.9973 55.0281 42.9747C55.642 42.7644 56.2627 42.5614 56.883 42.3726C56.9233 42.3594 56.9658 42.3544 57.008 42.3577C57.0502 42.3611 57.0913 42.3729 57.129 42.3923C57.1667 42.4117 57.2001 42.4384 57.2273 42.4708C57.2546 42.5033 57.2752 42.5408 57.2878 42.5812C57.3134 42.6644 57.3051 42.7544 57.2646 42.8315C57.2242 42.9086 57.1549 42.9666 57.0719 42.9929C56.4588 43.1749 55.8454 43.371 55.2457 43.5817C55.2063 43.5965 55.1643 43.6034 55.1223 43.602C55.0802 43.6006 55.0388 43.5909 55.0005 43.5734C54.9622 43.556 54.9277 43.5312 54.899 43.5004C54.8703 43.4696 54.848 43.4335 54.8332 43.3941C54.8294 43.3412 54.8383 43.2881 54.8593 43.2394C54.8803 43.1907 54.9127 43.1478 54.9537 43.1143L54.9338 43.0642ZM29.7773 68.0398C29.818 68.0004 29.8685 67.9726 29.9235 67.9591C29.9785 67.9457 30.0362 67.947 30.0905 67.9631C30.1314 67.9757 30.1693 67.9964 30.202 68.024C30.2348 68.0515 30.2616 68.0853 30.2811 68.1234C30.3005 68.1615 30.3121 68.2031 30.3152 68.2458C30.3183 68.2884 30.3128 68.3313 30.2991 68.3718C30.1062 68.9821 29.9203 69.5997 29.7833 70.2398C29.7577 70.3219 29.7021 70.3912 29.6275 70.4339C29.5529 70.4765 29.4649 70.4894 29.3812 70.4698C29.3406 70.4586 29.3025 70.4395 29.2693 70.4136C29.2361 70.3876 29.2083 70.3554 29.1876 70.3187C29.1669 70.282 29.1536 70.2416 29.1485 70.1997C29.1435 70.1579 29.1467 70.1155 29.1581 70.0749C29.323 69.4497 29.5162 68.8252 29.7029 68.1793C29.7176 68.136 29.7403 68.0959 29.7696 68.0608L29.7773 68.0398ZM58.6345 41.9374C58.6621 41.8905 58.7023 41.8524 58.7505 41.8273C59.3843 41.667 60.0108 41.5137 60.6648 41.3893C60.7494 41.3741 60.8366 41.3916 60.9089 41.4381C60.9811 41.4846 61.0331 41.5568 61.0543 41.64C61.0695 41.7246 61.0521 41.8118 61.0056 41.8841C60.9591 41.9564 60.8869 42.0084 60.8036 42.0296C60.1706 42.1615 59.5514 42.308 58.9112 42.4469C58.87 42.4585 58.8269 42.4617 58.7845 42.4564C58.742 42.4511 58.7011 42.4373 58.6641 42.4159C58.627 42.3945 58.5947 42.3659 58.5689 42.3318C58.5431 42.2976 58.5244 42.2587 58.514 42.2172C58.5246 42.1731 58.5444 42.1317 58.5722 42.0959C58.5999 42.06 58.635 42.0305 58.6751 42.0092L58.6345 41.9374ZM28.753 71.769C28.7928 71.7327 28.8408 71.7068 28.893 71.6933C28.9451 71.6799 28.9997 71.6794 29.0521 71.692C29.134 71.7145 29.2045 71.7668 29.2497 71.8387C29.295 71.9105 29.3117 71.9968 29.2966 72.0803C29.153 72.699 29.0301 73.3395 28.9218 73.9662C28.9046 74.0492 28.8561 74.1225 28.7863 74.1707C28.7166 74.2189 28.631 74.2384 28.5472 74.2252C28.5055 74.2187 28.4655 74.2039 28.4295 74.1819C28.3936 74.1598 28.3623 74.1309 28.3376 74.0967C28.3128 74.0625 28.2951 74.0238 28.2854 73.9828C28.2756 73.9417 28.2741 73.8991 28.2809 73.8575C28.3897 73.2166 28.5198 72.5693 28.6637 71.9364C28.6753 71.8804 28.7038 71.8294 28.7453 71.79L28.753 71.769ZM62.4676 41.1536C62.5155 41.11 62.5754 41.082 62.6395 41.0732C63.279 40.9626 63.925 40.8735 64.5638 40.7912C64.6068 40.7845 64.6508 40.7867 64.693 40.7976C64.7351 40.8085 64.7746 40.828 64.809 40.8547C64.8434 40.8814 64.872 40.9149 64.893 40.9531C64.914 40.9912 64.927 41.0333 64.9312 41.0766C64.9358 41.1186 64.9321 41.161 64.9203 41.2015C64.9084 41.242 64.8886 41.2798 64.8621 41.3126C64.8356 41.3454 64.8029 41.3727 64.7658 41.3928C64.7288 41.413 64.6881 41.4256 64.6461 41.4299C64.0073 41.5122 63.4045 41.5742 62.7428 41.7196C62.6583 41.7306 62.5729 41.7085 62.5043 41.6579C62.4358 41.6073 62.3894 41.5322 62.375 41.4483C62.3661 41.3992 62.3692 41.3487 62.384 41.301C62.3988 41.2534 62.4249 41.21 62.46 41.1746L62.4676 41.1536ZM28.1285 75.6289C28.1636 75.5965 28.2055 75.572 28.2511 75.5573C28.2966 75.5427 28.3449 75.5381 28.3924 75.5439C28.4341 75.5496 28.4742 75.5635 28.5105 75.5847C28.5468 75.6059 28.5785 75.6341 28.6039 75.6676C28.6293 75.7011 28.6479 75.7393 28.6585 75.78C28.6691 75.8207 28.6716 75.8631 28.6659 75.9047C28.5931 76.5253 28.5118 77.1951 28.4814 77.8168C28.478 77.9026 28.4412 77.9837 28.3789 78.0428C28.3166 78.102 28.2336 78.1345 28.1478 78.1335C28.1048 78.133 28.0625 78.124 28.0231 78.1069C27.9838 78.0897 27.9483 78.0649 27.9187 78.0337C27.8892 78.0026 27.8662 77.9659 27.8511 77.9257C27.8361 77.8855 27.8293 77.8427 27.8311 77.7998C27.8764 77.1502 27.9576 76.4803 28.0163 75.8594C28.0187 75.8137 28.0305 75.769 28.0511 75.7282C28.0716 75.6873 28.1005 75.6512 28.1357 75.622L28.1285 75.6289ZM66.3209 40.6816C66.3731 40.6308 66.4415 40.6 66.5142 40.5946C67.1663 40.541 67.8177 40.5156 68.4623 40.483C68.5052 40.4834 68.5476 40.4924 68.5869 40.5096C68.6263 40.5267 68.6618 40.5516 68.6913 40.5827C68.7209 40.6138 68.7438 40.6506 68.7589 40.6908C68.7739 40.731 68.7808 40.7738 68.7789 40.8166C68.7762 40.9008 68.7405 40.9806 68.6794 41.0386C68.6183 41.0966 68.5367 41.1281 68.4525 41.1264C67.8152 41.1522 67.1489 41.2054 66.5185 41.2384C66.4343 41.2358 66.3546 41.2 66.2966 41.1389C66.2386 41.0778 66.207 40.9963 66.2088 40.912C66.2094 40.8712 66.2184 40.8309 66.2352 40.7936C66.252 40.7563 66.2762 40.7229 66.3064 40.6953L66.3209 40.6816ZM27.8494 79.5333C27.9156 79.4781 27.9989 79.4478 28.085 79.4475C28.17 79.4533 28.2497 79.4909 28.3084 79.5527C28.367 79.6144 28.4003 79.696 28.4017 79.7812C28.385 80.4173 28.3821 81.068 28.3938 81.7049C28.3911 81.7891 28.3553 81.8689 28.2942 81.9269C28.2331 81.9849 28.1516 82.0164 28.0673 82.0147C27.984 82.0096 27.9057 81.9731 27.8482 81.9125C27.7907 81.8519 27.7583 81.7718 27.7576 81.6883C27.7394 81.03 27.7148 80.3503 27.7594 79.729C27.7674 79.6557 27.799 79.587 27.8494 79.5333ZM70.2066 40.5923C70.269 40.5345 70.3503 40.5015 70.4353 40.4993C71.0929 40.5094 71.7501 40.5337 72.3928 40.5717C72.4786 40.5752 72.5597 40.612 72.6189 40.6743C72.678 40.7366 72.7105 40.8195 72.7095 40.9054C72.7068 40.9896 72.671 41.0694 72.6099 41.1274C72.5488 41.1854 72.4673 41.2169 72.383 41.2152C71.7472 41.1844 71.1042 41.1605 70.4607 41.1507C70.3749 41.1472 70.2938 41.1104 70.2347 41.0481C70.1756 40.9858 70.1431 40.9029 70.1441 40.817C70.1308 40.7748 70.1271 40.7301 70.1331 40.6863C70.1392 40.6424 70.1548 40.6004 70.179 40.5633L70.2066 40.5923ZM27.9665 83.4338C28.0206 83.3804 28.0914 83.3473 28.167 83.3401C28.2528 83.3435 28.3339 83.3803 28.3931 83.4426C28.4522 83.5049 28.4847 83.5878 28.4837 83.6737C28.5308 84.3045 28.5917 84.9498 28.6813 85.5817C28.6901 85.666 28.6661 85.7505 28.6143 85.8176C28.5625 85.8847 28.4869 85.9294 28.4031 85.9422C28.3609 85.9493 28.3177 85.9477 28.2762 85.9373C28.2347 85.9269 28.1958 85.9081 28.1619 85.882C28.128 85.8558 28.1 85.823 28.0794 85.7854C28.0589 85.7479 28.0463 85.7066 28.0425 85.664C27.9533 85.018 27.9199 84.4017 27.8388 83.7205C27.8194 83.6624 27.8166 83.6001 27.8307 83.5405C27.8447 83.4809 27.8751 83.4264 27.9183 83.383L27.9665 83.4338ZM74.1044 40.85C74.1369 40.8154 74.1771 40.7889 74.2218 40.7729C74.2665 40.7569 74.3144 40.7516 74.3615 40.7577C75.0103 40.8313 75.6519 40.9117 76.3 41.0136C76.3417 41.0201 76.3816 41.0349 76.4176 41.0569C76.4536 41.0789 76.4848 41.1079 76.5096 41.1421C76.5343 41.1762 76.5521 41.215 76.5618 41.256C76.5715 41.2971 76.573 41.3397 76.5662 41.3813C76.5522 41.467 76.505 41.5438 76.4348 41.5949C76.3646 41.646 76.2771 41.6674 76.1912 41.6544C75.5714 41.5533 74.9298 41.4729 74.2951 41.3996C74.2093 41.3962 74.1282 41.3594 74.0691 41.2971C74.01 41.2348 73.9775 41.1519 73.9785 41.066C73.9726 41.0186 73.9764 40.9704 73.9897 40.9246C74.0031 40.8787 74.0257 40.836 74.0562 40.7992L74.1044 40.85ZM28.4672 87.2737C28.5087 87.2291 28.5645 87.2006 28.625 87.1929C28.7097 87.1775 28.7971 87.1958 28.8685 87.2439C28.94 87.2921 28.9897 87.3662 29.0072 87.4505C29.1182 88.0759 29.2501 88.7089 29.4039 89.3212C29.4143 89.3624 29.4164 89.4052 29.4101 89.4472C29.4038 89.4891 29.3893 89.5294 29.3673 89.5657C29.3452 89.602 29.3162 89.6336 29.2819 89.6585C29.2476 89.6835 29.2086 89.7014 29.1673 89.7112C29.0844 89.7295 28.9976 89.7151 28.9249 89.6711C28.8523 89.627 28.7995 89.5566 28.7774 89.4746C28.6313 88.8412 28.4924 88.201 28.3532 87.5749C28.335 87.5173 28.3335 87.4557 28.3488 87.3973C28.3641 87.3389 28.3956 87.2859 28.4397 87.2447L28.4672 87.2737ZM77.9295 41.4524C77.9674 41.4152 78.014 41.388 78.065 41.3733C78.116 41.3586 78.1699 41.3568 78.2218 41.3681C78.855 41.4978 79.4947 41.649 80.1199 41.8139C80.2018 41.835 80.272 41.8877 80.3151 41.9604C80.3583 42.0331 80.3709 42.1199 80.3503 42.2019C80.3284 42.2852 80.2748 42.3566 80.2009 42.401C80.1271 42.4453 80.0388 42.459 79.955 42.4391C79.3439 42.2746 78.7111 42.1307 78.0851 41.994C78.0433 41.9859 78.0036 41.9695 77.9682 41.9459C77.9328 41.9222 77.9025 41.8917 77.8791 41.8562C77.8557 41.8207 77.8395 41.7808 77.8317 41.739C77.8238 41.6971 77.8244 41.6542 77.8334 41.6126C77.8302 41.5392 77.8468 41.4663 77.8813 41.4016L77.9295 41.4524ZM29.366 91.0391C29.3922 90.9954 29.4298 90.9597 29.4748 90.9359C29.5561 90.9118 29.6436 90.921 29.7181 90.9614C29.7927 91.0018 29.8481 91.0701 29.8723 91.1514C30.0612 91.7717 30.2574 92.3852 30.4753 92.978C30.4902 93.0173 30.497 93.0592 30.4952 93.1012C30.4934 93.1432 30.4831 93.1844 30.465 93.2223C30.4468 93.2602 30.4211 93.294 30.3894 93.3217C30.3577 93.3493 30.3207 93.3703 30.2807 93.3832C30.2413 93.398 30.1994 93.4049 30.1573 93.4035C30.1153 93.402 30.0739 93.3923 30.0356 93.3749C29.9973 93.3575 29.9628 93.3327 29.9341 93.3019C29.9054 93.2711 29.883 93.235 29.8683 93.1955C29.6508 92.5886 29.4477 91.9679 29.252 91.3403C29.2279 91.2815 29.2213 91.217 29.233 91.1546C29.2447 91.0922 29.2741 91.0345 29.3178 90.9883L29.366 91.0391ZM81.6812 42.4277C81.7225 42.3892 81.773 42.3619 81.8279 42.3485C81.8827 42.3351 81.94 42.336 81.9944 42.3511C82.6116 42.5559 83.2284 42.7701 83.845 42.9937C83.8847 43.0084 83.9212 43.0309 83.9521 43.0598C83.9831 43.0887 84.008 43.1236 84.0254 43.1622C84.0428 43.2008 84.0524 43.2425 84.0536 43.2848C84.0547 43.3272 84.0475 43.3694 84.0322 43.4089C84.0175 43.4486 83.995 43.485 83.9661 43.5159C83.9372 43.5469 83.9024 43.5718 83.8638 43.5892C83.8251 43.6066 83.7835 43.6162 83.7411 43.6174C83.6988 43.6185 83.6566 43.6113 83.6171 43.5961C83.0216 43.3753 82.4048 43.1611 81.8013 42.9755C81.7604 42.9629 81.7225 42.9422 81.6897 42.9147C81.657 42.8872 81.6301 42.8534 81.6107 42.8153C81.5912 42.7772 81.5796 42.7356 81.5765 42.6929C81.5734 42.6503 81.579 42.6074 81.5927 42.5669C81.5839 42.5008 81.5982 42.4338 81.633 42.377L81.6812 42.4277ZM30.6563 94.7087L30.7361 94.633C30.8159 94.6005 30.9052 94.6005 30.9849 94.633C31.0647 94.6655 31.1286 94.7279 31.163 94.8068C31.3495 95.2503 31.55 95.6941 31.7651 96.1241L31.9733 96.5469C32.0106 96.6229 32.0162 96.7107 31.9889 96.7908C31.9616 96.871 31.9037 96.937 31.8278 96.9746C31.7902 96.9944 31.749 97.0065 31.7067 97.0103C31.6643 97.014 31.6217 97.0093 31.5812 96.9964C31.5407 96.9835 31.5032 96.9627 31.4708 96.9351C31.4385 96.9075 31.412 96.8738 31.3928 96.8359L31.1846 96.4131C30.963 95.9616 30.7624 95.5178 30.5622 95.0599C30.5213 94.9894 30.5071 94.9065 30.5222 94.8264C30.5373 94.7463 30.5806 94.6743 30.6444 94.6235L30.6563 94.7087ZM32.3904 98.1776L32.4484 98.1226C32.5231 98.0811 32.6109 98.0702 32.6935 98.0922C32.776 98.1141 32.8468 98.1672 32.891 98.2403C33.2021 98.786 33.5342 99.3394 33.8877 99.8862C33.9108 99.9209 33.9266 99.9599 33.9343 100.001C33.9419 100.042 33.9413 100.084 33.9323 100.125C33.9233 100.165 33.9061 100.204 33.8819 100.238C33.8577 100.272 33.827 100.3 33.7914 100.322C33.7207 100.369 33.6344 100.386 33.5513 100.369C33.4681 100.352 33.3951 100.303 33.3481 100.233C32.9877 99.6787 32.6487 99.1181 32.3308 98.5651C32.3021 98.5313 32.2805 98.492 32.2674 98.4497C32.2542 98.4073 32.2498 98.3628 32.2542 98.3187C32.2587 98.2745 32.272 98.2318 32.2933 98.1929C32.3147 98.154 32.3436 98.1199 32.3785 98.0925L32.3904 98.1776ZM34.4908 101.437L34.5271 101.403C34.596 101.354 34.6813 101.335 34.7643 101.349C34.8474 101.363 34.9216 101.409 34.9707 101.478C35.3667 102.021 35.7493 102.54 36.1183 103.036C36.1443 103.069 36.1635 103.106 36.1745 103.147C36.1856 103.187 36.1883 103.229 36.1826 103.271C36.1769 103.312 36.1628 103.352 36.1412 103.388C36.1197 103.424 36.0911 103.455 36.0571 103.48C36.024 103.506 35.986 103.525 35.9453 103.537C35.9047 103.548 35.8621 103.552 35.8202 103.547C35.7782 103.542 35.7377 103.528 35.7009 103.508C35.6641 103.487 35.6318 103.459 35.6058 103.425C35.2092 102.906 34.8267 102.387 34.4445 101.853C34.4068 101.822 34.3771 101.782 34.3578 101.737C34.3385 101.692 34.3302 101.643 34.3336 101.594C34.3369 101.545 34.3518 101.497 34.3771 101.455C34.4024 101.413 34.4372 101.378 34.4789 101.352L34.4908 101.437ZM36.8435 104.512C36.8767 104.486 36.9146 104.466 36.9553 104.455C36.996 104.443 37.0385 104.44 37.0805 104.445C37.1224 104.45 37.163 104.463 37.1998 104.484C37.2366 104.505 37.2689 104.533 37.2948 104.566C37.7354 105.03 38.1179 105.55 38.5367 106.035C38.5653 106.067 38.5872 106.104 38.6011 106.145C38.6149 106.185 38.6205 106.228 38.6174 106.271C38.6143 106.314 38.6026 106.356 38.583 106.394C38.5634 106.432 38.5364 106.466 38.5034 106.493C38.4714 106.522 38.434 106.544 38.3934 106.558C38.3527 106.572 38.3098 106.577 38.2669 106.574C38.2241 106.571 38.1824 106.559 38.1441 106.54C38.1059 106.52 38.0721 106.493 38.0445 106.46C37.5971 105.989 37.2004 105.469 36.7962 104.97C36.7516 104.939 36.7159 104.896 36.6924 104.847C36.669 104.798 36.6585 104.743 36.6621 104.689C36.6656 104.634 36.6831 104.581 36.7127 104.536C36.7424 104.49 36.7834 104.452 36.8316 104.427L36.8435 104.512ZM39.3696 107.45C39.4004 107.421 39.4368 107.398 39.4766 107.383C39.5165 107.369 39.5589 107.362 39.6013 107.365C39.6437 107.367 39.6851 107.378 39.723 107.397C39.7609 107.417 39.7945 107.443 39.8217 107.476C40.2691 107.947 40.7096 108.412 41.1502 108.876C41.2086 108.937 41.2402 109.02 41.238 109.104C41.2357 109.189 41.1999 109.27 41.1384 109.328C41.107 109.356 41.0704 109.378 41.0307 109.392C40.991 109.405 40.9489 109.411 40.907 109.409C40.865 109.406 40.8239 109.396 40.786 109.377C40.7482 109.359 40.7143 109.334 40.6863 109.302C40.2458 108.838 39.7984 108.366 39.3509 107.895C39.3079 107.865 39.2729 107.825 39.2489 107.779C39.2249 107.732 39.2128 107.68 39.2134 107.628C39.2141 107.576 39.2276 107.524 39.2528 107.478C39.2779 107.432 39.314 107.393 39.3577 107.365L39.3696 107.45ZM41.9969 110.306C42.0579 110.248 42.1387 110.215 42.2229 110.215C42.307 110.214 42.3882 110.246 42.4497 110.303C42.8696 110.746 43.3101 111.21 43.8439 111.627C43.9071 111.686 43.9449 111.767 43.9493 111.853C43.9536 111.939 43.9242 112.023 43.8672 112.088C43.8074 112.149 43.7268 112.185 43.6415 112.189C43.5562 112.193 43.4724 112.166 43.4068 112.111C42.8952 111.659 42.4191 111.201 41.9575 110.729C41.8991 110.667 41.8676 110.585 41.8698 110.5C41.872 110.415 41.9078 110.335 41.9694 110.277L41.9969 110.306ZM44.8861 112.885C44.9425 112.831 45.017 112.799 45.0953 112.796C45.1736 112.793 45.2503 112.818 45.311 112.868C45.803 113.256 46.3092 113.644 46.8437 114.033C46.9127 114.084 46.9589 114.16 46.9726 114.245C46.9862 114.33 46.9661 114.417 46.9167 114.488C46.8653 114.557 46.7891 114.603 46.7042 114.616C46.6193 114.63 46.5324 114.61 46.4621 114.561C45.9207 114.164 45.4076 113.769 44.9087 113.374C44.8411 113.319 44.7978 113.24 44.7882 113.154C44.7785 113.068 44.8033 112.981 44.8571 112.913L44.8861 112.885ZM48.0161 115.181C48.0693 115.129 48.1393 115.098 48.2134 115.094C48.2876 115.089 48.3608 115.112 48.42 115.156C48.9414 115.503 49.4839 115.856 50.0336 116.203C50.1074 116.25 50.1595 116.324 50.1785 116.41C50.1975 116.495 50.1818 116.585 50.1349 116.658C50.0869 116.729 50.0134 116.778 49.9298 116.796C49.8463 116.814 49.7592 116.798 49.6868 116.753C49.1302 116.399 48.5877 116.045 48.0525 115.684C47.9842 115.634 47.9378 115.56 47.9229 115.477C47.908 115.393 47.9256 115.307 47.9722 115.237L48.0161 115.181ZM51.2935 117.255C51.3457 117.207 51.4118 117.178 51.482 117.171C51.5522 117.164 51.6229 117.179 51.6835 117.215C52.2267 117.541 52.7913 117.86 53.3559 118.179C53.3935 118.198 53.4267 118.225 53.4534 118.258C53.4802 118.291 53.4999 118.329 53.5114 118.369C53.523 118.41 53.526 118.453 53.5204 118.495C53.5148 118.537 53.5007 118.577 53.479 118.613C53.4595 118.651 53.4325 118.684 53.3997 118.711C53.3669 118.738 53.3289 118.757 53.2882 118.769C53.2475 118.78 53.2048 118.784 53.1629 118.778C53.1209 118.772 53.0805 118.758 53.0443 118.736C52.4724 118.424 51.9078 118.105 51.3577 117.773C51.3208 117.752 51.2885 117.723 51.2627 117.69C51.2369 117.656 51.218 117.617 51.2072 117.576C51.1965 117.535 51.194 117.492 51.1999 117.45C51.2059 117.408 51.2202 117.368 51.2419 117.331L51.2935 117.255ZM54.689 119.133C54.7378 119.085 54.8006 119.054 54.8684 119.044C54.9361 119.035 55.0051 119.047 55.0653 119.079C55.6376 119.377 56.2102 119.661 56.79 119.938C56.8288 119.955 56.8638 119.98 56.8929 120.011C56.9219 120.043 56.9445 120.079 56.9593 120.119C56.9741 120.159 56.9807 120.201 56.9789 120.244C56.977 120.286 56.9667 120.328 56.9486 120.367C56.9101 120.444 56.843 120.503 56.7616 120.531C56.6803 120.559 56.5911 120.554 56.5131 120.518C55.9333 120.241 55.3465 119.957 54.7674 119.652C54.6916 119.614 54.6338 119.548 54.6067 119.467C54.5797 119.387 54.5855 119.299 54.623 119.223L54.689 119.133ZM58.1964 120.795C58.2433 120.752 58.3019 120.723 58.3649 120.712C58.428 120.701 58.4929 120.709 58.5517 120.734C59.1461 120.997 59.7408 121.246 60.329 121.474C60.3698 121.488 60.4072 121.51 60.4387 121.54C60.4703 121.569 60.4954 121.605 60.5123 121.645C60.5293 121.685 60.5377 121.727 60.5371 121.771C60.5365 121.814 60.5269 121.856 60.5089 121.896C60.4946 121.935 60.4725 121.971 60.4441 122.001C60.4156 122.031 60.3813 122.056 60.3432 122.072C60.3052 122.089 60.2641 122.098 60.2225 122.099C60.1809 122.1 60.1396 122.092 60.101 122.076C59.4918 121.841 58.8971 121.592 58.2886 121.328C58.25 121.312 58.215 121.287 58.1858 121.257C58.1566 121.227 58.1336 121.191 58.1182 121.152C58.1028 121.113 58.0953 121.071 58.096 121.029C58.0968 120.987 58.1059 120.945 58.1228 120.907L58.1964 120.795ZM66.2763 116.671C66.7477 116.223 67.2884 115.834 67.8077 115.452C67.8412 115.425 67.8798 115.406 67.9212 115.394C67.9626 115.383 68.0058 115.381 68.0482 115.387C68.0906 115.394 68.1312 115.409 68.1674 115.432C68.2036 115.455 68.2347 115.485 68.2587 115.52C68.2841 115.554 68.3025 115.593 68.3129 115.634C68.3232 115.675 68.3253 115.718 68.3189 115.76C68.3125 115.802 68.2979 115.842 68.2758 115.879C68.2537 115.915 68.2246 115.946 68.1903 115.971C67.6855 116.34 67.1796 116.751 66.7019 117.163C66.6699 117.192 66.6325 117.214 66.5919 117.227C66.5512 117.241 66.5082 117.247 66.4654 117.244C66.4226 117.241 66.3808 117.229 66.3426 117.209C66.3044 117.19 66.2705 117.163 66.243 117.13C66.2 117.098 66.1654 117.056 66.1423 117.007C66.1192 116.959 66.1082 116.906 66.1103 116.852C66.1124 116.799 66.1275 116.746 66.1543 116.7C66.1812 116.653 66.2189 116.614 66.2643 116.586L66.2763 116.671ZM64.869 118.006C64.9275 117.947 65.0068 117.913 65.09 117.911C65.1733 117.909 65.2539 117.94 65.3149 117.997C65.376 118.057 65.4112 118.139 65.4129 118.225C65.4146 118.311 65.3827 118.394 65.3241 118.457C64.8526 118.904 64.4503 119.41 64.0698 119.895C64.0137 119.961 63.935 120.002 63.8494 120.012C63.7638 120.021 63.6777 119.998 63.6086 119.947C63.5756 119.92 63.5482 119.887 63.5281 119.85C63.5079 119.812 63.4954 119.771 63.4912 119.729C63.4871 119.687 63.4914 119.644 63.5039 119.604C63.5163 119.563 63.5368 119.526 63.5639 119.493C63.959 118.994 64.3964 118.496 64.8908 117.986L64.869 118.006ZM69.399 114.383L69.4498 114.335C70.0117 113.992 70.5937 113.684 71.1928 113.411C71.2709 113.375 71.36 113.371 71.4412 113.399C71.5223 113.428 71.5891 113.487 71.6273 113.564C71.6453 113.603 71.6553 113.644 71.657 113.687C71.6587 113.729 71.6519 113.772 71.637 113.811C71.6221 113.851 71.5995 113.888 71.5704 113.919C71.5413 113.949 71.5064 113.974 71.4676 113.992C70.8882 114.256 70.3253 114.556 69.7819 114.888C69.7452 114.91 69.7046 114.924 69.6623 114.93C69.62 114.936 69.577 114.934 69.5358 114.923C69.4946 114.912 69.4559 114.893 69.4222 114.866C69.3885 114.84 69.3603 114.808 69.3393 114.771C69.3108 114.737 69.2896 114.698 69.2768 114.656C69.2641 114.614 69.2601 114.57 69.2653 114.526C69.2704 114.482 69.2845 114.44 69.3066 114.402C69.3287 114.364 69.3585 114.331 69.3939 114.305L69.399 114.383ZM62.4836 121.042C62.535 120.993 62.6013 120.963 62.6719 120.956C62.7425 120.949 62.8135 120.965 62.8736 121.003C62.9436 121.049 62.9932 121.121 63.012 121.203C63.0309 121.285 63.0178 121.371 62.9753 121.444C62.8055 121.715 62.6494 122.001 62.5079 122.273C62.9918 122.435 63.4829 122.589 63.9602 122.729C64.0439 122.754 64.1143 122.811 64.156 122.887C64.1978 122.964 64.2074 123.054 64.1829 123.138C64.1546 123.217 64.0978 123.283 64.0236 123.323C63.9494 123.363 63.863 123.374 63.7811 123.354C63.2759 123.199 62.7496 123.037 62.2169 122.853L62.1109 123.119C62.0763 123.198 62.0119 123.261 61.9317 123.293C61.8515 123.325 61.7618 123.325 61.6819 123.292C61.6433 123.275 61.6084 123.251 61.5792 123.22C61.5499 123.19 61.527 123.154 61.5116 123.115C61.4962 123.076 61.4886 123.034 61.4894 122.992C61.4902 122.95 61.4993 122.909 61.5162 122.87L61.6973 122.436L61.7209 122.345C61.7518 122.296 61.7941 122.256 61.8442 122.228C62.0235 121.865 62.231 121.502 62.4527 121.14L62.4836 121.042ZM72.9277 112.799C72.9565 112.758 72.9936 112.722 73.0365 112.696C73.6849 112.504 74.3562 112.4 75.0322 112.387C75.118 112.391 75.1991 112.428 75.2583 112.49C75.3174 112.552 75.3499 112.635 75.3489 112.721C75.3485 112.764 75.3394 112.806 75.3223 112.846C75.3052 112.885 75.2803 112.92 75.2492 112.95C75.218 112.98 75.1813 113.003 75.1411 113.018C75.1009 113.033 75.0581 113.039 75.0152 113.038C74.3973 113.057 73.7842 113.152 73.1899 113.322C73.1496 113.334 73.1074 113.338 73.0656 113.333C73.0239 113.329 72.9835 113.316 72.947 113.295C72.9105 113.274 72.8786 113.246 72.8533 113.212C72.8279 113.179 72.8096 113.141 72.7996 113.1C72.7743 113.032 72.7727 112.958 72.795 112.889C72.8174 112.82 72.8624 112.761 72.9227 112.721L72.9277 112.799ZM61.032 124.611C61.0684 124.576 61.1125 124.55 61.1609 124.536C61.2092 124.521 61.2603 124.518 61.3101 124.527C61.3931 124.544 61.4663 124.593 61.5145 124.662C61.5628 124.732 61.5823 124.818 61.569 124.901C61.4861 125.351 61.4575 125.808 61.4838 126.264C61.4939 126.42 61.4967 126.583 61.5137 126.746C61.5085 126.83 61.472 126.908 61.4115 126.965C61.3509 127.023 61.2708 127.055 61.1873 127.056C61.1443 127.056 61.1019 127.046 61.0626 127.029C61.0232 127.012 60.9877 126.987 60.9582 126.956C60.9286 126.925 60.9057 126.888 60.8906 126.848C60.8756 126.808 60.8688 126.765 60.8706 126.722C60.8537 126.559 60.8509 126.396 60.8412 126.226C60.8289 125.727 60.868 125.228 60.958 124.737C60.9598 124.664 60.9838 124.593 61.027 124.534L61.032 124.611ZM65.5223 123.314C65.5602 123.277 65.6067 123.25 65.6577 123.235C65.7087 123.221 65.7626 123.219 65.8145 123.23C66.4683 123.382 67.1016 123.511 67.7004 123.605C67.7849 123.623 67.8594 123.672 67.9088 123.743C67.9582 123.814 67.9787 123.901 67.9662 123.987C67.9589 124.028 67.9433 124.068 67.9205 124.104C67.8976 124.14 67.8679 124.17 67.833 124.194C67.7982 124.219 67.7589 124.235 67.7175 124.244C67.676 124.253 67.6332 124.254 67.5916 124.246C66.9787 124.152 66.352 124.043 65.6706 123.863C65.5873 123.841 65.5158 123.787 65.4715 123.714C65.4272 123.64 65.4135 123.551 65.4334 123.468C65.4272 123.425 65.4316 123.382 65.4462 123.342C65.4608 123.301 65.4852 123.265 65.5172 123.236L65.5223 123.314ZM76.6936 112.961C76.7451 112.912 76.8113 112.882 76.8819 112.875C76.9525 112.868 77.0235 112.884 77.0837 112.922C77.2868 113.049 77.473 113.201 77.6377 113.375C77.9647 113.729 78.2097 114.151 78.3551 114.611C78.3683 114.651 78.3733 114.693 78.3699 114.735C78.3666 114.778 78.3548 114.819 78.3354 114.857C78.316 114.894 78.2893 114.928 78.2569 114.955C78.2244 114.982 78.1869 115.003 78.1465 115.015C78.1072 115.029 78.0655 115.035 78.024 115.032C77.9825 115.029 77.9419 115.018 77.9048 114.999C77.8676 114.98 77.8347 114.954 77.8078 114.922C77.781 114.891 77.7608 114.854 77.7486 114.814C77.6262 114.446 77.4278 114.108 77.1662 113.823C77.0401 113.686 76.8956 113.568 76.7368 113.472C76.7012 113.449 76.6703 113.42 76.6458 113.386C76.6214 113.352 76.604 113.313 76.5946 113.272C76.5851 113.231 76.5839 113.189 76.5908 113.147C76.5978 113.106 76.6129 113.066 76.6352 113.031L76.6936 112.961ZM61.1502 128.47C61.1995 128.423 61.2621 128.392 61.3294 128.382C61.3714 128.376 61.4143 128.377 61.4557 128.387C61.4971 128.397 61.536 128.416 61.5703 128.441C61.6045 128.466 61.6334 128.498 61.6552 128.534C61.6769 128.571 61.6912 128.612 61.6971 128.654C61.7867 129.286 61.9045 129.918 62.08 130.51C62.0893 130.551 62.0903 130.594 62.0831 130.635C62.0758 130.677 62.0604 130.716 62.0378 130.752C62.0152 130.787 61.9858 130.818 61.9512 130.842C61.9167 130.866 61.8777 130.884 61.8366 130.893C61.7955 130.902 61.7529 130.903 61.7114 130.896C61.6699 130.888 61.6302 130.873 61.5947 130.85C61.5591 130.828 61.5284 130.798 61.5042 130.764C61.4801 130.729 61.463 130.69 61.4539 130.649C61.3006 130.023 61.1831 129.376 61.087 128.723C61.0639 128.668 61.0571 128.607 61.0674 128.549C61.0777 128.49 61.1047 128.435 61.1452 128.392L61.1502 128.47ZM69.347 123.931C69.3802 123.9 69.4196 123.876 69.4627 123.861C69.5058 123.847 69.5515 123.841 69.5968 123.845C70.2275 123.892 70.8604 123.899 71.492 123.867C71.5778 123.87 71.6589 123.907 71.718 123.969C71.7771 124.032 71.8096 124.115 71.8086 124.201C71.8059 124.285 71.7702 124.364 71.709 124.422C71.6479 124.48 71.5664 124.512 71.4822 124.51C70.8223 124.542 70.1612 124.534 69.5022 124.487C69.4593 124.486 69.4169 124.477 69.3776 124.46C69.3382 124.443 69.3027 124.418 69.2732 124.387C69.2436 124.356 69.2207 124.319 69.2056 124.279C69.1906 124.239 69.1837 124.196 69.1856 124.153C69.181 124.093 69.1932 124.034 69.2209 123.981C69.2485 123.928 69.2905 123.883 69.342 123.853L69.347 123.931ZM78.0892 116.393C78.1479 116.338 78.2237 116.305 78.3038 116.3C78.3888 116.306 78.4685 116.343 78.5272 116.405C78.5858 116.467 78.6191 116.548 78.6205 116.633C78.643 117.299 78.6114 117.965 78.5259 118.626C78.5202 118.667 78.5063 118.707 78.4851 118.744C78.4638 118.78 78.4356 118.812 78.4021 118.837C78.3686 118.863 78.3304 118.881 78.2897 118.892C78.2491 118.902 78.2067 118.905 78.165 118.899C78.0794 118.887 78.002 118.841 77.9495 118.772C77.8971 118.704 77.8738 118.617 77.8846 118.531C77.9666 117.911 77.9949 117.284 77.969 116.659C77.955 116.596 77.9584 116.532 77.9787 116.471C77.999 116.41 78.0354 116.357 78.0841 116.315L78.0892 116.393ZM62.0349 132.235C62.0619 132.196 62.0964 132.163 62.1364 132.138C62.1767 132.125 62.2192 132.12 62.2614 132.124C62.3036 132.127 62.3448 132.139 62.3824 132.158C62.4201 132.177 62.4535 132.204 62.4808 132.237C62.508 132.269 62.5286 132.307 62.5412 132.347C62.7446 132.954 62.9766 133.547 63.2301 134.133C63.2636 134.211 63.2648 134.299 63.2336 134.378C63.2024 134.457 63.1412 134.52 63.0634 134.553C63.025 134.571 62.9833 134.581 62.9409 134.583C62.8985 134.585 62.8561 134.578 62.8163 134.563C62.7766 134.548 62.7402 134.526 62.7092 134.497C62.6783 134.467 62.6535 134.432 62.6362 134.394C62.3762 133.786 62.1377 133.171 61.9346 132.55C61.9007 132.484 61.8916 132.408 61.9091 132.336C61.9265 132.264 61.9694 132.2 62.0298 132.157L62.0349 132.235ZM73.2157 123.679C73.2587 123.641 73.3105 123.616 73.3662 123.605C73.9657 123.468 74.5446 123.252 75.0877 122.964C75.1245 122.943 75.1649 122.93 75.2067 122.925C75.2485 122.921 75.2908 122.924 75.3312 122.936C75.3716 122.947 75.4094 122.967 75.4423 122.993C75.4752 123.019 75.5026 123.051 75.523 123.088C75.5449 123.125 75.559 123.165 75.5645 123.207C75.57 123.249 75.5668 123.292 75.5552 123.333C75.5435 123.374 75.5236 123.412 75.4966 123.444C75.4696 123.477 75.4362 123.504 75.3984 123.523C74.8035 123.843 74.1694 124.083 73.5123 124.238C73.4275 124.256 73.3391 124.239 73.2662 124.193C73.1933 124.146 73.1418 124.072 73.1228 123.987C73.0951 123.925 73.0873 123.856 73.1004 123.789C73.1136 123.722 73.147 123.661 73.1962 123.614L73.2157 123.679ZM77.5372 120.184C77.5833 120.142 77.6402 120.113 77.7017 120.101C77.7632 120.089 77.8268 120.094 77.8856 120.116C77.9632 120.148 78.0248 120.21 78.0572 120.287C78.0896 120.365 78.0901 120.452 78.0586 120.53C77.8014 121.176 77.4339 121.772 76.9727 122.291C76.9451 122.323 76.9114 122.35 76.8735 122.368C76.8357 122.387 76.7945 122.398 76.7524 122.401C76.7102 122.404 76.6679 122.399 76.6279 122.385C76.5878 122.371 76.5509 122.35 76.5192 122.322C76.4861 122.295 76.4588 122.262 76.4392 122.224C76.4195 122.186 76.4079 122.145 76.405 122.102C76.4021 122.059 76.4081 122.017 76.4225 121.977C76.4369 121.936 76.4594 121.9 76.4887 121.869C76.8878 121.406 77.2097 120.882 77.4418 120.316C77.4435 120.244 77.4703 120.175 77.5177 120.12L77.5372 120.184ZM63.6047 135.763L63.6628 135.708C63.7391 135.668 63.8281 135.659 63.9107 135.684C63.9934 135.708 64.0631 135.764 64.105 135.84C64.4088 136.392 64.7481 136.939 65.1024 137.457C65.1271 137.492 65.1445 137.532 65.1537 137.573C65.1629 137.615 65.1637 137.658 65.156 137.7C65.1484 137.742 65.1324 137.782 65.109 137.818C65.0856 137.854 65.0553 137.884 65.0199 137.908C64.9487 137.955 64.862 137.973 64.7779 137.958C64.6939 137.942 64.6191 137.895 64.5693 137.825C64.2013 137.292 63.8554 136.725 63.5378 136.157C63.4843 136.09 63.4593 136.004 63.4682 135.918C63.477 135.833 63.519 135.754 63.5852 135.699L63.6047 135.763ZM65.7987 138.961C65.8307 138.932 65.8681 138.911 65.9087 138.897C65.9493 138.883 65.9924 138.877 66.0352 138.88C66.078 138.884 66.1197 138.895 66.1579 138.915C66.1962 138.934 66.23 138.961 66.2576 138.994C66.5398 139.292 66.8151 139.582 67.0974 139.879C67.2557 140.046 67.414 140.213 67.5723 140.38C67.6022 140.409 67.626 140.445 67.6423 140.483C67.6586 140.522 67.6671 140.564 67.6673 140.606C67.6675 140.648 67.6595 140.689 67.6435 140.728C67.6276 140.767 67.6042 140.803 67.5746 140.833C67.5454 140.864 67.5102 140.889 67.471 140.907C67.4318 140.924 67.3895 140.934 67.3465 140.935C67.3036 140.936 67.261 140.928 67.2211 140.912C67.1813 140.896 67.1451 140.872 67.1146 140.842C66.9494 140.668 66.7911 140.501 66.6259 140.327C66.3368 140.022 66.0476 139.717 65.7585 139.413C65.7192 139.381 65.6878 139.341 65.6669 139.296C65.6459 139.25 65.6361 139.2 65.6381 139.15C65.6401 139.099 65.6539 139.05 65.6784 139.006C65.7029 138.963 65.7374 138.925 65.7791 138.897L65.7987 138.961ZM68.5569 141.679C68.6133 141.624 68.6877 141.593 68.7661 141.589C68.8444 141.586 68.9211 141.612 68.9818 141.662C69.4666 142.056 69.98 142.438 70.5152 142.798C70.5501 142.822 70.5798 142.853 70.6027 142.888C70.6256 142.924 70.6413 142.964 70.6488 143.005C70.6562 143.047 70.6553 143.09 70.6462 143.131C70.637 143.172 70.6198 143.211 70.5955 143.246C70.5482 143.316 70.4755 143.364 70.393 143.38C70.3105 143.396 70.2248 143.38 70.1546 143.333C69.6056 142.958 69.0712 142.569 68.5726 142.16C68.5396 142.134 68.5122 142.101 68.492 142.063C68.4719 142.026 68.4593 141.985 68.4552 141.943C68.451 141.9 68.4553 141.858 68.4678 141.817C68.4803 141.777 68.5007 141.739 68.5279 141.706L68.5569 141.679ZM71.7609 143.849C71.7946 143.799 71.8423 143.759 71.8983 143.735C71.9542 143.712 72.0159 143.705 72.0757 143.716C72.6265 144.021 73.206 144.312 73.7862 144.574C73.8248 144.591 73.8597 144.615 73.889 144.646C73.9182 144.676 73.9412 144.712 73.9566 144.751C73.972 144.79 73.9795 144.832 73.9787 144.874C73.9779 144.916 73.9688 144.958 73.952 144.996C73.9141 145.074 73.8479 145.135 73.7669 145.165C73.6859 145.196 73.5962 145.195 73.5162 145.162C72.9218 144.898 72.3286 144.593 71.7636 144.288C71.688 144.245 71.6327 144.173 71.6097 144.089C71.5867 144.005 71.598 143.915 71.641 143.839L71.7609 143.849ZM75.2988 145.427C75.3403 145.387 75.3924 145.359 75.4489 145.347C75.5055 145.335 75.5644 145.339 75.6189 145.358C76.2216 145.572 76.8324 145.751 77.4507 145.908C77.5342 145.932 77.6051 145.987 77.6481 146.062C77.6911 146.137 77.7028 146.227 77.6807 146.31C77.6707 146.352 77.6524 146.391 77.6267 146.425C77.6011 146.459 77.5688 146.487 77.5317 146.508C77.4947 146.529 77.4537 146.542 77.4114 146.546C77.3691 146.551 77.3263 146.546 77.2858 146.533C76.6533 146.375 76.0288 146.182 75.3902 145.989C75.309 145.96 75.2424 145.9 75.2047 145.822C75.1671 145.744 75.1614 145.655 75.1889 145.573L75.2988 145.427ZM79.0436 146.396C79.0802 146.363 79.1235 146.34 79.1703 146.326C79.2171 146.313 79.2664 146.31 79.3144 146.318C79.9411 146.426 80.5759 146.499 81.2109 146.558C81.2968 146.562 81.3778 146.599 81.4369 146.661C81.4961 146.723 81.5286 146.806 81.5276 146.892C81.5272 146.935 81.5181 146.977 81.501 147.017C81.4839 147.056 81.459 147.092 81.4278 147.121C81.3967 147.151 81.36 147.174 81.3198 147.189C81.2796 147.204 81.2368 147.211 81.1939 147.209C80.5447 147.149 79.8962 147.062 79.2554 146.953C79.1697 146.939 79.0929 146.892 79.0418 146.821C78.9907 146.751 78.9693 146.664 78.9822 146.578C78.9663 146.493 78.9811 146.406 79.0241 146.331L79.0436 146.396ZM82.8968 146.737C82.9262 146.709 82.961 146.687 82.999 146.672C83.037 146.657 83.0776 146.65 83.1183 146.651C83.7549 146.653 84.3991 146.635 85.0298 146.588C85.0717 146.584 85.1139 146.589 85.154 146.602C85.1941 146.614 85.2312 146.635 85.2634 146.662C85.2955 146.689 85.322 146.722 85.3413 146.76C85.3606 146.797 85.3723 146.838 85.3759 146.88C85.3794 146.922 85.3747 146.964 85.362 147.004C85.3492 147.044 85.3287 147.081 85.3016 147.113C85.2745 147.145 85.2413 147.172 85.2039 147.191C85.1666 147.21 85.1258 147.222 85.0838 147.226C84.4317 147.279 83.7734 147.298 83.1155 147.302C83.0296 147.298 82.9485 147.261 82.8894 147.199C82.8303 147.137 82.7978 147.054 82.7988 146.968C82.7901 146.916 82.7927 146.863 82.8062 146.812C82.8197 146.761 82.8439 146.714 82.8772 146.673L82.8968 146.737ZM86.7525 146.442C86.8 146.4 86.8565 146.37 86.9175 146.354C87.5498 146.25 88.1755 146.125 88.781 145.964C88.8221 145.953 88.8652 145.95 88.9076 145.955C88.9501 145.96 88.991 145.974 89.0281 145.995C89.0651 146.017 89.0974 146.045 89.1232 146.08C89.149 146.114 89.1677 146.153 89.1781 146.194C89.1989 146.277 89.1865 146.365 89.1436 146.439C89.1007 146.513 89.0308 146.568 88.9485 146.591C88.3147 146.752 87.6745 146.89 87.0487 147.015C87.0067 147.023 86.9635 147.023 86.9217 147.014C86.8798 147.005 86.8403 146.987 86.8053 146.962C86.7704 146.938 86.7407 146.906 86.7181 146.87C86.6955 146.834 86.6804 146.793 86.6737 146.751C86.6366 146.689 86.6216 146.616 86.6312 146.544C86.6408 146.473 86.6743 146.406 86.7265 146.356L86.7525 146.442ZM90.4988 145.465L90.5858 145.382C91.1875 145.168 91.7772 144.921 92.3523 144.643C92.4304 144.61 92.5184 144.608 92.598 144.637C92.6776 144.667 92.7426 144.726 92.7796 144.803C92.8158 144.881 92.8201 144.97 92.7915 145.051C92.763 145.133 92.7038 145.199 92.6267 145.238C92.0397 145.505 91.4317 145.765 90.8175 145.989C90.736 146.018 90.6464 146.014 90.568 145.978C90.4895 145.941 90.4286 145.876 90.3981 145.795C90.3635 145.728 90.3534 145.651 90.3696 145.578C90.3857 145.505 90.4271 145.44 90.4865 145.394L90.4988 145.465Z" fill="#999999"/>
</svg>
